<svg width="114" height="70" viewBox="0 0 114 70" fill="none" xmlns="http://www.w3.org/2000/svg">
<path d="M86.6344 61.099C88.9511 61.4675 90.4843 62.8651 91.632 64.8176C92.5892 66.4439 93.7539 67.8585 95.5497 68.6547C98.9167 70.154 102.385 68.0957 102.572 64.4194C102.614 63.5851 102.572 62.7211 102.394 61.9122C101.924 59.8157 101.373 57.7404 100.823 55.6652C100.001 52.5649 97.8748 50.981 94.7788 50.5998C92.1233 50.2737 89.4678 50.3753 86.8419 50.875C84.1186 51.3917 82.4372 53.0351 82.0518 55.4704C81.6706 57.859 82.8311 59.8412 85.1055 60.6501C85.6052 60.828 86.1262 60.955 86.6344 61.1032V61.099Z" fill="#FCCA65"/>
<path d="M93.127 41.6422C92.7034 43.1542 92.5382 44.5306 92.9491 45.9198C93.6309 48.2322 95.5029 48.9438 97.4723 47.58C99.5137 46.1697 100.479 44.0774 100.899 41.7141C101.013 41.0704 101.047 40.3758 100.941 39.7363C100.577 37.5466 98.5608 36.5005 96.5236 37.3814C95.0752 38.0083 94.1519 39.1307 93.542 40.541C93.3641 40.9476 93.2286 41.3711 93.1312 41.6422H93.127Z" fill="#FCCA65"/>
<path d="M109.704 47.5925C110.686 44.4754 108.924 42.4509 106.15 42.9041C103.351 43.3573 100.988 45.7629 100.615 48.5582C100.471 49.6382 100.717 50.6377 101.335 51.5271C102.406 53.0772 104.143 53.3949 105.837 52.2979C107.756 51.0527 109.077 49.3078 109.704 47.5968V47.5925Z" fill="#FCCA65"/>
<path d="M113.071 56.9781C113.583 55.1992 113.338 54.043 112.304 53.4755C111.809 53.2044 111.161 53.0308 110.606 53.0859C108.399 53.2976 106.595 54.2929 105.375 56.1903C104.503 57.5456 104.55 58.9305 105.418 59.9555C106.472 61.2007 108.031 61.6157 109.496 60.9804C111.39 60.1587 112.486 58.6256 113.071 56.9781Z" fill="#FCCA65"/>
<path d="M90.1539 46.5378C90.4037 45.5129 90.3868 44.3143 89.9082 43.1453C89.4805 42.0992 88.7774 41.3284 87.5873 41.2098C86.4395 41.0955 85.5798 41.6673 84.9191 42.5397C83.4536 44.4668 84.4659 47.7745 86.7529 48.5961C88.2903 49.151 89.6117 48.4098 90.1581 46.5336L90.1539 46.5378Z" fill="#FCCA65"/>
<path d="M12.3922 22.1619C13.7173 20.9061 15.306 20.6226 17.0563 20.8369C18.5132 21.0182 19.9371 20.9687 21.2853 20.237C23.8068 18.8658 24.1793 15.7509 21.9972 13.8919C21.5028 13.47 20.9491 13.0876 20.3656 12.814C18.8494 12.112 17.3068 11.4659 15.7642 10.8232C13.4602 9.86067 11.4759 10.4243 9.7718 12.1548C8.3116 13.6414 7.11839 15.3257 6.17898 17.1847C5.20662 19.1097 5.42747 20.9292 6.74263 22.3201C8.03802 23.688 9.80806 23.9089 11.3869 22.8904C11.733 22.6663 12.056 22.4058 12.3922 22.1619Z" fill="#FCCA65"/>
<path d="M3.45306 8.93438C4.1848 9.91334 4.9561 10.6682 6.00758 11.0736C7.75783 11.7493 9.08288 10.9319 9.17517 9.06953C9.27076 7.14128 8.43684 5.55584 7.17771 4.17475C6.83491 3.79899 6.42288 3.44958 5.9779 3.21226C4.45178 2.4014 2.84985 3.14963 2.43124 4.82078C2.13129 6.01069 2.38839 7.11161 2.96851 8.15979C3.13661 8.45974 3.33439 8.7465 3.45306 8.93768V8.93438Z" fill="#FCCA65"/>
<path d="M14.9863 1.5181C13.5261 -0.565067 11.4462 -0.436506 10.4079 1.48845C9.36306 3.42988 9.72893 6.03055 11.2748 7.58633C11.8714 8.18623 12.6065 8.50927 13.447 8.54883C14.9105 8.62134 15.9323 7.70169 16.0543 6.13272C16.1927 4.35609 15.7411 2.7179 14.9863 1.5181Z" fill="#FCCA65"/>
<path d="M22.373 3.88814C21.5193 2.7279 20.6854 2.33237 19.8482 2.70154C19.446 2.87953 19.0307 3.19596 18.8033 3.56513C17.8869 5.02862 17.6463 6.61407 18.2396 8.26545C18.6615 9.44547 19.5383 10.075 20.5832 10.0256C21.8522 9.96625 22.8477 9.19823 23.1476 7.99184C23.5365 6.43276 23.1114 5.02861 22.373 3.88814Z" fill="#FCCA65"/>
<path d="M5.07142 13.0909C4.55722 12.4515 3.80899 11.8945 2.8597 11.6374C2.00929 11.4066 1.20174 11.4758 0.565587 12.1548C-0.0474982 12.8075 -0.103545 13.6085 0.120594 14.4325C0.618313 16.2487 3.13659 17.1947 4.72863 16.1729C5.79988 15.4873 5.97127 14.3204 5.06812 13.0942L5.07142 13.0909Z" fill="#FCCA65"/>
</svg>
