<svg width="53" height="53" viewBox="0 0 53 53" fill="none" xmlns="http://www.w3.org/2000/svg">
<path d="M33.0042 43.6137C34.6604 40.8057 37.248 39.5369 40.3578 39.043C42.9479 38.6369 45.3678 37.851 47.3216 35.9312C50.9748 32.3361 50.0806 26.806 45.4198 24.6892C44.3634 24.2084 43.2246 23.8247 42.0885 23.6423C39.1402 23.1837 36.1742 22.8341 33.2099 22.4903C28.7811 21.9725 25.6526 23.917 23.5794 27.7264C21.8048 30.997 20.5858 34.4756 19.8886 38.1292C19.1672 41.9122 20.4421 44.9266 23.3844 46.6667C26.2814 48.377 29.4285 47.8847 31.6372 45.3591C32.1209 44.804 32.5472 44.1979 33.0042 43.6137Z" fill="#FCCA65"/>
<path d="M11.1476 25.3103C12.8856 26.6305 14.5812 27.5464 16.5857 27.7246C19.9227 28.0228 21.7948 25.9673 21.0363 22.7252C20.251 19.3682 18.039 17.0573 15.1978 15.3066C14.4243 14.8303 13.5451 14.4334 12.6644 14.2451C9.64558 13.6046 7.26419 15.6776 7.36839 18.7523C7.43934 20.9425 8.42268 22.7057 9.93452 24.2193C10.3707 24.6514 10.8514 25.0462 11.1492 25.316L11.1476 25.3103Z" fill="#FCCA65"/>
<path d="M27.2935 6.90071C23.7614 4.04379 20.2545 5.28845 19.42 9.10386C18.5823 12.9508 20.4907 17.2348 23.9102 19.1442C25.2296 19.8803 26.6504 20.0729 28.1126 19.727C30.6605 19.1309 31.9616 17.0492 31.3985 14.296C30.7615 11.1782 29.1798 8.58858 27.2935 6.90071Z" fill="#FCCA65"/>
<path d="M41.1397 7.33235C39.1031 5.76106 37.4769 5.49269 36.2216 6.53856C35.6189 7.04207 35.0618 7.7897 34.8531 8.53536C34.0008 11.4986 34.3683 14.3385 36.1997 16.8811C37.5049 18.6989 39.3199 19.3479 41.0891 18.7486C43.2382 18.022 44.5688 16.2136 44.4897 13.9951C44.3897 11.1274 42.9686 8.92648 41.1397 7.33235Z" fill="#FCCA65"/>
<path d="M15.9719 31.6474C14.7745 30.8029 13.2159 30.2151 11.4598 30.2412C9.88647 30.2638 8.53437 30.7802 7.77669 32.2589C7.04562 33.681 7.34376 35.0835 8.1342 36.3876C9.8827 39.2601 14.6711 39.6441 16.9008 37.1064C18.4021 35.4021 18.1218 33.3148 15.9679 31.6547L15.9719 31.6474Z" fill="#FCCA65"/>
</svg>
