<svg width="60" height="60" viewBox="0 0 60 60" fill="none" xmlns="http://www.w3.org/2000/svg">
<path d="M22.7463 39.2801C26.6513 43.1851 36.1488 40.0201 43.9588 32.2089C51.77 24.3989 54.935 14.9014 51.03 10.9964M34.2363 8.34388L36.0038 10.1126M28.05 14.5314L29.8175 16.2989M22.745 21.6026L24.5125 23.3701M20.9775 30.4414L22.745 32.2089M43.9588 5.69263L45.7263 7.46013M42.1913 16.3001L45.7263 19.8351M36.005 22.4876L39.54 26.0226M28.9325 27.7901L32.4688 31.3251" stroke="#FCCA65" stroke-width="3" stroke-linecap="round" stroke-linejoin="round"/>
<path d="M22.7454 44.5839C24.2099 43.1194 24.2099 40.745 22.7454 39.2806C21.2809 37.8161 18.9066 37.8161 17.4421 39.2806L10.371 46.3516C8.90656 47.8161 8.90656 50.1905 10.371 51.6549C11.8355 53.1194 14.2099 53.1194 15.6743 51.6549L22.7454 44.5839Z" stroke="#FCCA65" stroke-width="3" stroke-linecap="round" stroke-linejoin="round"/>
</svg>
