<svg width="60" height="60" viewBox="0 0 60 60" fill="none" xmlns="http://www.w3.org/2000/svg">
<path d="M27.7791 41.8292C27.3908 41.0525 26.8309 40.3192 26.1011 39.5202L39.4794 26.1419C39.7433 26.3813 40.0346 26.6251 40.348 26.861C41.2329 27.527 42.3994 28.2096 43.7058 28.4709C45.4298 28.8157 47.3523 28.2944 48.8273 27.2076C50.3384 26.0941 51.5 24.2966 51.5 22C51.5 19.6899 50.3231 17.871 48.6445 16.7519C47.4437 15.9514 45.988 15.5031 44.482 15.4336C44.3952 14.4219 44.1599 13.283 43.6794 12.2197C42.8723 10.4336 41.3115 8.77356 38.6492 8.50733C37.1685 8.35926 35.9172 8.5735 34.8831 9.06904C33.8506 9.56378 33.1252 10.2954 32.6269 11.0428C31.6679 12.4814 31.5 14.0463 31.5 14.4999C31.5 15.0205 31.5039 17.7994 33.7948 20.1205L20.5333 33.8098C20.0124 33.3194 19.3896 32.8254 18.6912 32.4105C17.3469 31.6117 15.5346 31.0015 13.5879 31.5577C9.15433 32.8245 7.89037 37.2462 8.54478 39.8638C8.86731 41.154 9.6759 42.6284 11.1679 43.6231C12.2908 44.3716 13.7028 44.7836 15.3954 44.7211C15.5155 46.7557 16.3999 49.377 19.3292 50.8416C21.8615 52.1078 24.2174 51.6494 25.9 50.3875C27.4841 49.1994 28.5 47.2741 28.5 45.5C28.5 44.1464 28.3663 43.0034 27.7791 41.8292Z" stroke="#5189D3" stroke-width="3" stroke-linecap="round"/>
</svg>
