<svg width="67" height="67" viewBox="0 0 67 67" fill="none" xmlns="http://www.w3.org/2000/svg">
<path fill-rule="evenodd" clip-rule="evenodd" d="M17.4158 18.5089C16.8826 19.1607 16.75 19.6297 16.75 19.747C16.7501 20.0356 16.6608 20.3171 16.4943 20.5528C16.3278 20.7885 16.0923 20.9669 15.8203 21.0633C14.3217 21.5906 12.8202 22.1098 11.316 22.621C11.4109 23.1193 11.5575 23.7195 11.7766 24.3086C12.3294 25.7896 13.0566 26.521 13.9583 26.521C15.8203 26.521 17.5414 26.3967 18.7669 25.8803C19.3532 25.6332 19.7566 25.3247 20.019 24.9562C20.2758 24.5975 20.4726 24.0797 20.4726 23.2757H23.2643C23.2643 24.5668 22.9363 25.6751 22.2914 26.5782C22.0377 26.9328 21.7388 27.2529 21.4023 27.5302C21.3865 29.3211 21.3199 31.1113 21.2027 32.8985L21.1747 33.3703C21.0784 35.0453 21.0338 36.2053 21.158 37.1195C21.2725 37.964 21.5209 38.5042 21.9815 38.9718C22.491 39.4883 23.3592 40.0159 24.9198 40.6049C25.185 40.705 25.4135 40.8835 25.5749 41.1166C25.7362 41.3498 25.8227 41.6265 25.8229 41.91C25.8229 43.5571 26.0071 44.9083 26.1718 46.1268C26.2542 46.7229 26.331 47.2882 26.3798 47.8409C26.4426 48.5556 26.4831 49.4741 26.1314 50.2376C25.9229 50.7007 25.5684 51.0826 25.1222 51.3249C24.692 51.5469 24.213 51.6573 23.7291 51.646C23.6649 51.646 23.45 51.6892 23.1094 51.9754C22.7589 52.2815 22.4617 52.6438 22.23 53.0474L22.2286 53.0516C22.8274 53.0586 23.3816 53.0711 23.8896 53.0823L24.9184 53.1018C26.0099 53.12 26.7413 53.1046 27.255 53.0209C27.4149 53.0003 27.5713 52.9581 27.7198 52.8952C27.7463 52.883 27.7712 52.8676 27.7938 52.8492C27.7966 52.845 27.9166 52.6914 27.9166 52.0284V43.3059C27.9167 43.0124 28.0093 42.7265 28.1812 42.4887C28.3531 42.2509 28.5956 42.0734 28.8742 41.9812L40.5056 38.1273C40.8157 38.0245 41.1521 38.0337 41.4561 38.1533C41.7602 38.2729 42.0126 38.4954 42.1695 38.782C42.6259 39.6167 43.0237 40.3816 43.3727 41.0516C43.5667 41.4257 43.7454 41.7691 43.9101 42.0789C44.3888 42.9778 44.7895 43.6632 45.2445 44.269C46.1239 45.4345 47.3117 46.4395 49.9931 47.9149C50.1594 48.0066 50.3051 48.1313 50.4215 48.2813C50.5379 48.4313 50.6225 48.6035 50.6701 48.7873C50.8795 49.5927 50.9172 50.3702 50.5668 51.0876C50.3002 51.632 49.8312 52.0187 49.6232 52.1903L49.5562 52.2462C49.3468 52.4276 49.2184 52.563 49.1096 52.7947C49.0733 52.8749 49.0426 52.9575 49.0174 53.0418H52.1106V47.0341L47.5867 37.1935L50.1229 36.028L52.9788 42.2394C53.1575 40.8994 53.2761 39.378 53.2161 37.8705C53.1337 35.7516 52.7066 33.8351 51.77 32.4812C50.8962 31.218 49.4822 30.2981 46.9935 30.2981C45.8684 30.2981 44.7601 30.3121 43.6812 30.326C42.1371 30.3552 40.5926 30.358 39.0484 30.3344C36.6294 30.2813 34.3556 30.0817 32.2744 29.455C30.1653 28.8199 28.2698 27.7521 26.6045 26.0017C24.9533 24.2653 23.5826 21.9147 22.4212 18.7881C21.9271 17.4592 21.3395 17.0042 20.9347 16.8478C20.5103 16.6831 19.9478 16.7152 19.2597 17.0363C18.5757 17.3573 17.9071 17.9073 17.4172 18.5075L17.4158 18.5089ZM54.9023 46.9169V54.4376C54.9023 54.8078 54.7552 55.1629 54.4934 55.4246C54.2317 55.6864 53.8766 55.8335 53.5064 55.8335H47.4583C47.0881 55.8335 46.7331 55.6864 46.4713 55.4246C46.2095 55.1629 46.0625 54.8078 46.0625 54.4376C46.0625 53.2554 46.2411 52.3481 46.5789 51.6208C46.9251 50.8727 47.3885 50.4316 47.7277 50.1371L47.9315 49.9584C45.5334 48.5779 44.125 47.4222 43.0153 45.9482C42.4235 45.1637 41.9433 44.3234 41.4464 43.3924C41.2515 43.0249 41.0584 42.6564 40.8672 42.2869C40.6801 41.9268 40.4847 41.5499 40.2711 41.1451L30.7083 44.3137V52.0284C30.7083 52.919 30.5673 53.843 29.9811 54.5828C29.3753 55.3477 28.5112 55.6436 27.7059 55.7762C26.9102 55.9061 25.9415 55.9102 24.8737 55.8935L23.7905 55.8726C22.8397 55.8487 21.8886 55.8357 20.9375 55.8335C20.3652 55.8335 19.758 55.5864 19.3909 55.0029C19.0852 54.5186 19.0712 53.998 19.0991 53.6671C19.1564 52.9832 19.4621 52.2504 19.8194 51.6404C20.2131 50.9581 20.7195 50.3474 21.3171 49.8342C21.8936 49.3526 22.6878 48.8892 23.6244 48.8571V48.8515C23.6343 48.5967 23.6259 48.3416 23.5993 48.088C23.5672 47.7348 23.5072 47.2882 23.4374 46.7675C23.295 45.7039 23.1108 44.3374 23.0507 42.862C21.775 42.3148 20.7574 41.7034 19.9939 40.9316C19.0168 39.9405 18.5673 38.7931 18.3915 37.4936C18.224 36.2653 18.2951 34.8234 18.3887 33.2112L18.4166 32.7394C18.4822 31.6004 18.5562 30.3246 18.5911 28.8688C17.0738 29.2512 15.403 29.3126 13.9583 29.3126C11.1387 29.3126 9.77079 26.923 9.16081 25.2829C8.87769 24.5057 8.66559 23.7045 8.5271 22.889C8.46858 22.553 8.42202 22.215 8.38752 21.8756L8.38193 21.8086L8.37914 21.7891V21.7793L9.77079 21.676L9.31993 20.3542L9.95364 20.1378C11.3485 19.6602 12.7425 19.18 14.1356 18.6973C14.3687 17.9785 14.8 17.2973 15.255 16.7418C15.9711 15.8666 16.9593 15.0319 18.0774 14.5084C19.1941 13.9878 20.5787 13.717 21.9438 14.246C23.3271 14.782 24.3684 16.0131 25.037 17.8166C26.1118 20.7129 27.3136 22.6978 28.6271 24.0797C29.9252 25.4448 31.3853 26.2739 33.0798 26.7834C34.8009 27.3012 36.7774 27.4939 39.1098 27.5455C40.5168 27.5762 41.9782 27.5567 43.5583 27.5357C44.6415 27.5218 45.7791 27.5078 46.9921 27.5078C50.3197 27.5078 52.6285 28.8143 54.0662 30.8941C55.4411 32.8832 55.9156 35.4222 56.0064 37.7616C56.0999 40.1276 55.8068 42.4656 55.4983 44.1894C55.3346 45.1063 55.1358 46.0166 54.9023 46.9183V46.9169ZM9.77079 21.6746L9.31993 20.3528C9.02748 20.4527 8.77644 20.6468 8.60618 20.9047C8.43592 21.1626 8.35607 21.4697 8.37914 21.7779L9.77079 21.6746Z" fill="#FE6B73"/>
<path fill-rule="evenodd" clip-rule="evenodd" d="M54.0285 11.5757C54.2902 11.8374 54.4372 12.1924 54.4372 12.5625C54.4372 12.9327 54.2902 13.2876 54.0285 13.5494L32.3931 35.1848C32.1314 35.4466 31.7764 35.5937 31.4062 35.5938H20.9375C20.5673 35.5938 20.2122 35.4467 19.9505 35.1849C19.6887 34.9232 19.5416 34.5681 19.5416 34.1979C19.5416 33.8277 19.6887 33.4727 19.9505 33.2109C20.2122 32.9492 20.5673 32.8021 20.9375 32.8021H30.8283L52.0548 11.5757C52.3165 11.314 52.6715 11.167 53.0416 11.167C53.4118 11.167 53.7667 11.314 54.0285 11.5757Z" fill="#FE6B73"/>
<path fill-rule="evenodd" clip-rule="evenodd" d="M30.0104 42.5729V33.5H32.802V42.5729H30.0104Z" fill="#FE6B73"/>
</svg>
