<svg width="44" height="48" viewBox="0 0 44 48" fill="none" xmlns="http://www.w3.org/2000/svg">
<circle cx="21.0524" cy="32.4837" r="14.9762" fill="#5189D3"/>
<path d="M26.349 27.1873L16.4866 37.0496" stroke="white" stroke-width="2" stroke-linecap="round" stroke-linejoin="round"/>
<path d="M26.349 37.0496L16.4866 27.1873" stroke="white" stroke-width="2" stroke-linecap="round" stroke-linejoin="round"/>
<path d="M34.9436 11.8322C34.1915 13.6402 33.291 15.1161 31.8163 16.1599C29.3635 17.8989 26.9805 17.151 26.1039 14.295C25.1927 11.3378 25.8616 8.54294 27.2749 5.90423C27.6598 5.18534 28.1626 4.4788 28.76 3.93405C30.8068 2.0702 33.5891 2.6014 34.9048 5.03672C35.8399 6.76872 35.8781 8.58084 35.387 10.4331C35.2474 10.9687 35.0533 11.4882 34.9395 11.8289L34.9436 11.8322Z" fill="#5189D3"/>
<path d="M14.1121 4.86682C15.5555 1.05485 18.844 0.431569 21.2117 3.01664C23.6043 5.62133 24.0627 9.80194 22.2703 12.8279C21.5778 13.997 20.5657 14.7865 19.2735 15.1805C17.0274 15.872 15.0812 14.8429 14.2683 12.4608C13.3499 9.76016 13.4022 7.03093 14.1088 4.87097L14.1121 4.86682Z" fill="#5189D3"/>
<path d="M3.5698 11.462C4.44073 9.32394 5.57378 8.38088 7.02414 8.62255C7.71878 8.73948 8.48756 9.06956 8.98857 9.55172C10.9867 11.4623 11.9859 13.8298 11.7163 16.63C11.525 18.631 10.4104 19.9517 8.76878 20.2856C6.77465 20.6914 4.92753 19.895 3.98235 18.1417C2.76196 15.8756 2.87073 13.527 3.5698 11.462Z" fill="#5189D3"/>
<path d="M34.0773 18.9231C34.6236 17.7262 35.5653 16.5651 36.9363 15.7894C38.1628 15.0948 39.4465 14.8823 40.7038 15.6847C41.9164 16.4586 42.3173 17.6823 42.2912 19.0469C42.2393 22.0657 38.6947 24.5247 35.8202 23.5643C33.8859 22.9212 33.1635 21.1753 34.0764 18.9156L34.0773 18.9231Z" fill="#5189D3"/>
</svg>
