<svg width="53" height="44" viewBox="0 0 53 44" fill="none" xmlns="http://www.w3.org/2000/svg">
<path d="M49.6756 16.9329C49.1481 17.1816 48.5567 17.4706 48.1131 17.8536C47.7939 18.1258 47.4881 18.6063 48.2072 18.5761C48.4525 18.566 48.6944 18.5559 48.9397 18.5458C49.0405 18.5425 49.1615 18.5458 49.2186 18.6265C49.2522 18.6735 49.259 18.734 49.2623 18.7945C49.2892 19.1809 49.3598 19.3624 49.4572 19.4128C49.6454 19.5035 49.9377 19.1205 50.2637 18.7206C50.5527 18.3644 50.8282 17.9981 51.1239 17.6486C51.6347 17.0404 52.1119 16.5028 52.7805 16.076C51.7321 16.0055 50.6031 16.4961 49.6723 16.9363L49.6756 16.9329Z" fill="black"/>
<path d="M49.064 35.1322C48.7145 35.2834 48.5533 35.6866 48.7045 36.0361C48.9431 36.5905 48.9397 38.9024 48.6977 41.7116C48.3315 41.7889 47.8106 41.92 47.1184 42.135C44.8099 42.8508 44.0941 42.5819 43.8925 42.4341C43.8421 42.3971 43.7212 42.3064 43.7212 41.967C43.7212 41.6948 43.8186 41.5705 43.906 41.4932C44.2319 41.1941 45.0317 41.0664 45.9893 41.1538C46.275 41.1807 46.5572 41.0799 46.7656 40.8816C46.9706 40.6834 47.0814 40.4078 47.068 40.1289C46.9504 37.3096 45.3005 35.7807 41.8696 35.3203C41.8595 35.3203 41.8495 35.3203 41.8427 35.3203C41.8427 35.3203 41.8427 35.3203 41.8394 35.3203C40.3743 35.1288 38.6605 35.3136 36.7183 35.616C36.7082 35.616 36.7015 35.616 36.6914 35.6194C36.1269 35.7068 35.5422 35.8042 34.9407 35.905C31.8022 36.4259 28.247 37.0173 24.097 36.8862C23.7476 36.8762 23.3981 36.856 23.052 36.8358L23.1125 35.989C23.1393 35.5858 22.8369 35.233 22.4337 35.2061C22.0304 35.1758 21.6776 35.4816 21.6507 35.8849L21.2408 41.6814C20.5822 42.0275 18.23 42.5752 17.1748 42.0812C16.9127 41.9603 16.8926 41.8359 16.8926 41.7015C16.8926 41.2815 16.99 40.9858 17.1916 40.7875C17.6184 40.3709 18.5089 40.4011 18.9356 40.4145C19.0331 40.4145 19.1171 40.4179 19.1776 40.4179C19.5774 40.4112 19.9067 40.0852 19.9067 39.6854V37.1147C19.9202 37.0408 19.9202 36.9669 19.9067 36.893V34.8432C19.9067 34.4366 19.6245 34.1106 19.2179 34.1106C18.8113 34.1106 18.529 34.4399 18.529 34.8432V36.1268C15.3435 35.2733 14.0968 34.0031 14.0699 33.9729C13.8112 33.6973 13.381 33.6772 13.1021 33.9325C12.8232 34.1879 12.8031 34.6248 13.0585 34.9037C13.0786 34.9272 13.2433 35.1019 13.5793 35.3607L13.381 40.1356C12.7023 40.4784 10.3064 41.016 9.27141 40.5322C9.0093 40.4112 8.98914 40.2902 8.98914 40.1558C8.98914 39.7425 9.08995 39.4468 9.29493 39.2519C9.73849 38.8251 10.6458 38.8587 10.9852 38.8688C11.0658 38.8688 11.1297 38.8722 11.1733 38.8722C11.3682 38.8688 11.553 38.7848 11.6875 38.6437C11.8219 38.5025 11.8958 38.3144 11.8891 38.1195L11.7043 30.5722C11.6942 30.1656 11.3548 29.8464 10.9516 29.8565C10.545 29.8666 10.2257 30.2026 10.2358 30.6092L10.4005 37.4004C9.76873 37.4306 8.90178 37.5852 8.27004 38.1934C7.76936 38.6739 7.51733 39.3359 7.51733 40.1558C7.51733 40.717 7.766 42.0443 10.0577 42.1821C10.1854 42.1888 10.3198 42.1921 10.4542 42.1921C11.217 42.1921 12.0873 42.0712 12.9072 41.8527C14.5202 41.4193 14.7789 40.9253 14.826 40.5422C14.826 40.5221 14.8293 40.5019 14.8293 40.4851L15.0041 36.2612C15.8509 36.7014 17.0068 37.1752 18.5223 37.5516V38.9461C17.988 38.9629 16.8758 39.0939 16.2138 39.7391C15.7198 40.2196 15.414 40.8816 15.414 41.7049C15.414 42.2694 15.6593 43.5934 17.941 43.7312C18.0687 43.7379 18.1964 43.7412 18.3308 43.7412C19.0868 43.7412 19.9538 43.6203 20.767 43.4018C22.3665 42.9684 22.6252 42.4744 22.6723 42.0913C22.6723 42.0779 22.6723 42.0678 22.6756 42.0544L22.9478 38.2135C23.3141 38.2371 23.6804 38.2572 24.0466 38.2673C28.331 38.4017 32.1181 37.7734 35.1591 37.2693C35.7304 37.1752 36.2815 37.0845 36.8157 37.0005C37.1518 37.0442 38.6437 37.3567 38.8286 39.4636C38.0759 39.4804 36.9502 39.6114 36.2176 40.3238C35.7573 40.7707 35.5254 41.3588 35.5254 42.0745C35.5254 42.6088 35.7539 43.8622 37.8574 43.9865C37.9381 43.9899 38.0288 43.9933 38.1229 43.9933C39.4401 43.9933 42.0511 43.5262 42.1821 42.4374C42.1855 42.3971 42.1889 42.3568 42.1855 42.3131C42.1217 41.2311 42.0376 38.3984 42.2997 36.7989C44.8704 37.2928 45.5088 38.479 45.6533 39.7694C44.8233 39.7425 43.6842 39.8433 42.9752 40.4885C42.5618 40.8648 42.3434 41.3823 42.3434 41.9804C42.3434 42.8373 42.7399 43.3078 43.076 43.5564C43.4758 43.8521 44.0068 44 44.6889 44C45.4383 44 46.3758 43.8219 47.525 43.4657C48.3651 43.207 48.9195 43.0826 49.2253 43.0255C49.6622 42.9516 49.9982 42.592 50.0419 42.1417C50.2233 40.1457 50.4518 36.6308 49.9679 35.5085C49.8167 35.159 49.4135 34.9977 49.064 35.149V35.1322ZM37.1787 42.4408C36.9468 42.3333 36.8998 42.2257 36.8998 42.0577C36.8998 41.6142 37.0577 41.4092 37.1753 41.2949C37.7062 40.7808 38.9361 40.8178 39.3393 40.8279C39.4267 40.8279 39.4973 40.8312 39.5409 40.8312C39.9072 40.8245 40.2029 40.5355 40.2164 40.1692C40.2836 38.432 39.7459 37.3533 39.0839 36.6846C39.7459 36.6241 40.3642 36.5939 40.9355 36.6174C40.6566 38.4051 40.754 41.1404 40.7943 42.0645C40.166 42.3837 38.1195 42.8676 37.1753 42.4374L37.1787 42.4408Z" fill="black"/>
<path d="M12.3596 7.52734C12.3664 8.03474 12.783 8.50182 13.2501 8.52534C13.7743 8.55223 14.1876 8.12883 14.1944 7.55086C14.2044 6.97625 13.8113 6.52261 13.3005 6.51589C12.8133 6.51253 12.3496 7.00649 12.3563 7.52734H12.3596Z" fill="black"/>
<path d="M10.2997 16.6741L10.3703 19.9C10.3501 23.3006 11.0692 25.972 11.4994 27.0171C11.617 27.2993 11.8891 27.4707 12.1781 27.4707C12.2722 27.4707 12.4134 27.4539 12.5041 27.417C12.8804 27.2624 13.1056 26.8356 12.951 26.4593C12.5646 25.515 12.0236 23.0721 12.0236 19.9V19.8798L11.8488 16.0625C11.8421 15.7097 11.4926 15.4106 11.1432 15.3501C11.1062 15.3434 7.52076 14.7083 5.06438 12.057C3.6329 10.5147 2.78274 9.06638 2.24846 7.4736C2.71218 7.26527 3.30359 6.88891 3.73035 6.23029C4.12686 5.61872 4.21423 4.85593 4.22431 4.35525H13.4752C14.2951 5.32301 15.5989 5.74641 16.6339 5.74641C16.728 5.74641 16.8187 5.74305 16.9061 5.73633C17.8335 5.66576 18.6837 5.35326 19.4196 4.81561C19.8564 6.10932 20.6326 8.65643 21.1972 12.0873C21.9868 16.8522 22.0641 17.5814 22.0742 17.6654C22.0977 18.0518 22.417 18.3475 22.8067 18.3475C23.1965 18.3475 23.5393 18.0048 23.5393 17.5982C23.5393 17.2924 22.9781 13.8246 22.6455 11.805C21.9499 7.59793 20.9653 4.6644 20.5957 3.64287C20.6058 3.62943 20.6158 3.61598 20.6259 3.6059C21.5399 2.37268 21.3215 0.702608 21.3114 0.632042C21.2812 0.423704 21.1636 0.235527 20.9888 0.121277C20.8141 0.00366701 20.5957 -0.0299359 20.3907 0.0271892L13.2769 1.96944C12.9544 2.05681 12.7359 2.35251 12.7359 2.6751H0.732964C0.524626 2.6751 0.326369 2.8868 0.185236 3.04473C0.0441039 3.20267 -0.0163814 3.52862 0.00378033 3.73695C0.33981 6.79146 1.02867 9.42593 3.13558 12.0806C3.29351 12.336 3.29687 12.5308 3.10197 12.8064C2.65505 13.4381 2.33583 14.127 2.34927 14.9267C2.36607 15.9617 3.05829 16.5733 4.08318 16.4725C4.95686 16.3885 5.52138 15.8407 5.98847 15.1754C6.10608 15.0107 6.18 14.9368 6.3245 14.9872C7.91728 15.9819 9.47645 16.4691 10.2997 16.6741Z" fill="black"/>
<path d="M16.5299 29.9271C16.9298 27.3262 17.3297 24.806 17.696 22.2791C17.7565 21.8557 17.9177 21.7448 18.3176 21.7851C18.9393 21.849 19.5643 21.8826 20.1927 21.8994C20.5825 21.9095 20.7673 22.0707 20.8244 22.4639C21.0831 24.2852 21.3621 26.0997 21.641 27.9177C21.6678 28.0857 21.5872 28.3679 21.8527 28.3713C22.1148 28.3713 22.0475 28.089 22.0812 27.921C22.5348 25.636 22.9952 23.351 23.4186 21.0593C23.5026 20.5989 23.7042 20.4544 24.141 20.5015C24.4401 20.5351 24.7492 20.5385 25.0517 20.5284C25.4751 20.5116 25.5725 20.6829 25.465 21.0828C24.9475 23.0015 24.4737 24.9337 24.094 26.8894C23.7311 28.7477 23.4051 30.616 23.2337 32.5045C23.2001 32.8808 23.0556 32.9951 22.6994 32.9581C22.1349 32.8943 21.567 32.8439 20.9991 32.8103C20.6665 32.7901 20.6127 32.5952 20.5858 32.3196C20.3372 30.001 19.9474 27.7026 19.4601 25.421C19.4131 25.2059 19.3929 24.9774 19.1779 24.6783C18.9998 25.5151 18.8317 26.2543 18.6839 26.9969C18.3311 28.7813 17.9816 30.5656 17.6422 32.3499C17.5952 32.6019 17.5246 32.7867 17.239 32.8069C16.6341 32.8539 16.0293 32.8976 15.4244 32.9514C15.1657 32.9749 15.0548 32.8707 15.0212 32.6053C14.5709 28.8384 13.8215 25.1253 13.1159 21.402C12.9815 20.6863 12.9848 20.6863 13.7275 20.6359C15.0682 20.5418 15.0481 20.5452 15.2463 21.9027C15.626 24.5271 16.0293 27.1482 16.4258 29.7725C16.4291 29.8028 16.4627 29.8297 16.5299 29.9271Z" fill="#77D0D1"/>
<path d="M38.822 26.8927C38.8758 28.1629 38.8287 29.4297 38.5969 30.6865C38.3953 31.7718 37.908 32.6556 36.779 32.9278C35.5592 33.2235 34.3159 33.331 33.338 32.2692C32.8508 31.7382 32.6189 31.0628 32.4778 30.3773C32.0073 28.0755 32.1081 25.767 32.5819 23.4854C32.9751 21.5935 34.0302 20.7702 35.8045 20.74C36.9167 20.7198 37.6728 21.2508 38.1533 22.2152C38.5834 23.0788 38.7683 24.0062 38.8153 24.9572C38.8489 25.599 38.822 26.2475 38.822 26.8927ZM37.2091 27.3598C37.2192 25.9316 37.1856 24.816 36.7689 23.7508C36.6009 23.3207 36.3119 23.0015 35.828 22.9443C35.3172 22.8839 34.9006 23.0687 34.6149 23.5156C34.4704 23.7407 34.3427 23.9692 34.2755 24.2313C33.9294 25.5687 33.8925 26.9364 33.9664 28.3007C34.0067 29.0298 34.0605 29.7792 34.3898 30.4647C34.6351 30.9788 35.0215 31.2678 35.5995 31.2409C36.1674 31.2174 36.6345 31.0023 36.8361 30.421C37.2192 29.3289 37.1687 28.183 37.2124 27.3564L37.2091 27.3598Z" fill="#77D0D1"/>
<path d="M25.0045 27.3027C24.9843 25.9922 25.0985 24.6917 25.3842 23.4081C25.8613 21.2441 28.0153 20.0915 29.8466 21.0324C30.7102 21.4759 31.0799 22.2992 31.3084 23.1729C31.7855 25.0143 31.7217 26.8961 31.6142 28.7711C31.5738 29.4667 31.5133 30.1589 31.3554 30.8511C31.0093 32.3801 30.1558 32.9043 28.7881 33.079C26.9971 33.3109 25.8412 32.4809 25.3808 30.7335C25.0851 29.6045 24.991 28.462 25.0078 27.3027H25.0045ZM29.9676 27.0809C29.9374 26.0022 30.055 24.7757 29.5039 23.6366C29.1275 22.857 28.2606 22.689 27.6221 23.277C27.2861 23.5862 27.1046 23.976 27.0038 24.4061C26.6812 25.8073 26.7048 27.2287 26.7955 28.6468C26.8324 29.208 26.9165 29.7759 27.1349 30.3101C27.4037 30.9721 27.8473 31.2913 28.4521 31.2477C29.1107 31.2006 29.5778 30.7638 29.7458 30.0917C29.9844 29.1408 29.9542 28.1764 29.971 27.0843L29.9676 27.0809Z" fill="#77D0D1"/>
<path d="M39.5109 27.081C39.4706 25.1555 39.5378 23.1058 39.39 21.0593C39.3564 20.5956 39.4538 20.3873 39.9948 20.3873C41.3389 20.394 42.6864 20.3335 44.0305 20.2764C44.4203 20.2596 44.585 20.3705 44.5782 20.7771C44.5682 21.2307 44.6018 21.6877 44.6387 22.1414C44.6656 22.4942 44.5211 22.6051 44.1784 22.6017C43.3249 22.5883 42.4713 22.6152 41.6178 22.6017C41.2348 22.595 41.0802 22.7092 41.097 23.1226C41.1306 23.9761 41.1239 24.8296 41.1037 25.6831C41.0936 26.0931 41.2079 26.2644 41.6481 26.2376C42.3302 26.1972 43.0157 26.2308 43.6978 26.2107C44.0204 26.2006 44.1649 26.2745 44.1784 26.6442C44.2221 28.0891 44.2355 28.0891 42.8107 28.1193C41.9191 28.1395 41.4722 28.5875 41.47 29.4634C41.47 30.3942 41.4532 31.325 41.4767 32.2525C41.4868 32.6591 41.3288 32.7666 40.9424 32.7565C39.4941 32.7229 39.5008 32.733 39.5076 31.3015C39.5143 29.9339 39.5076 28.5696 39.5076 27.081H39.5109Z" fill="#77D0D1"/>
<path d="M46.1474 24.8463C46.1474 23.5022 46.1205 22.1816 46.0969 20.8375C46.0902 20.4376 46.2078 20.3133 46.6077 20.3133C47.9182 20.3133 47.925 20.2999 47.9115 21.5868C47.888 23.976 47.8376 26.3618 47.8342 28.751C47.8342 29.2651 47.6528 29.3928 47.1823 29.4063C46.2078 29.4365 46.2146 29.46 46.2213 28.5124C46.228 27.2994 46.1474 26.0628 46.1474 24.8497C46.107 24.8497 46.1877 24.8497 46.1474 24.8497V24.8463Z" fill="#77D0D1"/>
<path d="M47.0378 33.1228C46.5169 33.1328 46.1271 32.7699 46.1103 32.2625C46.0935 31.7484 46.5169 31.288 47.0143 31.2813C47.5015 31.2746 47.9484 31.735 47.9451 32.239C47.9451 32.7599 47.5822 33.1127 47.0412 33.1228H47.0378Z" fill="#77D0D1"/>
<path d="M28.3513 16.2809L28.2471 16.6338L27.5045 16.4154L26.9198 18.4013L26.5266 18.2837L27.1113 16.2978L26.3721 16.0793L26.4762 15.7265L28.3513 16.2776V16.2809Z" fill="#77D0D1"/>
<path d="M29.9977 17.2084L29.6281 19.0263L29.2349 18.9456L29.3055 18.5894C29.1308 18.8179 28.8788 18.8818 28.583 18.828C28.1664 18.744 27.9715 18.4248 28.0588 17.9913L28.2873 16.8622L28.6805 16.9429L28.4722 17.9644C28.415 18.2366 28.5427 18.4382 28.8048 18.492C29.1207 18.5491 29.3526 18.3441 29.4198 18.0249L29.6012 17.1311L29.9944 17.2117L29.9977 17.2084Z" fill="#77D0D1"/>
<path d="M31.0799 16.6171L30.7237 19.181L30.3271 19.1272L30.6833 16.5633L31.0799 16.6171Z" fill="#77D0D1"/>
<path d="M33.2406 17.5545L33.0961 19.4027L32.6963 19.3724L32.7231 19.0095C32.5787 19.2582 32.3367 19.3523 32.0343 19.3321C31.6109 19.2985 31.379 19.0062 31.4126 18.566L31.5034 17.4167L31.9032 17.447L31.8226 18.4853C31.7991 18.7642 31.9503 18.9457 32.2191 18.9658C32.5383 18.9826 32.7467 18.7508 32.7702 18.4282L32.8408 17.5176L33.2406 17.5478V17.5545Z" fill="#77D0D1"/>
<path d="M36.9067 18.2333L36.9336 19.3859L36.5338 19.3959L36.5102 18.3542C36.5035 18.072 36.3321 17.904 36.0599 17.9107C35.7441 17.9275 35.5559 18.1761 35.5626 18.4987L35.5828 19.4161L35.1829 19.4262L35.1594 18.3845C35.1527 18.1022 34.9847 17.9342 34.7125 17.9409C34.3932 17.9577 34.2017 18.2064 34.2084 18.529L34.2286 19.4463L33.8321 19.4564L33.7917 17.6015L34.1883 17.5915L34.195 17.951C34.3193 17.6855 34.5545 17.5713 34.8603 17.5646C35.193 17.5579 35.4215 17.7158 35.5156 17.9981C35.6265 17.6855 35.8718 17.5444 36.2112 17.5377C36.6379 17.5276 36.8967 17.7931 36.9067 18.2366V18.2333Z" fill="#77D0D1"/>
<path d="M39.1848 17.0505C38.9462 17.0807 38.8017 17.1916 38.8252 17.3529C38.8958 17.8805 40.1626 17.4268 40.2735 18.3005C40.3307 18.734 39.9846 19.0465 39.4536 19.117C39.0739 19.1674 38.6942 19.0566 38.4153 18.8617L38.5463 18.4853C38.8252 18.6802 39.1512 18.7642 39.4099 18.7306C39.6922 18.6936 39.8501 18.566 39.8233 18.3778C39.7527 17.8401 38.4859 18.3106 38.375 17.4503C38.3212 17.037 38.6438 16.7312 39.168 16.6607C39.4839 16.6203 39.8031 16.6808 40.0484 16.7984L39.9274 17.1815C39.6452 17.0572 39.373 17.0269 39.1882 17.0505H39.1848Z" fill="#77D0D1"/>
<path d="M42.646 17.6284C42.7502 18.1728 42.478 18.6096 41.9571 18.7104C41.6648 18.7642 41.4262 18.6903 41.2515 18.5055L41.4363 19.4867L41.0431 19.5606L40.5693 17.074L40.9625 17.0001L41.023 17.3159C41.1171 17.0773 41.312 16.9194 41.5976 16.8656C42.1151 16.7682 42.5385 17.0773 42.646 17.6318V17.6284ZM42.2461 17.6889C42.1823 17.3495 41.9034 17.1445 41.5808 17.205C41.2582 17.2655 41.0734 17.5579 41.1372 17.9006C41.2044 18.2534 41.48 18.4517 41.8059 18.3912C42.1319 18.3307 42.3133 18.0384 42.2461 17.6889Z" fill="#77D0D1"/>
<path d="M44.3901 18.1391L44.3329 17.9207C44.2456 18.1123 44.0574 18.2433 43.7987 18.3072C43.4089 18.4046 43.1064 18.2299 43.0258 17.9106C42.9418 17.5847 43.1367 17.3125 43.5668 17.1983L44.1112 17.0605L44.0977 17.0067C44.0406 16.7816 43.8591 16.6841 43.5769 16.7547C43.4055 16.7984 43.2409 16.9059 43.093 17.0706L42.8645 16.8421C43.0762 16.6304 43.2375 16.506 43.5802 16.4187C44.044 16.3011 44.3632 16.4691 44.4674 16.8656L44.7698 18.0417L44.3867 18.1391H44.3901ZM44.2254 17.5074L44.1817 17.3428L43.6945 17.4671C43.4425 17.5309 43.3417 17.6284 43.3853 17.8031C43.4257 17.9644 43.5836 18.035 43.802 17.9812C44.0776 17.9106 44.2557 17.7124 44.2254 17.5108V17.5074Z" fill="#77D0D1"/>
</svg>
