<svg width="44" height="48" viewBox="0 0 44 48" fill="none" xmlns="http://www.w3.org/2000/svg">
<circle cx="20.9762" cy="32.4837" r="14.9762" fill="#5189D3"/>
<path d="M22.6843 31.7665C22.6843 32.1458 22.5718 32.5166 22.3611 32.832C22.1503 33.1473 21.8508 33.3931 21.5004 33.5383C21.15 33.6834 20.7644 33.7214 20.3924 33.6474C20.0204 33.5734 19.6787 33.3907 19.4106 33.1226C19.1424 32.8544 18.9597 32.5127 18.8857 32.1407C18.8117 31.7687 18.8497 31.3831 18.9949 31.0327C19.14 30.6823 19.3858 30.3828 19.7012 30.172C20.0165 29.9613 20.3873 29.8489 20.7666 29.8489C21.2746 29.8507 21.7613 30.0533 22.1206 30.4125C22.4798 30.7718 22.6824 31.2585 22.6843 31.7665ZM20.7666 28.2051C21.1458 28.2051 21.5166 28.0927 21.832 27.8819C22.1473 27.6712 22.3931 27.3717 22.5383 27.0213C22.6834 26.6709 22.7214 26.2853 22.6474 25.9133C22.5734 25.5413 22.3908 25.1996 22.1226 24.9314C21.8544 24.6632 21.5127 24.4806 21.1407 24.4066C20.7687 24.3326 20.3831 24.3706 20.0327 24.5157C19.6823 24.6609 19.3828 24.9067 19.1721 25.222C18.9613 25.5374 18.8489 25.9082 18.8489 26.2874C18.8507 26.7955 19.0533 27.2822 19.4125 27.6415C19.7718 28.0007 20.2585 28.2033 20.7666 28.2051ZM20.7666 35.328C20.3873 35.328 20.0165 35.4404 19.7012 35.6511C19.3858 35.8619 19.14 36.1614 18.9949 36.5118C18.8497 36.8622 18.8117 37.2478 18.8857 37.6198C18.9597 37.9918 19.1424 38.3335 19.4106 38.6017C19.6787 38.8698 20.0204 39.0525 20.3924 39.1265C20.7644 39.2005 21.15 39.1625 21.5004 39.0174C21.8508 38.8722 22.1503 38.6264 22.3611 38.3111C22.5718 37.9957 22.6843 37.6249 22.6843 37.2456C22.6824 36.7376 22.4798 36.2509 22.1206 35.8916C21.7613 35.5324 21.2746 35.3298 20.7666 35.328Z" fill="white"/>
<path d="M34.9436 11.8322C34.1915 13.6402 33.291 15.1161 31.8163 16.1599C29.3635 17.8989 26.9805 17.151 26.1039 14.295C25.1927 11.3378 25.8616 8.54294 27.2749 5.90423C27.6598 5.18534 28.1626 4.4788 28.76 3.93405C30.8068 2.0702 33.5891 2.6014 34.9048 5.03672C35.8399 6.76872 35.8781 8.58084 35.387 10.4331C35.2474 10.9687 35.0533 11.4882 34.9395 11.8289L34.9436 11.8322Z" fill="#5189D3"/>
<path d="M14.1121 4.86682C15.5555 1.05485 18.844 0.431569 21.2117 3.01664C23.6043 5.62133 24.0627 9.80194 22.2703 12.8279C21.5778 13.997 20.5657 14.7865 19.2735 15.1805C17.0274 15.872 15.0812 14.8429 14.2683 12.4608C13.3499 9.76016 13.4022 7.03093 14.1088 4.87097L14.1121 4.86682Z" fill="#5189D3"/>
<path d="M3.5698 11.462C4.44073 9.32394 5.57378 8.38088 7.02414 8.62255C7.71878 8.73948 8.48756 9.06956 8.98857 9.55172C10.9867 11.4623 11.9859 13.8298 11.7163 16.63C11.525 18.631 10.4104 19.9517 8.76878 20.2856C6.77465 20.6914 4.92753 19.895 3.98235 18.1417C2.76196 15.8756 2.87073 13.527 3.5698 11.462Z" fill="#5189D3"/>
<path d="M34.0773 18.9231C34.6236 17.7262 35.5653 16.5651 36.9363 15.7894C38.1628 15.0948 39.4465 14.8824 40.7038 15.6848C41.9164 16.4586 42.3173 17.6823 42.2912 19.047C42.2393 22.0658 38.6947 24.5247 35.8202 23.5644C33.8859 22.9213 33.1635 21.1753 34.0764 18.9157L34.0773 18.9231Z" fill="#5189D3"/>
</svg>
