<svg width="237" height="964" viewBox="0 0 237 964" fill="none" xmlns="http://www.w3.org/2000/svg">
<path d="M121.529 85.7078C124.778 86.2247 126.929 88.1853 128.539 90.9242C129.882 93.2056 131.516 95.1899 134.035 96.3068C138.758 98.41 143.624 95.5226 143.885 90.3657C143.945 89.1953 143.885 87.9833 143.636 86.8485C142.976 83.9077 142.204 80.9965 141.432 78.0854C140.279 73.7364 137.296 71.5145 132.954 70.9798C129.228 70.5223 125.503 70.6648 121.82 71.3659C118 72.0907 115.641 74.3959 115.1 77.8121C114.566 81.1629 116.194 83.9433 119.384 85.0781C120.085 85.3276 120.816 85.5058 121.529 85.7138V85.7078Z" fill="#FCCA65"/>
<path d="M130.636 58.4146C130.042 60.5356 129.81 62.4665 130.387 64.4152C131.343 67.6591 133.969 68.6572 136.732 66.7441C139.596 64.7657 140.95 61.8308 141.538 58.5156C141.699 57.6125 141.746 56.6382 141.598 55.7411C141.087 52.6696 138.259 51.2021 135.401 52.4378C133.369 53.3171 132.074 54.8916 131.219 56.87C130.969 57.4403 130.779 58.0344 130.642 58.4146H130.636Z" fill="#FCCA65"/>
<path d="M153.89 66.7623C155.268 62.3896 152.797 59.5497 148.905 60.1854C144.978 60.8211 141.663 64.1957 141.14 68.1168C140.938 69.6318 141.283 71.034 142.15 72.2816C143.653 74.4561 146.089 74.9016 148.466 73.3629C151.157 71.6162 153.011 69.1684 153.89 66.7682V66.7623Z" fill="#FCCA65"/>
<path d="M158.613 79.9273C159.332 77.432 158.987 75.8101 157.538 75.014C156.843 74.6337 155.934 74.3902 155.155 74.4674C152.06 74.7645 149.529 76.1606 147.818 78.8222C146.594 80.7234 146.66 82.6662 147.878 84.1039C149.357 85.8506 151.543 86.4328 153.599 85.5416C156.255 84.3891 157.793 82.2384 158.613 79.9273Z" fill="#FCCA65"/>
<path d="M126.466 65.2824C126.816 63.8446 126.792 62.1633 126.121 60.5235C125.521 59.0561 124.535 57.9748 122.865 57.8085C121.255 57.6481 120.049 58.4501 119.122 59.674C117.067 62.3772 118.487 67.0172 121.695 68.1698C123.852 68.9481 125.705 67.9084 126.472 65.2765L126.466 65.2824Z" fill="#FCCA65"/>
<path d="M121.529 411.708C124.778 412.225 126.929 414.185 128.539 416.924C129.882 419.206 131.516 421.19 134.035 422.307C138.758 424.41 143.624 421.523 143.885 416.366C143.945 415.195 143.885 413.983 143.636 412.849C142.976 409.908 142.204 406.997 141.432 404.085C140.279 399.736 137.296 397.514 132.954 396.98C129.228 396.522 125.503 396.665 121.82 397.366C118 398.091 115.641 400.396 115.1 403.812C114.566 407.163 116.194 409.943 119.384 411.078C120.085 411.328 120.816 411.506 121.529 411.714V411.708Z" fill="#FCCA65"/>
<path d="M130.636 384.415C130.042 386.536 129.81 388.466 130.387 390.415C131.343 393.659 133.969 394.657 136.732 392.744C139.596 390.766 140.95 387.831 141.538 384.516C141.699 383.613 141.746 382.638 141.598 381.741C141.087 378.67 138.259 377.202 135.401 378.438C133.369 379.317 132.074 380.892 131.219 382.87C130.969 383.44 130.779 384.034 130.642 384.415H130.636Z" fill="#FCCA65"/>
<path d="M153.89 392.762C155.268 388.39 152.797 385.55 148.905 386.185C144.978 386.821 141.663 390.196 141.14 394.117C140.938 395.632 141.283 397.034 142.15 398.282C143.653 400.456 146.089 400.902 148.466 399.363C151.157 397.616 153.011 395.168 153.89 392.768V392.762Z" fill="#FCCA65"/>
<path d="M158.613 405.927C159.332 403.432 158.987 401.81 157.538 401.014C156.843 400.634 155.934 400.39 155.155 400.467C152.06 400.764 149.529 402.161 147.818 404.822C146.594 406.723 146.66 408.666 147.878 410.104C149.357 411.851 151.543 412.433 153.599 411.542C156.255 410.389 157.793 408.238 158.613 405.927Z" fill="#FCCA65"/>
<path d="M126.466 391.282C126.816 389.845 126.792 388.163 126.121 386.524C125.521 385.056 124.535 383.975 122.865 383.808C121.255 383.648 120.049 384.45 119.122 385.674C117.067 388.377 118.487 393.017 121.695 394.17C123.852 394.948 125.705 393.908 126.472 391.276L126.466 391.282Z" fill="#FCCA65"/>
<path d="M121.529 737.708C124.778 738.225 126.929 740.185 128.539 742.924C129.882 745.206 131.516 747.19 134.035 748.307C138.758 750.41 143.624 747.523 143.885 742.366C143.945 741.195 143.885 739.983 143.636 738.849C142.976 735.908 142.204 732.997 141.432 730.085C140.279 725.736 137.296 723.514 132.954 722.98C129.228 722.522 125.503 722.665 121.82 723.366C118 724.091 115.641 726.396 115.1 729.812C114.566 733.163 116.194 735.943 119.384 737.078C120.085 737.328 120.816 737.506 121.529 737.714V737.708Z" fill="#FCCA65"/>
<path d="M130.636 710.415C130.042 712.536 129.81 714.466 130.387 716.415C131.343 719.659 133.969 720.657 136.732 718.744C139.596 716.766 140.95 713.831 141.538 710.516C141.699 709.613 141.746 708.638 141.598 707.741C141.087 704.67 138.259 703.202 135.401 704.438C133.369 705.317 132.074 706.892 131.219 708.87C130.969 709.44 130.779 710.034 130.642 710.415H130.636Z" fill="#FCCA65"/>
<path d="M153.89 718.762C155.268 714.39 152.797 711.55 148.905 712.185C144.978 712.821 141.663 716.196 141.14 720.117C140.938 721.632 141.283 723.034 142.15 724.282C143.653 726.456 146.089 726.902 148.466 725.363C151.157 723.616 153.011 721.168 153.89 718.768V718.762Z" fill="#FCCA65"/>
<path d="M158.613 731.927C159.332 729.432 158.987 727.81 157.538 727.014C156.843 726.634 155.934 726.39 155.155 726.467C152.06 726.764 149.529 728.161 147.818 730.822C146.594 732.723 146.66 734.666 147.878 736.104C149.357 737.851 151.543 738.433 153.599 737.542C156.255 736.389 157.793 734.238 158.613 731.927Z" fill="#FCCA65"/>
<path d="M126.466 717.282C126.816 715.845 126.792 714.163 126.121 712.524C125.521 711.056 124.535 709.975 122.865 709.808C121.255 709.648 120.049 710.45 119.122 711.674C117.067 714.377 118.487 719.017 121.695 720.17C123.852 720.948 125.705 719.908 126.472 717.276L126.466 717.282Z" fill="#FCCA65"/>
<path d="M17.3834 31.0885C19.2422 29.3268 21.4708 28.9292 23.926 29.2297C25.9697 29.484 27.9672 29.4147 29.8583 28.3882C33.3955 26.4647 33.918 22.0953 30.857 19.4875C30.1635 18.8956 29.3867 18.3593 28.5683 17.9755C26.4413 16.9906 24.2774 16.0843 22.1135 15.1827C18.8815 13.8326 16.098 14.6233 13.7075 17.0507C11.6592 19.136 9.98536 21.4988 8.66759 24.1066C7.30358 26.8069 7.61338 29.3592 9.45827 31.3104C11.2754 33.2293 13.7584 33.5391 15.9732 32.1104C16.4587 31.7959 16.9118 31.4306 17.3834 31.0885Z" fill="#FCCA65"/>
<path d="M4.84382 12.5325C5.87029 13.9058 6.95225 14.9646 8.42723 15.5334C10.8825 16.4812 12.7412 15.3346 12.8707 12.7221C13.0048 10.0172 11.8349 7.79321 10.0687 5.85585C9.58779 5.32874 9.00981 4.8386 8.38561 4.50569C6.2448 3.36824 3.99765 4.41784 3.41043 6.76209C2.98967 8.43127 3.35033 9.97561 4.16411 11.446C4.39992 11.8667 4.67736 12.269 4.84382 12.5372V12.5325Z" fill="#FCCA65"/>
<path d="M21.0222 2.12956C18.9739 -0.792663 16.0563 -0.61232 14.5998 2.08796C13.1341 4.81136 13.6473 8.45951 15.8159 10.6419C16.6528 11.4834 17.6839 11.9366 18.8629 11.9921C20.9159 12.0938 22.3492 10.8037 22.5203 8.60283C22.7145 6.11062 22.0811 3.81261 21.0222 2.12956Z" fill="#FCCA65"/>
<path d="M31.3841 5.45459C30.1866 3.82702 29.0167 3.27218 27.8423 3.79004C27.2782 4.03973 26.6956 4.4836 26.3766 5.00147C25.0912 7.05442 24.7536 9.27845 25.5859 11.595C26.1778 13.2503 27.4077 14.1334 28.8734 14.064C30.6535 13.9808 32.0499 12.9035 32.4707 11.2112C33.0163 9.02411 32.4198 7.05441 31.3841 5.45459Z" fill="#FCCA65"/>
<path d="M7.11406 18.3636C6.39275 17.4666 5.34315 16.6852 4.0115 16.3246C2.81857 16.0009 1.68577 16.098 0.79338 17.0505C-0.0666399 17.966 -0.145261 19.0896 0.169155 20.2455C0.867343 22.7932 4.39992 24.1203 6.6332 22.6869C8.13592 21.7251 8.37634 20.0883 7.10943 18.3682L7.11406 18.3636Z" fill="#FCCA65"/>
<path d="M17.3834 357.088C19.2422 355.327 21.4708 354.929 23.926 355.23C25.9697 355.484 27.9672 355.415 29.8583 354.388C33.3955 352.465 33.918 348.095 30.857 345.487C30.1635 344.896 29.3867 344.359 28.5683 343.975C26.4413 342.991 24.2774 342.084 22.1135 341.183C18.8815 339.833 16.098 340.623 13.7075 343.051C11.6592 345.136 9.98536 347.499 8.66759 350.107C7.30358 352.807 7.61338 355.359 9.45827 357.31C11.2754 359.229 13.7584 359.539 15.9732 358.11C16.4587 357.796 16.9118 357.431 17.3834 357.088Z" fill="#FCCA65"/>
<path d="M4.84382 338.533C5.87029 339.906 6.95225 340.965 8.42723 341.533C10.8825 342.481 12.7412 341.335 12.8707 338.722C13.0048 336.017 11.8349 333.793 10.0687 331.856C9.58779 331.329 9.00981 330.839 8.38561 330.506C6.2448 329.368 3.99765 330.418 3.41043 332.762C2.98967 334.431 3.35033 335.976 4.16411 337.446C4.39992 337.867 4.67736 338.269 4.84382 338.537V338.533Z" fill="#FCCA65"/>
<path d="M21.0222 328.13C18.9739 325.207 16.0563 325.388 14.5998 328.088C13.1341 330.811 13.6473 334.46 15.8159 336.642C16.6528 337.483 17.6839 337.937 18.8629 337.992C20.9159 338.094 22.3492 336.804 22.5203 334.603C22.7145 332.111 22.0811 329.813 21.0222 328.13Z" fill="#FCCA65"/>
<path d="M31.3841 331.455C30.1866 329.827 29.0167 329.272 27.8423 329.79C27.2782 330.04 26.6956 330.484 26.3766 331.001C25.0912 333.054 24.7536 335.278 25.5859 337.595C26.1778 339.25 27.4077 340.133 28.8734 340.064C30.6535 339.981 32.0499 338.903 32.4707 337.211C33.0163 335.024 32.4198 333.054 31.3841 331.455Z" fill="#FCCA65"/>
<path d="M7.11406 344.364C6.39275 343.467 5.34315 342.685 4.0115 342.325C2.81857 342.001 1.68577 342.098 0.79338 343.05C-0.0666399 343.966 -0.145261 345.09 0.169155 346.246C0.867343 348.793 4.39992 350.12 6.6332 348.687C8.13592 347.725 8.37634 346.088 7.10943 344.368L7.11406 344.364Z" fill="#FCCA65"/>
<path d="M17.3834 683.088C19.2422 681.327 21.4708 680.929 23.926 681.23C25.9697 681.484 27.9672 681.415 29.8583 680.388C33.3955 678.465 33.918 674.095 30.857 671.487C30.1635 670.896 29.3867 670.359 28.5683 669.975C26.4413 668.991 24.2774 668.084 22.1135 667.183C18.8815 665.833 16.098 666.623 13.7075 669.051C11.6592 671.136 9.98536 673.499 8.66759 676.107C7.30358 678.807 7.61338 681.359 9.45827 683.31C11.2754 685.229 13.7584 685.539 15.9732 684.11C16.4587 683.796 16.9118 683.431 17.3834 683.088Z" fill="#FCCA65"/>
<path d="M4.84382 664.533C5.87029 665.906 6.95225 666.965 8.42723 667.533C10.8825 668.481 12.7412 667.335 12.8707 664.722C13.0048 662.017 11.8349 659.793 10.0687 657.856C9.58779 657.329 9.00981 656.839 8.38561 656.506C6.2448 655.368 3.99765 656.418 3.41043 658.762C2.98967 660.431 3.35033 661.976 4.16411 663.446C4.39992 663.867 4.67736 664.269 4.84382 664.537V664.533Z" fill="#FCCA65"/>
<path d="M21.0222 654.13C18.9739 651.207 16.0563 651.388 14.5998 654.088C13.1341 656.811 13.6473 660.46 15.8159 662.642C16.6528 663.483 17.6839 663.937 18.8629 663.992C20.9159 664.094 22.3492 662.804 22.5203 660.603C22.7145 658.111 22.0811 655.813 21.0222 654.13Z" fill="#FCCA65"/>
<path d="M31.3841 657.455C30.1866 655.827 29.0167 655.272 27.8423 655.79C27.2782 656.04 26.6956 656.484 26.3766 657.001C25.0912 659.054 24.7536 661.278 25.5859 663.595C26.1778 665.25 27.4077 666.133 28.8734 666.064C30.6535 665.981 32.0499 664.903 32.4707 663.211C33.0163 661.024 32.4198 659.054 31.3841 657.455Z" fill="#FCCA65"/>
<path d="M7.11406 670.364C6.39275 669.467 5.34315 668.685 4.0115 668.325C2.81857 668.001 1.68577 668.098 0.79338 669.05C-0.0666399 669.966 -0.145261 671.09 0.169155 672.246C0.867343 674.793 4.39992 676.12 6.6332 674.687C8.13592 673.725 8.37634 672.088 7.10943 670.368L7.11406 670.364Z" fill="#FCCA65"/>
<path d="M174.063 298.174C179.96 296.999 184.892 298.984 189.396 302.655C193.151 305.714 197.215 308.076 202.247 308.387C211.688 308.978 218.194 300.942 215.362 291.926C214.718 289.891 213.856 287.838 212.696 286.057C209.693 281.432 206.513 276.938 203.344 272.434C198.603 265.708 192.076 263.802 184.287 265.644C177.602 267.223 171.315 269.842 165.442 273.379C159.361 277.051 156.78 282.503 158.02 288.701C159.231 294.792 163.794 298.513 169.986 298.438C171.346 298.419 172.707 298.258 174.073 298.163L174.063 298.174Z" fill="#FCCA65"/>
<path d="M172.317 245.582C172.642 249.6 173.483 253.059 175.706 256.029C179.408 260.987 184.54 261.019 188.066 255.991C191.709 250.78 192.167 244.888 191.078 238.821C190.777 237.176 190.244 235.471 189.413 234.026C186.583 229.083 180.793 228.367 176.691 232.303C173.771 235.1 172.548 238.628 172.334 242.563C172.272 243.701 172.33 244.84 172.328 245.581L172.317 245.582Z" fill="#FCCA65"/>
<path d="M217.505 245.105C217.081 236.727 211.046 233.436 204.781 236.989C198.454 240.58 194.923 248.474 196.507 255.529C197.122 258.253 198.604 260.436 200.883 262.03C204.846 264.802 209.311 264.021 212.396 259.862C215.9 255.151 217.516 249.777 217.505 245.105Z" fill="#FCCA65"/>
<path d="M233.972 264.678C233.619 259.943 231.99 257.378 229.008 256.944C227.578 256.74 225.857 256.893 224.572 257.517C219.453 259.999 215.997 263.999 214.759 269.651C213.866 273.689 215.219 276.982 218.224 278.677C221.864 280.731 225.986 280.344 228.946 277.501C232.762 273.836 234.037 269.172 233.973 264.689L233.972 264.678Z" fill="#FCCA65"/>
<path d="M169.538 260.022C169.23 257.331 168.115 254.469 165.922 252.084C163.953 249.946 161.58 248.729 158.618 249.503C155.762 250.248 154.202 252.394 153.388 255.076C151.583 261.018 156.967 268.069 163.204 268.013C167.405 267.969 169.921 265.016 169.549 260.021L169.538 260.022Z" fill="#FCCA65"/>
<path d="M174.063 624.174C179.96 622.999 184.892 624.984 189.396 628.655C193.151 631.714 197.215 634.076 202.247 634.387C211.688 634.978 218.194 626.942 215.362 617.926C214.718 615.891 213.856 613.838 212.696 612.057C209.693 607.432 206.513 602.938 203.344 598.434C198.603 591.708 192.076 589.802 184.287 591.644C177.602 593.223 171.315 595.842 165.442 599.379C159.361 603.051 156.78 608.503 158.02 614.701C159.231 620.792 163.794 624.513 169.986 624.438C171.346 624.419 172.707 624.258 174.073 624.163L174.063 624.174Z" fill="#FCCA65"/>
<path d="M172.317 571.582C172.642 575.6 173.483 579.059 175.706 582.029C179.408 586.987 184.54 587.019 188.066 581.991C191.709 576.78 192.167 570.888 191.078 564.821C190.777 563.176 190.244 561.471 189.413 560.026C186.583 555.083 180.793 554.367 176.691 558.303C173.771 561.1 172.548 564.628 172.334 568.563C172.272 569.701 172.33 570.84 172.328 571.581L172.317 571.582Z" fill="#FCCA65"/>
<path d="M217.505 571.105C217.081 562.727 211.046 559.436 204.781 562.989C198.454 566.58 194.923 574.474 196.507 581.529C197.122 584.253 198.604 586.436 200.883 588.03C204.846 590.802 209.311 590.021 212.396 585.862C215.9 581.151 217.516 575.777 217.505 571.105Z" fill="#FCCA65"/>
<path d="M233.972 590.678C233.619 585.943 231.99 583.378 229.008 582.944C227.578 582.74 225.857 582.893 224.572 583.517C219.453 585.999 215.997 589.999 214.759 595.651C213.866 599.689 215.219 602.982 218.224 604.677C221.864 606.731 225.986 606.344 228.946 603.501C232.762 599.836 234.037 595.172 233.973 590.689L233.972 590.678Z" fill="#FCCA65"/>
<path d="M169.538 586.022C169.23 583.331 168.115 580.469 165.922 578.084C163.953 575.946 161.58 574.729 158.618 575.503C155.762 576.248 154.202 578.394 153.388 581.076C151.583 587.018 156.967 594.069 163.204 594.013C167.405 593.969 169.921 591.016 169.549 586.021L169.538 586.022Z" fill="#FCCA65"/>
<path d="M174.063 950.174C179.96 948.999 184.892 950.984 189.396 954.655C193.151 957.714 197.215 960.076 202.247 960.387C211.688 960.978 218.194 952.942 215.362 943.926C214.718 941.891 213.856 939.838 212.696 938.057C209.693 933.432 206.513 928.938 203.344 924.434C198.603 917.708 192.076 915.802 184.287 917.644C177.602 919.223 171.315 921.842 165.442 925.379C159.361 929.051 156.78 934.503 158.02 940.701C159.231 946.792 163.794 950.513 169.986 950.438C171.346 950.419 172.707 950.258 174.073 950.163L174.063 950.174Z" fill="#FCCA65"/>
<path d="M172.317 897.582C172.642 901.6 173.483 905.059 175.706 908.029C179.408 912.987 184.54 913.019 188.066 907.991C191.709 902.78 192.167 896.888 191.078 890.821C190.777 889.176 190.244 887.471 189.413 886.026C186.583 881.083 180.793 880.367 176.691 884.303C173.771 887.1 172.548 890.628 172.334 894.563C172.272 895.701 172.33 896.84 172.328 897.581L172.317 897.582Z" fill="#FCCA65"/>
<path d="M217.505 897.105C217.081 888.727 211.046 885.436 204.781 888.989C198.454 892.58 194.923 900.474 196.507 907.529C197.122 910.253 198.604 912.436 200.883 914.03C204.846 916.802 209.311 916.021 212.396 911.862C215.9 907.151 217.516 901.777 217.505 897.105Z" fill="#FCCA65"/>
<path d="M233.972 916.678C233.619 911.943 231.99 909.378 229.008 908.944C227.578 908.74 225.857 908.893 224.572 909.517C219.453 911.999 215.997 915.999 214.759 921.651C213.866 925.689 215.219 928.982 218.224 930.677C221.864 932.731 225.986 932.344 228.946 929.501C232.762 925.836 234.037 921.172 233.973 916.689L233.972 916.678Z" fill="#FCCA65"/>
<path d="M169.538 912.022C169.23 909.331 168.115 906.469 165.922 904.084C163.953 901.946 161.58 900.729 158.618 901.503C155.762 902.248 154.202 904.394 153.388 907.076C151.583 913.018 156.967 920.069 163.204 920.013C167.405 919.969 169.921 917.016 169.549 912.021L169.538 912.022Z" fill="#FCCA65"/>
<path d="M70.1448 219.986C72.4681 216.047 76.0979 214.268 80.4603 213.575C84.0936 213.005 87.4881 211.903 90.2289 209.21C95.3536 204.167 94.0992 196.409 87.5612 193.44C86.0793 192.765 84.4818 192.227 82.8881 191.971C78.7523 191.328 74.5917 190.837 70.4333 190.355C64.2208 189.629 59.8321 192.356 56.9239 197.7C54.4346 202.288 52.7247 207.168 51.7466 212.293C50.7346 217.6 52.523 221.828 56.6504 224.269C60.7143 226.668 65.1289 225.978 68.2272 222.435C68.9058 221.656 69.5037 220.806 70.1448 219.986Z" fill="#FCCA65"/>
<path d="M39.485 194.31C41.9231 196.162 44.3016 197.447 47.1134 197.697C51.7945 198.115 54.4206 195.231 53.3566 190.683C52.2551 185.974 49.1522 182.733 45.1665 180.277C44.0815 179.609 42.8481 179.052 41.6128 178.788C37.378 177.889 34.0375 180.797 34.1836 185.11C34.2832 188.183 35.6626 190.656 37.7833 192.779C38.3953 193.386 39.0696 193.939 39.4873 194.318L39.485 194.31Z" fill="#FCCA65"/>
<path d="M62.1339 168.486C57.1792 164.478 52.2599 166.224 51.0892 171.576C49.914 176.973 52.5911 182.982 57.3879 185.661C59.2388 186.693 61.2318 186.963 63.283 186.478C66.857 185.642 68.6823 182.722 67.8924 178.86C66.9987 174.486 64.78 170.854 62.1339 168.486Z" fill="#FCCA65"/>
<path d="M81.557 169.091C78.7001 166.887 76.4189 166.511 74.6579 167.978C73.8126 168.684 73.0311 169.733 72.7384 170.779C71.5427 174.936 72.0583 178.92 74.6274 182.486C76.4582 185.036 79.0042 185.947 81.486 185.106C84.5007 184.087 86.3672 181.55 86.2563 178.438C86.1161 174.415 84.1225 171.328 81.557 169.091Z" fill="#FCCA65"/>
<path d="M46.2524 203.2C44.5727 202.015 42.3863 201.191 39.9229 201.227C37.7159 201.259 35.8192 201.983 34.7563 204.058C33.7308 206.053 34.149 208.02 35.2578 209.849C37.7106 213.879 44.4277 214.418 47.5555 210.858C49.6614 208.467 49.2683 205.539 46.2468 203.21L46.2524 203.2Z" fill="#FCCA65"/>
<path d="M70.1446 545.986C72.4679 542.047 76.0976 540.268 80.46 539.575C84.0933 539.005 87.4879 537.903 90.2287 535.21C95.3533 530.167 94.099 522.409 87.5609 519.44C86.079 518.765 84.4816 518.227 82.8878 517.971C78.752 517.328 74.5914 516.837 70.4331 516.355C64.2206 515.629 59.8319 518.356 56.9237 523.7C54.4343 528.288 52.7244 533.168 51.7463 538.293C50.7344 543.6 52.5227 547.828 56.6502 550.269C60.714 552.668 65.1287 551.978 68.227 548.435C68.9056 547.656 69.5035 546.806 70.1446 545.986Z" fill="#FCCA65"/>
<path d="M39.4848 520.31C41.9228 522.162 44.3014 523.447 47.1132 523.697C51.7943 524.115 54.4203 521.231 53.3564 516.683C52.2549 511.974 49.1519 508.733 45.1662 506.277C44.0813 505.609 42.8479 505.052 41.6125 504.788C37.3778 503.889 34.0372 506.797 34.1834 511.11C34.2829 514.183 35.6623 516.656 37.7831 518.779C38.395 519.386 39.0693 519.939 39.4871 520.318L39.4848 520.31Z" fill="#FCCA65"/>
<path d="M62.1336 494.486C57.179 490.478 52.2596 492.224 51.0889 497.576C49.9138 502.973 52.5909 508.982 57.3877 511.661C59.2385 512.693 61.2316 512.963 63.2828 512.478C66.8568 511.642 68.682 508.722 67.8921 504.86C66.9985 500.486 64.7798 496.854 62.1336 494.486Z" fill="#FCCA65"/>
<path d="M81.5568 495.091C78.6999 492.887 76.4187 492.511 74.6577 493.978C73.8123 494.684 73.0308 495.733 72.7381 496.779C71.5424 500.936 72.058 504.92 74.6271 508.486C76.458 511.036 79.0039 511.947 81.4858 511.106C84.5005 510.087 86.367 507.55 86.256 504.438C86.1158 500.415 84.1223 497.328 81.5568 495.091Z" fill="#FCCA65"/>
<path d="M46.2522 529.2C44.5724 528.015 42.3861 527.191 39.9227 527.227C37.7156 527.259 35.819 527.983 34.7561 530.058C33.7306 532.053 34.1488 534.02 35.2576 535.849C37.7104 539.879 44.4274 540.418 47.5552 536.858C49.6612 534.467 49.268 531.539 46.2465 529.21L46.2522 529.2Z" fill="#FCCA65"/>
<path d="M70.1446 871.986C72.4679 868.047 76.0976 866.268 80.46 865.575C84.0933 865.005 87.4879 863.903 90.2287 861.21C95.3533 856.167 94.099 848.409 87.5609 845.44C86.079 844.765 84.4816 844.227 82.8878 843.971C78.752 843.328 74.5914 842.837 70.4331 842.355C64.2206 841.629 59.8319 844.356 56.9237 849.7C54.4343 854.288 52.7244 859.168 51.7463 864.293C50.7344 869.6 52.5227 873.828 56.6502 876.269C60.714 878.668 65.1287 877.978 68.227 874.435C68.9056 873.656 69.5035 872.806 70.1446 871.986Z" fill="#FCCA65"/>
<path d="M39.4848 846.31C41.9228 848.162 44.3014 849.447 47.1132 849.697C51.7943 850.115 54.4203 847.231 53.3564 842.683C52.2549 837.974 49.1519 834.733 45.1662 832.277C44.0813 831.609 42.8479 831.052 41.6125 830.788C37.3778 829.889 34.0372 832.797 34.1834 837.11C34.2829 840.183 35.6623 842.656 37.7831 844.779C38.395 845.386 39.0693 845.939 39.4871 846.318L39.4848 846.31Z" fill="#FCCA65"/>
<path d="M62.1336 820.486C57.179 816.478 52.2596 818.224 51.0889 823.576C49.9138 828.973 52.5909 834.982 57.3877 837.661C59.2385 838.693 61.2316 838.963 63.2828 838.478C66.8568 837.642 68.682 834.722 67.8921 830.86C66.9985 826.486 64.7798 822.854 62.1336 820.486Z" fill="#FCCA65"/>
<path d="M81.5568 821.091C78.6999 818.887 76.4187 818.511 74.6577 819.978C73.8123 820.684 73.0308 821.733 72.7381 822.779C71.5424 826.936 72.058 830.92 74.6271 834.486C76.458 837.036 79.0039 837.947 81.4858 837.106C84.5005 836.087 86.367 833.55 86.256 830.438C86.1158 826.415 84.1223 823.328 81.5568 821.091Z" fill="#FCCA65"/>
<path d="M46.2522 855.2C44.5724 854.015 42.3861 853.191 39.9227 853.227C37.7156 853.259 35.819 853.983 34.7561 856.058C33.7306 858.053 34.1488 860.02 35.2576 861.849C37.7104 865.879 44.4274 866.418 47.5552 862.858C49.6612 860.467 49.268 857.539 46.2465 855.21L46.2522 855.2Z" fill="#FCCA65"/>
</svg>
