<svg width="24" height="24" viewBox="0 0 24 24" fill="none" xmlns="http://www.w3.org/2000/svg">
<path d="M21.75 11.9997C21.7451 14.3818 20.8709 16.6802 19.2915 18.4633C17.712 20.2465 15.5359 21.3918 13.1718 21.6841C13.1191 21.6893 13.0658 21.6835 13.0154 21.6671C12.965 21.6507 12.9185 21.6241 12.8789 21.5888C12.8393 21.5536 12.8074 21.5106 12.7852 21.4624C12.763 21.4143 12.751 21.3621 12.75 21.3091V14.2497H15C15.1025 14.2499 15.204 14.2291 15.2982 14.1885C15.3924 14.1479 15.4773 14.0884 15.5476 14.0137C15.6179 13.9391 15.6721 13.8507 15.7069 13.7543C15.7417 13.6578 15.7564 13.5552 15.75 13.4528C15.7334 13.2589 15.6438 13.0785 15.4994 12.948C15.355 12.8175 15.1665 12.7466 14.9718 12.7497H12.75V10.4997C12.75 10.1019 12.908 9.72036 13.1893 9.43906C13.4706 9.15775 13.8521 8.99972 14.25 8.99972H15.75C15.8525 8.99992 15.954 8.97908 16.0482 8.93849C16.1424 8.8979 16.2273 8.83843 16.2976 8.76374C16.3679 8.68906 16.4221 8.60075 16.4569 8.50427C16.4917 8.40779 16.5064 8.3052 16.5 8.20284C16.4834 8.00891 16.3938 7.82849 16.2494 7.69799C16.105 7.56749 15.9165 7.49663 15.7218 7.49972H14.25C13.4543 7.49972 12.6913 7.81579 12.1287 8.3784C11.566 8.94101 11.25 9.70407 11.25 10.4997V12.7497H8.99997C8.89741 12.7495 8.79589 12.7704 8.7017 12.8109C8.60751 12.8515 8.52265 12.911 8.45235 12.9857C8.38206 13.0604 8.32783 13.1487 8.29302 13.2452C8.25821 13.3416 8.24356 13.4442 8.24997 13.5466C8.26656 13.7405 8.3561 13.9209 8.50052 14.0514C8.64494 14.1819 8.83348 14.2528 9.0281 14.2497H11.25V21.3091C11.2502 21.3617 11.2394 21.4137 11.2183 21.4618C11.1972 21.5099 11.1661 21.5531 11.1272 21.5884C11.0883 21.6238 11.0424 21.6506 10.9925 21.6671C10.9426 21.6836 10.8898 21.6894 10.8375 21.6841C5.88747 21.0841 2.06247 16.781 2.25935 11.6341C2.36986 9.09233 3.46952 6.69443 5.3236 4.95225C7.17767 3.21007 9.63929 2.26162 12.183 2.30933C14.7267 2.35705 17.151 3.39716 18.9385 5.20766C20.7259 7.01815 21.7349 9.45559 21.75 11.9997Z" fill="white"/>
</svg>
