<svg width="1440" height="259" viewBox="0 0 1440 259" fill="none" xmlns="http://www.w3.org/2000/svg">
<g clip-path="url(#clip0_100_1094)">
<path d="M1440 219.26H0V258.39H1440V219.26Z" fill="#5189D3"/>
<path d="M1093.57 209.77C1090.35 212.9 1091.32 217.25 1093.39 219.76H1130.96C1122.19 201.38 1108.61 188.66 1093.56 209.77H1093.57Z" fill="#F65214"/>
<path d="M1207.01 209.76C1210.23 212.89 1209.44 218.26 1205.85 219.76H1166.06C1167.32 215.26 1169.24 210.43 1172.71 206.96C1175.94 203.73 1184.22 204.9 1187.31 201.81C1193.14 195.98 1209.79 198.07 1207 209.77L1207.01 209.76Z" fill="#F65214"/>
<path d="M1197.36 173.28C1200.18 174.87 1201.35 178.14 1200.49 182.11C1205.03 183.31 1206.28 191.02 1202.3 193.42C1207.38 194.59 1206.02 201.53 1203.88 204.17C1209.29 207.79 1206.42 214.19 1201.42 214.26C1202.24 216.6 1203.69 219.12 1201.88 219.77H1098.63C1098.63 219.77 1097.37 215.26 1099.49 214.59C1094.49 214.52 1091.62 208.12 1097.03 204.5C1094.89 201.86 1093.53 194.92 1098.61 193.75C1094.64 191.35 1095.88 183.64 1100.42 182.44C1099.56 178.47 1100.73 175.2 1103.55 173.61C1102.03 171.08 1100.36 166.78 1102.27 164.86C1140.07 127.06 1179.57 122.75 1197.36 173.27V173.28Z" fill="#5189D3"/>
<path d="M1183.76 171.18C1188.18 174.03 1186.25 177.65 1182.04 178.49C1183.29 182.73 1182.13 183.65 1177.75 183.65C1177.08 188.88 1173.23 190.57 1169.59 188.38C1170 193.23 1166.39 193.84 1162.72 193.11C1162.94 198.82 1158.44 198.61 1154.56 197.84C1153.27 203.06 1145.3 202.29 1145.44 197.61C1141.57 198.39 1137.06 198.6 1137.28 192.88C1133.61 193.61 1130 193 1130.41 188.15C1126.76 190.34 1122.92 188.65 1122.25 183.42C1117.87 183.42 1116.71 182.5 1117.96 178.26C1113.75 177.42 1111.83 173.8 1116.24 170.95C1093.64 112.54 1219.85 132.75 1183.76 171.18Z" fill="white"/>
<path d="M1117.41 96.2995C1105.65 116.29 1102.45 131.19 1115.95 141.25C1129.77 145.4 1173.68 147.62 1184.74 142.13C1193.4 134.96 1192.33 109.66 1187.73 101.99C1178.08 89.6195 1127.89 88.8195 1117.41 96.2895V96.2995Z" fill="#FE6B73"/>
<path d="M1125.87 110.19C1114.81 113.03 1115.41 126.82 1125.56 126.06C1138.21 125.11 1133.67 108.19 1125.87 110.19Z" fill="white"/>
<path d="M1126.6 113.239C1117.38 114.269 1119.19 124.929 1125.87 124.279C1134.31 123.459 1132.2 112.609 1126.6 113.239Z" fill="black"/>
<path d="M1093.79 94.3301C1087.91 97.1001 1083.75 102.96 1080.45 107.37C1076.76 110.06 1072.43 119.6 1076.66 123C1072.54 126.89 1074.65 133.71 1071.6 137.78C1079.36 142.26 1069.86 150.1 1077.08 155.94C1076.5 154.67 1077.01 152.07 1077.08 151.72C1078.32 158.23 1079.13 162.53 1086.29 162.53C1083.7 159.41 1089.59 166.38 1091.15 168.47C1094.31 170.12 1097.88 173.31 1101.23 173.31C1097.48 172.2 1099.44 171.26 1098.28 169.93C1102.03 174.38 1104.05 175.67 1109.49 174.58C1108.2 173.12 1107.64 172.41 1106.97 171.62C1109.93 174.46 1111.89 171.81 1115 167.01C1122.04 151.31 1111.13 99.1501 1093.79 94.3301Z" fill="#FE6B73"/>
<path d="M1174.59 166.48C1173.05 170.16 1171.43 170.25 1168.88 170.92C1164.79 173.45 1164.33 175.68 1159.37 176.32C1159.6 173.86 1160.64 173.14 1160.64 171.24C1158.86 174.44 1155.07 176.42 1150.38 174.68C1145.99 175.72 1141.91 174.34 1140.13 171.14C1140.13 173.04 1141.16 173.76 1141.4 176.22C1136.45 175.59 1135.99 173.35 1131.89 170.82C1129.34 170.15 1127.72 170.06 1126.18 166.38C1110.61 147.08 1154.79 128.82 1168.44 142.47C1172.42 146.45 1172.68 152.79 1175.73 155.84C1177.73 157.84 1176.17 164.55 1174.58 166.48H1174.59Z" fill="white"/>
<path d="M1174.9 110.29C1185.97 113.13 1185.37 126.92 1175.22 126.16C1162.57 125.21 1167.11 108.29 1174.9 110.29Z" fill="white"/>
<path d="M1174.17 113.34C1183.39 114.37 1181.58 125.03 1174.9 124.38C1166.46 123.56 1168.57 112.71 1174.17 113.34Z" fill="black"/>
<path d="M1206.15 95.3596C1212.03 98.1296 1216.19 102.17 1219.49 106.58C1223.18 109.27 1227.5 118.82 1223.28 122.21C1227.4 126.1 1225.29 132.92 1228.33 136.99C1220.57 141.47 1230.07 149.31 1222.86 155.15C1223.44 153.88 1222.93 151.28 1222.86 150.93C1221.62 157.44 1220.81 161.74 1213.64 161.74C1216.23 158.62 1210.35 165.59 1208.78 167.68C1205.62 169.33 1202.04 172.52 1198.7 172.52C1202.44 171.41 1200.49 170.47 1201.65 169.14C1197.9 173.59 1195.89 174.88 1190.44 173.79C1191.73 172.33 1192.29 171.62 1192.97 170.83C1190.01 173.67 1188.05 171.02 1184.94 166.21C1181.19 164.34 1181.4 161.51 1178.77 158.87C1178.15 158.24 1186.67 128.49 1187.89 126.06C1194.19 113.45 1183.46 92.6396 1201.86 92.6396C1203.29 92.6396 1205.09 96.0196 1206.15 95.3496V95.3596Z" fill="#FE6B73"/>
<path d="M1146.47 120.34C1144 118.48 1140.59 117.3 1139.5 112.72C1134.06 110.14 1136.98 112.05 1133.48 108.91C1130.41 108.81 1125.51 109.51 1122.07 106.37C1122.02 108.24 1119.77 112.15 1116.69 113.36C1117.84 117.33 1116.87 122.48 1115.1 124.79C1118.82 127.59 1120.39 131.89 1117.64 137.17C1116.37 141.62 1113.84 140.67 1112.57 140.03C1110.46 141.62 1104.32 143.53 1103.38 139.08C1098.74 138.91 1096.2 135.72 1098.63 129.87C1093.57 127.84 1090.87 124.72 1092.61 116.86C1089.31 114.38 1085.54 108.65 1091.36 104.08C1087.65 100.64 1090.04 94.1898 1094.91 92.6898C1093.95 87.8898 1095.61 80.1198 1100.57 80.8498C1098.79 76.8198 1100.48 73.0198 1106.43 72.3698C1106.43 66.0698 1114.37 64.1398 1117.68 66.2498C1117.68 61.5398 1121.68 58.8798 1126.56 61.1698C1127.5 56.4198 1134.52 55.3398 1137.38 56.6498C1138.5 53.4698 1146.02 51.3498 1148.76 55.2098C1152.88 51.0098 1159.9 54.3998 1159.85 57.3398C1162.72 54.2498 1170.91 56.5198 1173.05 61.2698C1178.57 59.1798 1181.71 62.0698 1181.93 66.3498C1186.73 64.2398 1191.99 66.7698 1191.99 73.0698C1197.95 73.7198 1199.04 77.2198 1199.04 80.9498C1204.6 81.4098 1205.66 87.3998 1204.7 92.1998C1209.57 93.6998 1211.96 98.9598 1209.14 102.99C1214.96 107.56 1211.49 114.48 1208.19 116.96C1209.93 124.82 1207.22 127.95 1202.17 129.97C1204.6 135.82 1202.05 139.01 1197.41 139.18C1196.47 143.63 1190.33 141.72 1188.22 140.13C1186.95 140.77 1184.42 141.72 1183.15 137.27C1180.4 131.99 1181.96 127.69 1185.69 124.89C1183.92 122.58 1182.95 117.44 1184.1 113.46C1181.01 112.25 1178.77 108.34 1178.72 106.47C1175.28 109.61 1170.38 108.91 1167.31 109.01C1163.8 112.14 1166.73 110.24 1161.29 112.82C1160.19 117.4 1156.79 118.58 1154.31 120.44C1152.46 125.17 1148.94 127.52 1146.49 120.35L1146.47 120.34Z" fill="#5189D3"/>
<path d="M1166.44 157.82C1169.28 160.5 1172.09 165.34 1176.18 167.11C1177.29 169.3 1177.58 174.16 1175.8 177.27C1182.9 171.87 1189.03 165.9 1183.47 158.22C1185.71 159.9 1187.4 159.52 1187.91 163.93C1189.84 159.09 1191.22 156.84 1185.06 148.69C1187.24 148.69 1189.17 152.84 1192.98 154.09C1196.36 150.19 1191.67 140.22 1183.79 139.17C1180.25 133.95 1175.06 128.57 1166.04 125.52C1161.79 119.85 1156.25 122.92 1150.4 119.12C1144.55 122.82 1139.01 119.75 1134.76 125.42C1125.74 128.47 1120.55 133.85 1117.01 139.07C1109.12 140.12 1104.43 150.09 1107.82 153.99C1111.63 152.74 1113.56 148.59 1115.74 148.59C1109.58 156.74 1110.95 158.98 1112.89 163.83C1113.39 159.42 1115.08 159.8 1117.33 158.12C1111.77 165.8 1117.9 171.37 1125 176.77C1122.83 171.69 1124.29 169.58 1124.62 167C1128.7 165.23 1133.89 160.79 1136.72 158.1C1139.97 160.8 1148.78 159.82 1150.8 157.13C1153.6 159.13 1162.82 160.5 1166.46 157.8L1166.44 157.82Z" fill="#FFE9D2"/>
<path d="M1150.39 153.95C1139.53 154.14 1135.56 138.3 1149.76 137.44C1163.96 136.58 1161.26 153.76 1150.39 153.95Z" fill="black"/>
<path d="M1150.66 150.44C1149.86 150.46 1149.22 151.12 1149.23 151.93L1149.25 157.09C1149.22 157.89 1149.85 158.57 1150.65 158.6C1151.46 158.63 1152.13 158 1152.16 157.2V157.08L1152.14 151.92C1152.14 151.12 1151.51 150.46 1150.7 150.44H1150.65H1150.66Z" fill="black"/>
<path d="M1277.59 186.22C1272.4 187.92 1272.56 191.55 1273.52 193.94C1268.05 200.04 1271.02 203.67 1272.98 206.3C1268.84 211.62 1273.33 217.59 1277.37 219.2H1385.06C1389.1 217.59 1391.71 211.73 1387.57 206.41C1389.54 203.79 1392.51 200.15 1387.03 194.05C1389.47 191.28 1387.78 187.65 1384.44 185.96C1362.52 144.93 1302.15 142.25 1277.59 186.22Z" fill="#5189D3"/>
<path d="M1381.39 170.22C1384.78 174.39 1383.82 175.31 1381.35 178.61C1386.38 179.93 1386.58 186.09 1382.74 189.22C1383.12 194.38 1380.66 195.67 1377.37 195.67C1377.78 201.67 1372.04 203.42 1368.49 202.29C1367.96 205.4 1364.42 209.78 1359.64 207.48C1357.55 210.55 1352.06 211.33 1348.61 209.95C1345.94 213.32 1340.53 213.87 1336.79 211.06C1333.23 215.07 1326.69 214.72 1323.77 210.95C1320.03 213.75 1314.62 213.21 1311.95 209.84C1308.5 211.22 1303.01 210.43 1300.92 207.37C1296.15 209.67 1292.6 205.29 1292.08 202.18C1288.52 203.31 1282.78 201.56 1283.2 195.56C1279.91 195.56 1277.45 194.27 1277.83 189.11C1275.1 185.23 1275.67 180.19 1278.85 180.35C1276.37 177.05 1279.49 175.76 1282.89 171.59C1294.19 147.67 1367.67 144.4 1381.41 170.22H1381.39Z" fill="#FFE9D2"/>
<path d="M1292.56 179.91C1294.07 181.92 1298.62 186.79 1303.36 188.23C1304.79 190.13 1309.35 192.6 1311.93 192.6C1314.23 194.49 1317.23 195.51 1320.7 194.76C1323.96 196.06 1325.32 195.77 1328.6 195.77C1329.54 196.95 1333.09 197.4 1334.31 195.89C1337.6 195.89 1338.96 196.18 1342.21 194.88C1345.68 195.63 1348.67 194.61 1350.98 192.73C1353.57 192.73 1358.29 191.25 1359.72 189.36C1363.85 185.79 1366.27 181.93 1367.71 178.34C1355.86 128.85 1305.06 123.09 1292.56 179.92V179.91Z" fill="#FE6B73"/>
<path d="M1301.5 101.07C1298.44 109.65 1288.1 127.08 1302.03 132.6C1306.83 134.5 1358.12 137.66 1364.04 134.7C1375.73 128.85 1374.34 109.63 1362.46 103.69C1354.6 99.7595 1315.26 97.1095 1301.5 101.06V101.07Z" fill="white"/>
<path d="M1302.16 112.98C1299.49 115.42 1300.7 117.65 1301.59 119.88C1299.41 122.82 1300.71 124.99 1303.02 125.92C1302.9 128.19 1304.08 128.51 1305.68 128.98C1303.33 138.67 1286.16 169.9 1270.26 164.43C1267.03 164.43 1264.22 163.34 1264.08 159.26C1260.3 157.96 1258.55 155.14 1259.34 150.35C1256.43 148.17 1252.63 145.75 1255.89 140.58C1252.2 137.81 1251.94 134.45 1253.01 129.37C1250.77 126.38 1251.29 122.66 1252.44 119.02C1250.25 116.1 1250.1 112.02 1253.59 108.38C1251.87 105.51 1251.69 102.47 1254.45 98.8997C1252.54 96.3497 1252.62 91.2897 1257.04 90.2797C1257.04 86.6797 1258.19 84.2697 1261.21 82.5197C1261.35 78.4397 1262.73 76.2897 1265.95 75.9097C1287.92 59.6097 1301.32 89.6797 1305.13 107.22C1302.07 107.4 1301.23 110.65 1302.16 112.99V112.98Z" fill="#FE6B73"/>
<path d="M1396.98 76.0099C1400.2 76.3899 1401.58 78.5399 1401.72 82.6199C1404.73 84.3599 1405.89 86.7799 1405.89 90.3799C1410.3 91.3899 1410.39 96.4599 1408.48 98.9999C1411.24 102.57 1411.06 105.62 1409.34 108.49C1412.83 112.12 1412.68 116.2 1410.49 119.13C1411.64 122.76 1412.16 126.49 1409.91 129.48C1410.99 134.56 1410.73 137.92 1407.04 140.69C1410.3 145.86 1406.5 148.28 1403.59 150.46C1404.38 155.25 1402.63 158.07 1398.85 159.37C1398.71 163.45 1395.9 164.54 1392.8 164.6C1376.27 162.56 1365 138.62 1357.23 128.77C1358.84 128.61 1360.01 128.3 1359.89 126.03C1362.2 125.11 1363.51 122.94 1361.33 119.99C1362.22 117.76 1363.43 115.53 1360.75 113.09C1361.69 110.75 1360.85 107.51 1357.77 107C1364.17 97.8999 1377.77 68.0899 1396.97 76.0099H1396.98Z" fill="#FE6B73"/>
<path d="M1341.75 111.02C1345.03 112.33 1348.07 111.05 1351.19 109.13C1355.37 111.82 1360.48 108.52 1361.35 105.06C1364.25 106.22 1370.36 103.52 1370.35 99.8302C1373.17 98.7002 1377.78 99.6902 1378.05 95.0402C1381.01 93.8802 1383.33 93.2002 1385.45 89.9602C1389.57 89.1402 1392.63 87.7202 1392.42 82.4102C1394.49 81.5802 1398.28 79.4502 1396.49 76.0202C1397.56 70.6802 1397.42 68.5702 1391.84 66.4402C1391.84 62.2702 1388.13 59.3502 1384 60.0502C1384 54.4902 1380.54 53.7702 1375.58 52.2102C1374.79 48.2702 1370.93 46.0402 1366.58 47.5602C1365.76 43.4402 1362.08 42.6502 1357 43.4902C1356.13 39.1202 1351.66 37.4202 1346.26 39.4202C1344.38 36.9102 1340.22 34.9602 1336.39 38.2602C1332.07 33.2602 1327.71 35.7602 1325.88 37.8902C1322.72 34.8502 1318.56 36.7902 1316.68 39.3102C1311.28 37.3102 1306.81 39.0002 1305.94 43.3802C1300.86 42.5302 1297.18 43.3202 1296.36 47.4502C1292.01 45.9302 1288.15 48.1602 1287.36 52.1002C1282.4 53.6602 1278.94 54.3802 1278.94 59.9402C1274.81 59.2402 1271.1 62.1602 1271.1 66.3302C1265.53 68.4702 1265.39 70.5802 1266.45 75.9102C1264.66 79.3402 1268.45 81.4702 1270.52 82.3002C1270.31 87.6102 1273.37 89.0302 1277.49 89.8502C1279.62 93.0902 1281.94 93.7802 1284.89 94.9302C1285.16 99.5802 1289.77 98.5902 1292.59 99.7202C1292.59 103.41 1298.7 106.1 1301.59 104.95C1302.47 108.4 1307.58 111.71 1311.75 109.02C1314.87 110.94 1319 113.67 1322.28 112.36C1323.41 114.34 1328.54 116.85 1331.12 114.81C1334.86 117.55 1340.63 113.02 1341.77 111.03L1341.75 111.02Z" fill="#FFE9D2"/>
<path d="M1314.28 159.56C1313 161.26 1311.47 163.38 1310.21 165.93C1308.01 168.87 1307.46 172.7 1307.03 176.67C1306.49 179.08 1302.6 186.62 1301.4 193.22C1300.4 193.77 1298.95 189.15 1298.15 191.17C1296.68 190.29 1295.42 189.43 1295.28 186.86C1294.2 186.64 1292.75 186.7 1291.26 186.57C1289.57 185.31 1289.38 183.9 1287.81 182.26C1287.02 182.1 1285.33 181.73 1284.36 181.11C1283.42 180.4 1283 179.9 1281.77 178.24C1281.48 178.17 1279.82 177.44 1279.19 177.67C1277.71 176.56 1277.3 176.04 1277.46 173.65C1276.33 173.43 1275.65 173.37 1274.3 173.36C1273.39 172.14 1272.12 171.73 1272 169.34C1271.94 169.36 1270.92 169.53 1269.99 169.91C1268.69 163.4 1270.6 157.69 1274.3 153.24C1276.55 147.63 1280.68 141.98 1286.66 138.29C1292.8 134.16 1297.57 130.79 1305.92 129.09C1311.42 126.89 1320.85 124.11 1331.49 125.12C1342.12 124.22 1351.56 127.01 1357.05 129.2C1365.39 130.9 1370.16 134.27 1376.31 138.4C1382.29 142.08 1386.43 147.73 1388.67 153.35C1392.38 157.8 1394.29 163.51 1392.98 170.02C1392.05 169.64 1391.03 169.46 1390.97 169.44C1390.85 171.84 1389.59 172.24 1388.67 173.46C1387.32 173.46 1386.64 173.52 1385.51 173.75C1385.68 176.15 1385.26 176.67 1383.78 177.77C1383.15 177.55 1381.49 178.28 1381.19 178.35C1379.97 180.01 1379.55 180.52 1378.61 181.22C1377.64 181.84 1375.95 182.21 1375.16 182.37C1373.58 184.02 1373.39 185.42 1371.71 186.68C1370.22 186.81 1368.77 186.75 1367.69 186.97C1367.54 189.54 1367.45 189.74 1365.98 190.62C1364.58 189.91 1363.63 192.44 1361.97 194.22C1359.58 192.64 1360.51 186.93 1359.76 185.06C1358.85 181.12 1358.48 177.47 1357.27 174.47C1356.84 170.5 1354.8 167.5 1352.59 164.56C1351.33 162.01 1350.13 160.23 1348.85 158.52C1338.49 145 1320.38 147.71 1314.3 159.56H1314.28Z" fill="white"/>
<path d="M1342.22 158.97C1342.19 158.17 1341.72 157.45 1341.46 156.7C1340.53 159.54 1339.22 160.62 1337.54 161.88C1336.81 160.83 1336.54 158.43 1336.02 157.71C1335.2 159.1 1333.83 161.03 1332.09 162.2C1330.48 161.16 1328.48 159.24 1327.28 157.72C1326.76 158.44 1326.49 159.7 1326.27 161.76C1324.59 160.5 1322.4 159.42 1321.47 156.58C1321.22 157.34 1320.74 158.06 1320.71 158.86C1318.97 157.82 1318.23 156.41 1318.19 154.44C1316.82 152.8 1312.38 144.81 1314.88 142.31C1318.02 140.36 1347.56 140.16 1348.53 143.51C1350.14 145.52 1348.29 151.81 1345 154.31C1345.33 153.98 1345.63 153.61 1345.47 153.79C1344.95 156.28 1343.96 157.94 1342.22 158.99V158.97Z" fill="#FFE9D2"/>
<path d="M1317.48 118.98C1318.23 113.73 1312.52 110.83 1309.58 111.2C1304.08 111.9 1300.93 116.92 1305.01 122.88C1308.53 128.02 1316.85 123.35 1317.48 118.98Z" fill="white"/>
<path d="M1311.09 112.97C1304.39 112.28 1303.16 121.7 1309.95 122.07C1316.8 122.44 1317.59 113.64 1311.09 112.97Z" fill="black"/>
<path d="M1344.39 119.81C1343.64 114.56 1349.35 111.66 1352.29 112.03C1357.79 112.73 1360.9 118.19 1356.55 123.71C1353.39 127.72 1345.02 124.18 1344.39 119.81Z" fill="white"/>
<path d="M1350.78 113.8C1357.48 113.11 1358.71 122.53 1351.92 122.9C1345.07 123.27 1344.28 114.47 1350.78 113.8Z" fill="black"/>
<path d="M1314.6 160.5C1312.04 157.67 1311.46 156.05 1311.37 154.01C1310.05 156.16 1309.26 157.46 1308.22 159.2C1306.2 156.5 1305.9 154.51 1306.44 149.55C1304.71 151.35 1304.12 153.1 1302.53 154.6C1300.37 146.93 1304.11 138.62 1307.8 134.22C1313.32 127.62 1321.32 122.43 1331.33 122.68C1341.34 122.93 1350.05 128.12 1355.56 134.72C1359.24 139.12 1362.99 147.42 1360.83 155.1C1359.25 153.6 1358.65 151.85 1356.92 150.05C1357.46 155.01 1357.16 157 1355.14 159.69C1354.09 157.95 1353.3 156.65 1351.99 154.5C1351.9 156.54 1351.32 158.16 1348.76 160.99C1347.58 155.27 1345.05 149.86 1340.43 145.81C1338.24 145.76 1333.48 145.31 1331.1 143.87C1329.1 145.19 1325.22 145.76 1322.82 145.72C1318.19 149.63 1315.77 154.91 1314.61 160.49L1314.6 160.5Z" fill="#5189D3"/>
<path d="M1330.94 138.52C1330.39 138.53 1329.96 138.99 1329.97 139.53L1330.01 143.41C1330.01 143.96 1330.47 144.4 1331.02 144.39C1331.57 144.39 1332.01 143.93 1332 143.38L1331.96 139.5C1331.96 138.95 1331.52 138.51 1330.97 138.5H1330.94V138.52Z" fill="#333333"/>
<path d="M1330.89 141.03C1321.96 140.85 1320.47 128.31 1330.96 128.15C1341.46 128 1339.82 141.22 1330.89 141.03Z" fill="black"/>
<path d="M785.92 219.191C789.84 204.041 791.69 197.941 800.07 179.541C807.31 177.731 834.12 212.121 832.45 218.871L785.92 219.201V219.191Z" fill="#FE6B73"/>
<path d="M812.19 211.16C810.67 212.93 809.49 216.4 808.71 218.87H837.36C839.05 209.51 812.08 200.66 812.19 211.16Z" fill="#FE6B73"/>
<path d="M871 179.28C874.95 194.68 879.87 203.25 884.78 218.87H837.64C840.13 205.18 857.73 180.66 871 179.28Z" fill="#FE6B73"/>
<path d="M858.38 213.65C859.83 215.34 861.07 217.06 861.95 218.92L819.89 218.86C819.86 207.51 854.16 202.96 858.38 213.65Z" fill="#FE6B73"/>
<path d="M794.74 194.71C808.46 207.93 818.42 211.12 834.63 218.86C850.84 210.86 860.77 206.55 875.08 194.45C877.06 182.85 873.05 165.78 868.63 159.04C856.5 143.12 811.26 148.72 803.02 156.62C798.37 163.76 792.76 182.35 794.74 194.71Z" fill="#5189D3"/>
<path d="M847.06 164.15C848.97 169.71 847.12 175.76 846.22 180.02C849.52 184.33 850.81 186.94 850.81 192.71C854.18 195.39 853.89 198.61 854.57 201.83C857.19 205.9 857.46 209.63 858.33 213.73C854.76 216.33 851.01 217.09 847.26 218.85H819.9C816.86 217.37 813.85 216.03 810.95 213.92C811.81 209.82 812.09 206.08 814.71 202.02C815.39 198.79 815.09 195.58 818.47 192.9C818.47 187.13 819.77 184.51 823.06 180.2C822.16 175.95 820.32 169.89 822.22 164.33C829.88 161.7 839.42 163.32 847.07 164.13L847.06 164.15Z" fill="white"/>
<path d="M815.61 89.5902C814.63 82.4302 814.92 74.3902 812.55 67.7402C808.54 56.5102 798.89 37.9502 793.01 41.6702C780.85 49.3602 774.16 85.0402 779.99 96.4902C777.47 106.83 785.17 112.46 789.18 111.06C792.31 111.92 794.73 112.74 796.74 113.54C805.73 109.76 810.73 103.73 815.94 98.5102C815.94 95.0602 815.34 93.1302 815.6 89.5802L815.61 89.5902Z" fill="#5189D3"/>
<path d="M806.42 89.5906C806.97 82.7006 807.91 80.2006 809.48 71.5706C810.12 68.0306 798.72 43.9906 795.69 45.1206C785.6 48.8706 781.41 82.4006 783.05 92.2806C784.2 99.2206 790.44 100.611 793.39 104.551C797.87 99.4406 802.34 95.0406 806.41 89.6006L806.42 89.5906Z" fill="#FE6B73"/>
<path d="M880.85 111.06C884.86 112.46 892.56 106.84 890.04 96.4902C895.86 85.0402 889.17 49.3602 877.02 41.6702C871.14 37.9502 861.49 56.5102 857.48 67.7402C855.11 74.3902 855.4 82.4302 854.42 89.5902C854.88 92.7402 854.68 96.8102 855.19 99.3502C860.57 105.37 866.91 110.22 870.22 112.71C873.91 113.88 878.88 114.22 880.85 111.06Z" fill="#5189D3"/>
<path d="M863.61 89.5906C863.06 82.7006 862.12 80.2006 860.55 71.5706C859.91 68.0306 871.31 43.9906 874.34 45.1206C884.43 48.8706 888.62 82.4006 886.98 92.2706C885.83 99.2106 879.59 100.601 876.64 104.541C872.16 99.4306 867.69 95.0306 863.62 89.5906H863.61Z" fill="#FE6B73"/>
<path d="M797.99 169.771C786.34 167.981 787.29 138.391 789.95 131.001C787.64 127.091 788.23 112.15 790.98 108.88C795.01 101.39 804.14 94.9105 814.84 90.3705C818.63 88.5205 828.84 88.3405 835.01 88.0705C841.18 87.8005 851.4 88.5205 855.18 90.3705C865.42 94.0705 876.73 104.15 878.49 109.24C881.67 112.861 882.26 127.811 879.95 131.721C882.6 139.121 883.11 167.601 871.91 169.84C854.48 172.811 811.45 173.23 797.99 169.79V169.771Z" fill="#5189D3"/>
<path d="M817.14 133.68C817.73 120.06 799.02 119.81 801.05 134.06C802.27 142.61 816.87 139.8 817.14 133.68Z" fill="white"/>
<path d="M808.72 126.78C802.28 127.25 803.82 136.03 809.1 135.6C815.89 135.04 814.44 126.36 808.72 126.78Z" fill="black"/>
<path d="M851.88 133.51C851.29 119.9 870 119.64 867.97 133.89C866.75 142.44 852.15 139.63 851.88 133.51Z" fill="white"/>
<path d="M860.31 126.611C866.75 127.081 865.21 135.861 859.93 135.431C853.14 134.871 854.59 126.201 860.31 126.611Z" fill="black"/>
<path d="M831.81 138.59C830.64 127.84 830.26 125.31 828.47 115.63C827.51 110.47 831.25 104.3 834.31 95.1699C836.82 103.66 841.05 109.63 839.74 115.63C837.59 125.46 837.48 133.19 836.82 138.59C834.32 137.45 834.3 139.58 831.81 138.59Z" fill="white"/>
<path d="M834.84 183.41C829.23 183.33 822.89 182.89 818.07 180.26C803.74 149.81 861.26 155.84 850.93 180.29C846.41 183.43 840.45 183.49 834.84 183.41Z" fill="#FE6B73"/>
<path d="M818.43 138.86C810.09 144.05 803.33 152.21 799.36 161.04C796.57 167.25 797.46 177.31 805.81 184.54C816.59 193.87 816.47 168.06 834.07 168.33C851.67 168.6 853.08 194.04 863.86 184.7C872.22 177.46 873.11 167.41 870.32 161.2C866.35 152.36 859.59 144.21 851.25 139.01C842.07 133.04 826.36 133.72 818.43 138.85V138.86Z" fill="white"/>
<path d="M834.15 153.86C824.56 153.83 820.6 138.93 834.43 139.02C848.27 139.11 843.74 153.89 834.15 153.86Z" fill="black"/>
<path d="M834.07 151.56C833.34 151.57 832.75 152.17 832.76 152.91L832.79 166.88C832.76 167.61 833.34 168.23 834.07 168.25C834.8 168.28 835.42 167.71 835.45 166.97V166.86L835.42 152.9C835.43 152.17 834.84 151.57 834.11 151.55H834.07V151.56Z" fill="black"/>
<path d="M1029.07 219.56C1021.63 193.79 1005.22 167.62 995.56 167.98C985.76 168.34 965.71 193.65 956.76 219.56H1029.07Z" fill="white"/>
<path d="M1018.6 99.4399C1022.99 105.16 1021.91 114.7 1022.29 118.45C1030.77 136.25 1018.14 179.33 992.12 191.24C967.03 180.25 952.49 139.77 963.8 118.45C964.18 114.7 963.1 105.16 967.49 99.4399C985.32 79.0899 998.47 80.2999 1018.6 99.4499V99.4399Z" fill="#5189D3"/>
<path d="M973.65 94.6999C970.04 102.98 971.41 111.35 975.92 117.36C974.4 127.69 975.36 135.24 981.21 143.04C975.49 154.45 975.17 187.58 994.15 194.46C1012.12 185.35 1009.37 159.2 1006.14 143.04C1011.28 135.88 1012.94 127.63 1010.67 118.87C1015.54 110.66 1019.3 100.83 1012.18 92.4299C996.28 90.8799 987.25 91.9799 973.65 94.6999Z" fill="white"/>
<path d="M933.8 194.63C933.34 201.59 933.6 210.72 934.74 219.55H982.53C988.94 206.37 995.62 182.35 960.07 140C949.64 156.83 934.9 177.76 933.79 194.63H933.8Z" fill="#FE6B73"/>
<path d="M1048.92 194.11C1050.03 199.83 1050.43 209.52 1049.3 219.56H1001.73C993.99 205.94 994.39 183.68 1023.79 141.48C1034.22 158.31 1045.76 177.8 1048.91 194.11H1048.92Z" fill="#FE6B73"/>
<path d="M976.09 21.6398C971.82 13.4698 965.2 1.1498 957.8 0.409805C948.18 -0.550195 941.14 11.2198 931.63 17.5498C919.13 25.8798 907.53 20.9498 921.52 28.5298C926.73 31.5298 929.71 33.5298 938.07 31.9598C940.79 34.6998 944.22 37.3898 951.93 39.2998C953.36 41.5798 956.02 41.9198 956.6 42.1498C964.03 36.5298 970.66 30.8998 975.8 27.0498C976.39 25.2098 976.19 23.5098 976.09 21.6398Z" fill="#5189D3"/>
<path d="M954.12 35.6598C957.58 33.0098 962.99 25.8498 967.72 23.6498C959.84 21.3698 963.3 11.2398 958.74 5.13976C951.71 2.96976 943.4 15.7098 940.02 19.0598C939.46 22.9298 938.55 20.1798 939.55 22.6898C940.15 28.3698 940.55 28.0498 943.04 31.3698C948.7 33.0098 948.58 35.6598 954.12 35.6598Z" fill="white"/>
<path d="M1034.25 38.9502C1042.33 36.9502 1045.9 34.0902 1048.85 31.4102C1057.3 33.1802 1060.27 31.1902 1065.49 28.1802C1079.47 20.6102 1067.88 25.5302 1055.38 17.2002C1045.87 10.8702 1038.83 -0.899805 1029.21 0.0601954C1021.81 0.800195 1014.37 12.7002 1010.1 20.8802C1008.34 22.9002 1007.92 24.1602 1007.26 25.8302C1011.43 32.2202 1021.1 42.6402 1026.87 43.7902C1030.01 42.5302 1031.55 40.9102 1034.27 38.9502H1034.25Z" fill="#5189D3"/>
<path d="M1032.06 35.3104C1030.25 32.2504 1023.61 25.9204 1018.87 23.7104C1028.82 22.6704 1023.7 10.8804 1028.26 4.79038C1035.29 2.62038 1045.23 16.9904 1048.61 20.3404C1049.17 24.2104 1048.45 19.8304 1047.45 22.3404C1046.85 28.0204 1046.45 27.7004 1043.96 31.0304C1038.3 32.6604 1037.59 35.3104 1032.05 35.3104H1032.06Z" fill="white"/>
<path d="M1007.86 112.78C1005.05 116.31 999.9 119.19 993.72 119.16C987.54 119.13 982.38 116.25 979.58 112.71C981.66 102.95 1005.51 104.82 1007.87 112.77L1007.86 112.78Z" fill="#FE6B73"/>
<path d="M971.75 102.28C967.91 97.2 965.3 90.53 964.14 82.41C958.42 74.43 948.27 56.54 951.88 39.08C954.84 32.41 966.81 24.58 976.34 21.63C983.51 19.4 1003.58 19.4 1010.2 21.22C1020.5 26.33 1032.74 34.21 1035.2 39.94C1038.34 57.03 1026.56 74.37 1022.47 82.9C1021.39 90.42 1019.08 96.7 1015.69 101.62C1007.6 111.88 975.72 109.2 971.75 102.29V102.28Z" fill="#FE6B73"/>
<path d="M993.36 33.1699C990.99 44.9899 991.28 57.9099 987.23 69.4999C984.87 79.1099 1000.37 81.0099 1001.93 70.5199C995.76 60.4099 997.37 44.2299 993.36 33.1699Z" fill="#FFF2F2"/>
<path d="M1013.08 89.1697C1017.03 96.3497 1015.54 105.62 1010.65 110.18C1004.98 115.46 996.9 112.2 993.71 112.17C990.52 112.14 982.44 115.4 976.77 110.12C971.88 105.56 970.96 96.5797 974.34 89.1097C977.51 82.1097 982.42 67.7197 994.18 67.4697C1005.94 67.2197 1009.76 83.1197 1013.08 89.1797V89.1697Z" fill="#FFE9D2"/>
<path d="M992.64 90.7603C1007.38 90.0903 1003.42 105.61 993.27 106.69C983.13 107.77 977.9 91.4403 992.64 90.7603Z" fill="black"/>
<path d="M993.38 105.23C992.69 105.31 992.18 105.9 992.19 106.59V111.24C992.19 111.99 992.79 112.59 993.53 112.59C994.27 112.59 994.88 111.99 994.88 111.25V106.59C994.89 105.85 994.3 105.23 993.56 105.22C993.5 105.22 993.44 105.22 993.38 105.22V105.23Z" fill="black"/>
<path d="M976.9 52.4099C978.81 44.4299 964.74 33.2999 960.03 47.7499C956.08 59.8699 975.33 58.9499 976.9 52.4099Z" fill="white"/>
<path d="M968.85 44.2298C961.1 44.6498 962.41 54.4998 968.56 54.4498C976.5 54.3798 974.9 43.9098 968.85 44.2298Z" fill="black"/>
<path d="M1010.94 52.0603C1009.03 44.0803 1023.09 32.9503 1027.8 47.4003C1031.75 59.5303 1012.5 58.6003 1010.94 52.0603Z" fill="white"/>
<path d="M1018.98 43.8802C1026.73 44.3002 1025.42 54.1502 1019.27 54.1002C1011.33 54.0302 1012.93 43.5602 1018.98 43.8802Z" fill="black"/>
<path d="M351.06 175.2C359.73 187.86 365.39 203.15 364.24 219.63L237.71 219.94C236.26 203.1 241.98 187.46 250.82 174.56L351.06 175.2Z" fill="#FFF5E0"/>
<path d="M255.92 152.26C247.37 158.01 240.68 173.76 250.26 186.92C252.97 204.33 260.49 214.74 269.64 219.65L330.59 219.83C339.85 214.98 347.49 204.55 350.22 186.98C359.8 173.82 353.11 158.06 344.56 152.32L255.94 152.27L255.92 152.26Z" fill="#FE6B73"/>
<path d="M346.52 136.27C348.92 140.6 350.92 151.92 349.53 159.64C348.33 166.32 341.16 177.36 334.45 183.01C327.41 188.94 315.31 186.01 301.23 183.79C287.15 186.09 273.54 189.02 266.5 183.09C259.79 177.44 252.62 166.4 251.42 159.72C250.03 152 252.03 140.68 254.44 136.35C255.31 117.04 265.14 101.85 270.58 98.5001C277.43 97.3801 290.01 94.8901 300.47 94.8501C310.93 94.8101 323.52 97.3001 330.63 98.2701C339.03 104.79 344.68 120.28 346.5 136.27H346.52Z" fill="#FFE9D2"/>
<path d="M315.72 137.55C315.49 133.33 319.79 132.73 320.63 129.99C323.63 126.08 320.91 125.39 319.5 124.32C328.86 129.23 337.68 136.04 337.64 140.57C337.58 146.82 330.36 151.19 326.3 155.31C320.02 159.74 307.92 149.41 315.72 137.55Z" fill="black"/>
<path d="M285.64 124.41C289.67 119.04 286.13 114.87 284.88 108.16C288.34 105.57 293.74 100.99 301.04 97.96C308.34 100.99 313.74 105.57 317.2 108.16C315.96 114.87 312.42 119.04 316.44 124.41C311.89 120.65 307.71 118.39 301.04 121.76C294.37 118.38 290.19 120.64 285.64 124.4V124.41Z" fill="black"/>
<path d="M264.06 94.8806C258.55 96.0706 242.5 112.541 229.4 120.351C222.28 124.591 235.47 141.591 245.67 140.861C259.07 139.911 261.25 105.571 271.96 98.4606C268.2 98.1406 269.13 93.7806 264.06 94.8806Z" fill="#5189D3"/>
<path d="M336.92 94.8001C342.42 95.9901 358.48 112.46 371.58 120.27C378.7 124.51 365.51 141.51 355.31 140.78C341.92 139.83 339.73 105.11 329.02 98.1901C332.78 98.0501 331.85 93.7001 336.92 94.8001Z" fill="#5189D3"/>
<path d="M284.13 137.63C284.36 133.41 280.44 133.19 279.6 130.45C276.6 126.54 279.32 125.84 280.73 124.78C271.37 129.69 262.55 136.5 262.59 141.03C262.65 147.28 269.87 151.65 273.93 155.76C282.85 165.03 288.72 142.61 284.13 137.62V137.63Z" fill="black"/>
<path d="M333.85 142.47C333.44 149.91 320.34 148.05 320.06 142.66C319.25 127.2 334.31 134.25 333.85 142.47Z" fill="white"/>
<path d="M326.67 136.04C332.11 136.47 332.98 144.17 327.05 144.35C320.47 144.55 320.35 135.54 326.67 136.04Z" fill="black"/>
<path d="M266.37 142.92C266.78 150.36 279.88 148.5 280.16 143.11C280.97 127.65 265.91 134.7 266.37 142.92Z" fill="white"/>
<path d="M273.55 136.5C268.11 136.93 267.24 144.63 273.17 144.81C279.74 145.01 279.87 136 273.55 136.5Z" fill="black"/>
<path d="M276.95 159.551C276.39 158.161 275.44 156.691 276.07 154.341C276.23 146.101 287.29 131.351 299.74 131.311C312.18 131.271 323.25 146.011 323.41 154.261C323.1 156.091 322.77 159.101 322.68 159.551H276.96H276.95Z" fill="#FE6B73"/>
<path d="M299.95 191.48C294.92 191.52 284.34 191.14 283.01 187.9C267.89 154.44 329.92 155.08 316.95 187.85C315.56 191.06 304.98 191.43 299.95 191.48Z" fill="black"/>
<path d="M333.09 166.571C335.1 174.651 333.86 185.691 323.86 187.921C317.17 189.411 302.27 180.241 300.11 166.751C297.95 180.331 282.3 189.501 275.6 188.011C265.6 185.791 264.36 174.741 266.37 166.661C268.42 158.411 292.42 141.551 299.73 141.581C307.04 141.471 331.03 158.331 333.09 166.581V166.571Z" fill="#5189D3"/>
<path d="M300.49 154.03C291.33 153.89 287.31 139.66 300.89 140.01C314.47 140.35 309.66 154.17 300.49 154.03Z" fill="black"/>
<path d="M300.04 150.93C299.3 150.93 298.71 151.54 298.71 152.29V167.07C298.71 167.81 299.31 168.41 300.05 168.42C300.79 168.42 301.39 167.82 301.39 167.08V152.3C301.4 151.56 300.81 150.95 300.07 150.94C300.06 150.94 300.05 150.94 300.04 150.94V150.93Z" fill="black"/>
<path d="M411.31 217.13C410.05 217.97 408.86 218.94 407.74 220.03L530.41 219.64C529.11 218.24 527.69 218.42 526.14 217.39C511.57 207.18 499.53 205.66 468.97 203.9C446.46 202.61 431.71 205.22 411.31 217.13Z" fill="#74563C"/>
<path d="M499.12 218.92L435.64 219.45C434.3 200.34 449.93 161.69 468.97 157.88C488.25 167.88 503.22 201.94 499.12 218.92Z" fill="#FFF5E0"/>
<path d="M440.93 150.47C424.36 160.86 413.8 179.39 408.66 199.14C406.95 205.7 405.93 212.64 405.34 219.64L438.07 219.46C445.28 202.53 462.54 188.11 458.92 170.03C458.6 158.97 445.68 156.78 440.93 150.45V150.47Z" fill="#5189D3"/>
<path d="M496.4 151.13C512.97 161.52 523.53 180.05 528.67 199.8C530.29 206.03 531.3 212.61 531.9 219.26L499.13 219.86C491.92 202.93 474.8 188.78 478.41 170.7C478.73 159.64 491.65 157.45 496.4 151.13Z" fill="#5189D3"/>
<path d="M448.24 94.0901C446.81 85.1801 442.84 77.9501 436.95 70.7001C427.37 58.8901 409.95 47.4601 400.67 51.7101C393.81 54.8501 390.35 93.5301 410.93 103.58C411.08 117.36 417.77 119 428.1 120.71C438.81 125.71 454.02 103.89 448.23 94.0901H448.24Z" fill="#FE6B73"/>
<path d="M439.84 104.71C436.7 97.6699 441.72 85.2899 438.29 80.0199C431.64 69.8099 410.79 52.0099 403.57 56.8399C394.78 62.7099 401.35 94.1499 414.97 98.6599C413.96 109.47 421.18 111.26 430.52 113.27C438 116.25 442.48 109.05 439.85 104.7L439.84 104.71Z" fill="#5189D3"/>
<path d="M507.72 120.41C518.06 118.7 524.74 117.06 524.89 103.28C545.47 93.2398 542.01 54.5598 535.15 51.4098C525.87 47.1598 508.46 58.5998 498.88 70.3998C492.99 77.6498 489.02 84.8798 487.59 93.7898C487.46 95.8598 485.7 97.5098 484.46 99.1698C490.62 108.06 496.35 114.36 501.59 121.34C504.08 120.16 505.26 120.34 507.72 120.41Z" fill="#FE6B73"/>
<path d="M495.99 104.41C499.13 97.3701 494.11 84.9901 497.54 79.7201C504.19 69.5101 525.04 51.7101 532.26 56.5401C541.04 62.4101 534.48 93.8401 520.86 98.3601C521.87 109.17 514.65 110.96 505.31 112.97C497.83 115.95 493.35 108.75 495.98 104.4L495.99 104.41Z" fill="#5189D3"/>
<path d="M503.84 169.02C509.78 166.92 514.26 156.08 511.28 141.41C509.58 133.04 514.19 124.87 509.79 119.42C503.15 111.38 498.12 106.79 491.15 95.8205C488.32 91.8505 480.99 89.2305 467.91 88.8705C454.83 88.5205 444.98 92.6505 444.16 95.6105C437.19 106.58 433.18 112.18 426.53 120.22C422.13 125.68 427.54 132.04 425.04 140.2C420.55 154.88 426.03 167.22 431.98 169.32C447.95 183.68 489.48 183 503.83 169.02H503.84Z" fill="#FFE9D2"/>
<path d="M458.81 184.68C457.77 189.26 478.56 189.51 476.48 184.23C487.79 155.65 449.35 155.98 458.81 184.68Z" fill="#160C05"/>
<path d="M456.24 138.98C453.3 133.84 453.11 128.64 451.2 123.86C450.97 120.6 451.89 119.51 453.22 117.31C449.83 117.4 448.25 118.27 446.17 119.83C437.68 119.92 432.01 124.76 428.54 133.44C429.14 142.14 435.12 152.87 446.17 155.61C453.84 156.31 456.75 145.88 456.25 138.98H456.24Z" fill="black"/>
<path d="M481.71 139.97C484.65 134.83 484.84 129.62 486.75 124.85C486.98 121.59 486.06 120.5 484.73 118.3C488.12 118.39 489.7 119.26 491.78 120.82C500.27 120.91 505.94 125.75 509.42 134.43C508.82 143.13 502.84 153.85 491.78 156.6C484.12 157.3 481.2 146.87 481.7 139.97H481.71Z" fill="black"/>
<path d="M448.19 135.49C449.9 122.69 435.93 122.88 432.97 130.69C429.18 140.73 447.13 143.37 448.19 135.49Z" fill="white"/>
<path d="M441.97 128.45C435.95 128.38 436.06 136.57 441.97 136.78C447.1 136.96 447.99 128.53 441.97 128.45Z" fill="black"/>
<path d="M490.16 135.7C488.45 122.9 502.42 123.09 505.38 130.9C509.17 140.94 491.22 143.58 490.16 135.7Z" fill="white"/>
<path d="M496.37 128.65C502.39 128.58 502.28 136.77 496.37 136.97C491.24 137.15 490.35 128.72 496.37 128.65Z" fill="black"/>
<path d="M448.58 145.32C442.52 154.13 438.06 162.38 432.77 167.94C425.85 175.21 443.26 186.78 451.84 186.49C460.33 186.2 464.77 177.89 467.5 170.55C470.23 177.68 474.68 185.99 483.16 186.27C491.73 186.56 509.15 174.99 502.23 167.72C496.94 162.16 492.48 153.91 486.42 145.1C479.72 135.35 474.25 135.15 467.5 135.26C460.75 135.37 455.29 135.58 448.58 145.32Z" fill="#FE6B73"/>
<path d="M466.05 159.98C455.94 159.51 450.26 142.82 467.06 142.63C483.86 142.44 476.16 160.45 466.05 159.98Z" fill="black"/>
<path d="M467.14 157.83C466.53 157.86 466.05 158.37 466.08 158.99L466.36 169.74C466.36 170.35 466.87 170.85 467.48 170.84C468.09 170.83 468.58 170.33 468.58 169.72C468.58 169.71 468.58 169.69 468.58 169.68L468.3 158.93C468.3 158.32 467.79 157.83 467.17 157.83C467.16 157.83 467.15 157.83 467.14 157.83Z" fill="black"/>
<path d="M468.02 99.9297C463.67 110.19 466.17 121.98 468.02 131.22C469.91 122.01 471.05 107.5 468.02 99.9297Z" fill="#FE6B73"/>
<path d="M582.31 219.14L725.58 219.63C726.03 205.93 724.17 190.67 720.56 181.64C696.63 145.6 598.05 154.38 588.56 180.02C584.88 189.59 581.86 205.45 582.31 219.14Z" fill="#FE6B73"/>
<path d="M707.09 199.41C709.29 204.31 707.44 212.99 704.22 219.34L606.33 218.89C603.85 213.23 602.67 204.95 604.68 200.47C631.03 190.83 679.23 190.6 707.1 199.41H707.09Z" fill="white"/>
<path d="M627.85 87.7598C620.61 76.7598 599.06 63.5898 595.72 69.7698C589.74 80.8498 594.36 99.7198 595.72 110.99C597.79 130.96 638.37 103.26 627.85 87.7598Z" fill="#FE6B73"/>
<path d="M623.72 92.3695C619.98 86.8795 605.85 73.3395 601 74.6695C595.73 76.9095 599.03 106.45 602.52 111.23C608.27 110.78 627.04 97.3795 623.71 92.3595L623.72 92.3695Z" fill="white"/>
<path d="M617.97 96.1901C615.8 93.5101 606.04 78.1101 603.31 80.3401C600.58 82.5701 606.54 98.7301 608.06 103.92C611.87 100.69 614.62 98.7701 617.96 96.1901H617.97Z" fill="#FE6B73"/>
<path d="M684.03 88.4697C691.27 77.4697 712.82 64.2997 716.16 70.4797C722.14 81.5597 717.53 100.43 716.16 111.7C714.09 131.67 673.51 103.97 684.03 88.4697Z" fill="#FE6B73"/>
<path d="M688.16 93.0697C691.9 87.5797 706.04 74.0397 710.88 75.3697C716.15 77.6097 712.85 107.15 709.35 111.93C703.6 111.48 684.83 98.0797 688.16 93.0597V93.0697Z" fill="white"/>
<path d="M693.9 96.8994C696.07 94.2194 706.13 79.7394 708.56 81.0494C710.99 82.3594 705.33 99.4394 703.81 104.629C700 101.399 697.25 99.4794 693.91 96.9094L693.9 96.8994Z" fill="#FE6B73"/>
<path d="M729.72 162.88C730.8 144.46 722.47 123.79 715.47 112.46C711.45 103.47 693.91 92.5801 684.29 88.5401C673.41 85.2401 666.06 83.9801 655.51 83.9301C644.97 83.8801 637.62 85.1501 626.74 88.4501C613.25 92.8701 601.86 104.95 595.51 112.72C588.56 123.71 580.23 144.38 581.31 162.8C582.53 183.52 592.07 193.62 596.06 197.4C600.47 206.79 622.13 207.63 654.51 208.87C684.62 207.2 711.58 206.34 716.79 196.94C718.84 194.75 728.5 183.61 729.72 162.89V162.88Z" fill="#FE6B73"/>
<path d="M721.59 158.72C724.17 165.3 720.39 183.23 708.39 201.05C700.62 207.96 673.98 214.68 655.19 209.94C635.94 214.16 610.64 210.79 603.4 200.88C591.4 183.06 587.62 165.13 590.2 158.55C594.03 148.8 606.08 128.77 612.88 136.12C618.81 142.52 623.94 153.69 648.72 148.3C653.48 151.14 659.63 151.56 664.36 148.53C689.82 153.54 699.54 140.24 703.57 136.78C712.24 129.33 717.75 148.98 721.58 158.73L721.59 158.72Z" fill="#FFE9D2"/>
<path d="M635.94 126.909C633.37 131.309 624.57 131.179 621.85 128.229C619.49 125.669 623.9 118.309 627.79 117.999C632.21 117.659 638.53 122.479 635.95 126.909H635.94Z" fill="white"/>
<path d="M676.1 126.88C678.67 131.28 687.47 131.15 690.19 128.2C692.55 125.64 688.14 118.28 684.25 117.97C679.83 117.63 673.51 122.45 676.1 126.88Z" fill="white"/>
<path d="M628.31 131.87C619.06 132.18 619.79 145.21 628.07 144.65C636.57 144.08 635.4 131.63 628.31 131.87Z" fill="black"/>
<path d="M682.8 131.83C692.05 132.15 691.33 145.17 683.04 144.62C674.54 144.05 675.71 131.59 682.8 131.83Z" fill="black"/>
<path d="M671.23 181.34C667.69 169.81 646.79 170.45 644.39 181.56C646.93 192.13 668.32 192.62 671.23 181.34Z" fill="#5189D3"/>
<path d="M657.61 140.35C674.64 140.36 682.05 169.66 674.02 179.09C671.47 187.55 662.48 180.63 657.11 178.3C652.35 180.3 644.86 186.6 641.3 179.07C633.17 169.65 640.58 140.34 657.6 140.36L657.61 140.35Z" fill="white"/>
<path d="M657.1 171.87C646.4 171.41 640.61 155.06 657.1 154.46C673.59 153.85 667.8 172.34 657.1 171.87Z" fill="black"/>
<path d="M657.09 168.129C656.55 168.189 656.15 168.659 656.16 169.209V177.569C656.16 178.159 656.62 178.639 657.2 178.639C657.77 178.639 658.24 178.159 658.24 177.569V169.199C658.25 168.609 657.8 168.129 657.23 168.109C657.18 168.109 657.14 168.109 657.09 168.109V168.129Z" fill="black"/>
<path d="M64.51 196.71C59.63 202.99 53.62 212.59 51.5 219.74C57.5 218.77 64.29 220.45 68.38 219.63C67.76 210.61 66.17 205.01 64.51 196.72V196.71Z" fill="#1A1A1A"/>
<path d="M163.49 197.53C168.38 203.81 175.07 212.37 177.2 219.51C171.2 218.54 165.46 219.52 161.36 218.71C161.98 209.69 161.83 205.83 163.49 197.54V197.53Z" fill="#1A1A1A"/>
<path d="M161.9 170.719C164.62 187.969 165.67 207.719 164.16 219.329L61.97 219.079C61.16 205.389 63.03 187.719 65.75 170.469C76.58 145.119 153.8 144.799 161.9 170.719Z" fill="#FFF5E0"/>
<path d="M172.26 151.73C165.65 184.06 143.44 189.04 113.04 182.74C82.64 189.23 61.25 182.62 54.64 150.29C53.65 148.46 52.56 144.52 54.85 143.37C81.46 145.02 153.41 133.58 172.26 151.74V151.73Z" fill="#FE6B73"/>
<path d="M82.4599 160.17C70.5899 157.79 63.0699 156.21 54.6399 151.52C46.2899 130.64 43.7699 92.5897 60.1299 67.1197C65.0899 58.2197 93.6599 49.4797 112.56 49.7197C131.46 49.9597 160.75 58.2797 165.18 67.5697C181.62 93.0197 180.74 131.07 172.39 151.94C163.96 156.63 152.11 159.45 144.57 160.6C126.97 161.68 91.7099 161.81 82.4699 160.17H82.4599Z" fill="#FE6B73"/>
<path d="M83.35 95.5894C67.91 94.5594 65.66 118.139 83.06 117.109C95.53 116.379 95.24 96.3794 83.35 95.5894Z" fill="white"/>
<path d="M81.5999 100.189C73.3199 101.229 74.2499 113.029 82.6499 112.699C90.8899 112.379 89.7699 99.169 81.5999 100.189Z" fill="black"/>
<path d="M145.05 96.0601C160.49 95.0301 162.75 118.61 145.34 117.58C132.87 116.85 133.16 96.8501 145.05 96.0601Z" fill="white"/>
<path d="M146.8 100.67C155.08 101.71 154.15 113.51 145.75 113.18C137.51 112.86 138.63 99.6504 146.8 100.67Z" fill="black"/>
<path d="M101.01 129.879C108.68 119.109 110.9 86.0293 113.38 70.5293C117.64 86.7793 118 121.609 126.98 129.259L101.01 129.879Z" fill="#FFF5E0"/>
<path d="M64.93 62.1399C55.55 69.9999 11.81 108.54 11.64 128.18C11.49 146.08 32.15 197.09 53.43 187.33C69.98 179.74 73.41 163.53 68.58 137.12C65.25 118.91 51.49 91.0199 63.19 68.4399C63.39 66.4599 64.34 64.2999 64.92 62.1299L64.93 62.1399Z" fill="#5189D3"/>
<path d="M160.36 62.4993C166.23 64.3293 215.82 109.789 215.98 129.429C216.13 147.329 196.71 198.339 175.43 188.579C158.88 180.989 150.75 163.469 160.28 138.369C166.88 120.969 168.59 98.7993 165.05 73.7693C164.32 70.8893 160.36 62.4893 160.36 62.4893V62.4993Z" fill="#5189D3"/>
<path d="M99.4301 187.46C102.97 195.53 124.13 194.43 126.79 188.15C130.44 176.87 121.48 157.7 113.33 159.01C105.18 160.32 96.2301 169.51 99.4301 187.47V187.46Z" fill="black"/>
<path d="M142.22 141.65C144.53 149.65 146.19 166.69 146.7 172.01C147.83 183.82 144.22 192.46 137.35 195.54C126.61 200.35 118.69 175.14 112.87 171.71C107.04 174.61 99.81 200.5 89.07 195.69C82.2 192.62 78.81 183.24 80.41 171.48C81.28 165.09 82.53 149.74 84.21 142.49C86.9 130.81 98.76 123.67 112.65 122.75C126.54 121.83 139.21 131.22 142.22 141.65Z" fill="#F9F9F9"/>
<path d="M113.16 156.74C97.51 156.81 92.04 133.19 112.8 132.19C133.55 131.19 128.81 156.67 113.16 156.74Z" fill="black"/>
<path d="M113.21 147.17C112.36 147.24 111.7 147.94 111.68 148.79L111 170.55C110.97 171.46 111.68 172.23 112.59 172.26C113.5 172.29 114.27 171.58 114.31 170.67L114.99 148.9C115.03 147.99 114.33 147.21 113.42 147.17C113.35 147.17 113.28 147.17 113.21 147.17Z" fill="black"/>
<path d="M1099 203.91C1088.25 203.34 1079.22 220.17 1088.35 222.55C1095.15 224.32 1109.27 224.22 1111.85 221.2C1116.32 215.95 1109.07 204.44 1099 203.91Z" fill="#FE6B73"/>
<path d="M1207.51 202.19C1218.26 201.62 1227.3 218.45 1218.16 220.83C1211.36 222.6 1197.24 222.5 1194.66 219.48C1190.19 214.23 1197.44 202.72 1207.51 202.19Z" fill="#FE6B73"/>
<path d="M1269.1 204.22C1259.54 203.71 1251.52 218.67 1259.64 220.78C1265.68 222.35 1278.23 222.27 1280.52 219.58C1284.5 214.91 1278.05 204.69 1269.11 204.22H1269.1Z" fill="black"/>
<path d="M1395.36 205.87C1404.91 205.36 1412.94 220.32 1404.82 222.43C1398.78 224 1386.23 223.92 1383.94 221.23C1379.96 216.56 1386.41 206.34 1395.35 205.87H1395.36Z" fill="black"/>
<path d="M787.04 203.2C766.17 206.21 784.47 241.19 796.27 237.07C807.13 233.28 801.54 201.11 787.04 203.2Z" fill="black"/>
<path d="M878.36 203.52C899.23 206.53 880.93 241.52 869.13 237.39C858.27 233.6 863.86 201.42 878.36 203.52Z" fill="black"/>
<path d="M950.82 238.96C943.44 245.52 922.53 218.4 924.86 211.74C927.95 202.95 938.69 199.06 945.75 209.21C951.19 217.03 956.66 233.76 950.81 238.96H950.82Z" fill="white"/>
<path d="M1028.89 239.12C1036.27 245.68 1057.18 218.56 1054.84 211.9C1051.75 203.11 1041.02 199.22 1033.95 209.37C1028.51 217.19 1023.04 233.92 1028.89 239.12Z" fill="white"/>
<path d="M243.04 204.01C218.87 210.37 240.46 236.54 250.47 233.45C261.96 229.9 254.5 200.99 243.04 204.01Z" fill="black"/>
<path d="M360.54 206.94C382.97 212.03 362.35 239.47 352.34 236.38C340.85 232.83 347.73 204.03 360.54 206.94Z" fill="black"/>
<path d="M412.29 204.29C424.08 203.02 429.35 223.54 421.79 227.82C413.75 232.37 404.54 221.72 402.64 215.87C400.16 208.24 405.03 205.07 412.29 204.29Z" fill="#FFF5E0"/>
<path d="M524.77 207.44C515.35 207.95 504.74 224.91 515.87 229.78C524.33 233.48 532.52 224.87 534.42 219.02C536.9 211.39 532.06 207.05 524.77 207.45V207.44Z" fill="#FFF5E0"/>
<path d="M580.85 204.54C563.53 200.99 555.4 220.03 567.66 227.42C578.28 233.82 588.18 239.89 594.66 231.61C600.7 223.89 590.28 206.47 580.85 204.54Z" fill="#FFF5E0"/>
<path d="M731.76 203.34C749.08 199.79 756.33 221.61 741.47 226.92C731.19 230.59 719.62 234.29 713.77 226.23C707.93 218.18 722.32 205.27 731.76 203.33V203.34Z" fill="#FFF5E0"/>
<path d="M43.76 200.27C35.26 196.77 13.92 211.22 21.4 222.98C27.97 233.32 47.8 245.58 55.74 238.48C64.38 230.75 55.17 204.96 43.76 200.27Z" fill="#FE6B73"/>
<path d="M182.15 199.85C191.3 195.48 209.32 211.36 201.56 223.3C197.04 230.25 176.63 245.9 165.74 235.11C157.51 226.95 169.58 205.84 182.15 199.85Z" fill="#FE6B73"/>
</g>
<defs>
<clipPath id="clip0_100_1094">
<rect width="1440" height="258.39" fill="white"/>
</clipPath>
</defs>
</svg>
