<svg width="243" height="121" viewBox="0 0 243 121" fill="none" xmlns="http://www.w3.org/2000/svg">
<path d="M24.1653 98.7373C26.959 80.6516 29.7282 63.1296 32.2769 45.5586C32.6935 42.6178 33.8208 41.8336 36.6145 42.1277C40.9276 42.5688 45.2896 42.7894 49.6518 42.9119C52.372 42.9854 53.6464 44.1127 54.0385 46.8574C55.852 59.5027 57.7635 72.1479 59.724 84.7687C59.8955 85.9205 59.3563 87.9055 61.1943 87.93C63.0078 87.93 62.5422 85.9695 62.7873 84.7932C65.9486 68.9131 69.1344 53.0085 72.0751 37.0794C72.6633 33.869 74.0601 32.8643 77.0989 33.2074C79.1819 33.4279 81.314 33.477 83.4216 33.3789C86.3623 33.2809 87.0485 34.4572 86.3133 37.2264C82.7109 50.5824 79.427 64.0119 76.7803 77.5884C74.2561 90.5277 71.9771 103.492 70.8008 116.602C70.5557 119.225 69.551 120.009 67.1004 119.739C63.1794 119.298 59.2339 118.931 55.2883 118.71C52.9848 118.563 52.6172 117.215 52.3966 115.304C50.6812 99.1784 47.9609 83.2003 44.5546 67.3447C44.236 65.8498 44.089 64.2814 42.5941 62.1739C41.3443 67.9819 40.1924 73.1282 39.1631 78.299C36.7125 90.6992 34.2863 103.099 31.9337 115.524C31.5907 117.264 31.125 118.563 29.14 118.71C24.9249 119.029 20.7344 119.347 16.5193 119.715C14.7303 119.862 13.9461 119.151 13.7256 117.313C10.5887 91.1404 5.39346 65.3107 0.467691 39.432C-0.463549 34.4572 -0.439091 34.4572 4.70724 34.1141C14.0442 33.4769 13.8971 33.5014 15.2695 42.9364C17.9161 61.1936 20.7098 79.4018 23.4545 97.6345C23.479 97.8551 23.6997 98.0266 24.1898 98.7128L24.1653 98.7373Z" fill="white"/>
<path d="M179.168 77.6367C179.535 86.4835 179.217 95.2813 177.599 104.006C176.202 111.553 172.796 117.68 164.978 119.592C156.499 121.65 147.849 122.41 141.06 115.009C137.679 111.308 136.061 106.628 135.081 101.849C131.797 85.8463 132.508 69.7947 135.792 53.9391C138.512 40.7792 145.864 35.0692 158.19 34.8487C165.91 34.7261 171.179 38.4021 174.536 45.1168C177.526 51.1209 178.8 57.566 179.143 64.1828C179.364 68.6429 179.192 73.1521 179.192 77.6367H179.168ZM167.944 80.8716C168.017 70.9465 167.797 63.178 164.881 55.8016C163.704 52.8118 161.695 50.5817 158.362 50.1896C154.808 49.773 151.917 51.0473 149.932 54.1597C148.927 55.7281 148.045 57.2965 147.579 59.1344C145.177 68.4223 144.908 77.9308 145.422 87.4147C145.692 92.4876 146.084 97.6829 148.363 102.462C150.079 106.04 152.75 108.049 156.769 107.853C160.714 107.681 163.949 106.187 165.371 102.168C168.042 94.5706 167.674 86.606 167.993 80.8716H167.944Z" fill="white"/>
<path d="M83.0783 80.4785C82.9558 71.3621 83.74 62.3193 85.7005 53.399C89.0333 38.3521 103.982 30.3385 116.726 36.8817C122.73 39.9695 125.303 45.6795 126.871 51.7571C130.179 64.5494 129.763 77.6358 129.003 90.6731C128.709 95.5009 128.292 100.329 127.214 105.132C124.813 115.743 118.858 119.395 109.374 120.62C96.9245 122.237 88.8863 116.478 85.676 104.323C83.6174 96.4811 82.9558 88.5166 83.0783 80.454V80.4785ZM117.583 78.9346C117.387 71.4356 118.196 62.9075 114.348 54.9919C111.726 49.576 105.698 48.3997 101.262 52.4923C98.9338 54.6488 97.6595 57.3445 96.9733 60.3343C94.7188 70.0633 94.8904 79.9639 95.5275 89.8154C95.7726 93.7119 96.3608 97.6574 97.8802 101.382C99.7672 105.99 102.83 108.195 107.046 107.901C111.628 107.558 114.863 104.544 116.039 99.8875C117.706 93.2953 117.485 86.5561 117.608 78.9591L117.583 78.9346Z" fill="white"/>
<path d="M183.947 78.9356C183.677 65.5551 184.143 51.2924 183.113 37.0788C182.868 33.8684 183.554 32.3981 187.328 32.4226C196.69 32.4716 206.051 32.055 215.388 31.6384C218.084 31.5158 219.236 32.2755 219.187 35.1183C219.113 38.2796 219.358 41.4409 219.628 44.6022C219.824 47.0528 218.819 47.837 216.442 47.788C210.511 47.69 204.556 47.8861 198.626 47.788C195.979 47.739 194.876 48.5232 194.999 51.3905C195.219 57.321 195.195 63.2515 195.048 69.2066C194.974 72.0493 195.759 73.2501 198.846 73.0786C203.576 72.809 208.355 73.0296 213.084 72.907C215.339 72.8335 216.344 73.3481 216.417 75.9213C216.712 85.9689 216.81 85.9689 206.909 86.1895C200.717 86.3365 197.613 89.457 197.597 95.5509C197.597 102.021 197.498 108.49 197.646 114.935C197.719 117.778 196.616 118.513 193.921 118.44C183.873 118.195 183.898 118.293 183.947 108.319C183.996 98.8102 183.947 89.3263 183.947 78.9601V78.9356Z" fill="white"/>
<path d="M230.092 63.3981C230.092 54.0612 229.921 44.8713 229.749 35.5099C229.7 32.7407 230.533 31.8584 233.302 31.8584C242.419 31.8584 242.468 31.7604 242.37 40.7052C242.198 57.296 241.855 73.9113 241.831 90.5021C241.831 94.08 240.556 94.9623 237.297 95.0603C230.509 95.2563 230.582 95.4279 230.631 88.8357C230.68 80.4055 230.116 71.8038 230.116 63.3736C229.847 63.3736 230.386 63.3736 230.116 63.3736L230.092 63.3981Z" fill="white"/>
<path d="M236.267 120.938C232.641 121.012 229.92 118.488 229.798 114.959C229.675 111.381 232.64 108.171 236.071 108.146C239.478 108.097 242.566 111.283 242.541 114.812C242.541 118.439 240.017 120.889 236.243 120.963L236.267 120.938Z" fill="white"/>
<path d="M106.359 3.84749L105.624 6.32264L100.453 4.80324L96.3852 18.6003L93.6405 17.7916L97.7087 3.99453L92.5623 2.47514L93.2974 0L106.335 3.84749H106.359Z" fill="white"/>
<path d="M117.804 10.2924L115.231 22.9132L112.511 22.3496L113.001 19.8744C111.8 21.4673 110.036 21.9084 107.977 21.5163C105.085 20.9282 103.713 18.7226 104.325 15.7083L105.918 7.8418L108.639 8.40545L107.193 15.5123C106.801 17.3993 107.683 18.7961 109.521 19.1637C111.727 19.5558 113.344 18.1345 113.785 15.9289L115.059 9.70428L117.78 10.2679L117.804 10.2924Z" fill="white"/>
<path d="M125.327 6.17627L122.852 23.9924L120.083 23.6003L122.558 5.78418L125.327 6.17627Z" fill="white"/>
<path d="M140.349 12.7174L139.345 25.5587L136.576 25.3381L136.772 22.8385C135.767 24.5539 134.076 25.2401 131.968 25.0931C129.028 24.8725 127.41 22.8385 127.655 19.7752L128.292 11.7861L131.062 12.0067L130.498 19.2361C130.351 21.1721 131.38 22.4464 133.243 22.5934C135.473 22.716 136.919 21.0985 137.09 18.8685L137.58 12.5458L140.349 12.7664V12.7174Z" fill="white"/>
<path d="M165.836 17.4259L166.008 25.4395L163.214 25.4885L163.067 18.2346C163.018 16.2741 161.842 15.1223 159.955 15.1468C157.749 15.2694 156.45 16.9848 156.499 19.2394L156.647 25.611L153.853 25.6601L153.681 18.4062C153.632 16.4457 152.48 15.2694 150.593 15.3184C148.363 15.4409 147.04 17.1563 147.089 19.4109L147.236 25.7826L144.467 25.8316L144.173 12.9413L146.942 12.8923L146.991 15.3919C147.849 13.5539 149.491 12.7452 151.623 12.6962C153.926 12.6472 155.519 13.75 156.181 15.7105C156.965 13.5294 158.656 12.5492 161.009 12.5001C163.974 12.4266 165.763 14.2891 165.836 17.3524V17.4259Z" fill="white"/>
<path d="M181.667 9.19102C180.001 9.41157 179.021 10.1713 179.168 11.2986C179.658 14.9745 188.48 11.8132 189.24 17.8908C189.632 20.9051 187.23 23.0861 183.53 23.5762C180.883 23.9193 178.237 23.1596 176.301 21.8118L177.207 19.1896C179.143 20.5375 181.422 21.1256 183.211 20.905C185.172 20.6355 186.25 19.7532 186.103 18.4544C185.613 14.7049 176.815 17.9888 176.031 12.0092C175.663 9.1175 177.893 7.00996 181.545 6.51983C183.726 6.22576 185.956 6.64236 187.647 7.47558L186.789 10.1222C184.829 9.26453 182.942 9.04398 181.667 9.19102Z" fill="white"/>
<path d="M205.733 13.2334C206.443 17.0073 204.557 20.0706 200.954 20.7568C198.92 21.1489 197.254 20.6098 196.053 19.3109L197.352 26.1237L194.607 26.6383L191.323 9.36135L194.068 8.84672L194.484 11.0278C195.122 9.38586 196.494 8.28307 198.479 7.89097C202.081 7.2048 205.022 9.36135 205.757 13.2088L205.733 13.2334ZM202.964 13.6745C202.522 11.3219 200.587 9.87598 198.332 10.3171C196.077 10.7582 194.803 12.7677 195.244 15.1448C195.71 17.5955 197.621 18.9923 199.9 18.5512C202.155 18.1346 203.429 16.1006 202.964 13.6745Z" fill="white"/>
<path d="M217.863 16.7633L217.471 15.244C216.859 16.5673 215.56 17.474 213.771 17.9397C211.075 18.6258 208.968 17.4005 208.404 15.1949C207.816 12.9159 209.164 11.0289 212.153 10.2447L215.927 9.28893L215.829 8.92133C215.437 7.35292 214.187 6.66675 212.202 7.18138C211.002 7.47546 209.874 8.23516 208.845 9.38695L207.252 7.79404C208.722 6.32366 209.85 5.46594 212.227 4.85329C215.437 4.04458 217.667 5.22087 218.403 7.96558L220.51 16.1507L217.863 16.8369V16.7633ZM216.712 12.3767L216.418 11.2249L213.036 12.0826C211.271 12.5238 210.561 13.2099 210.879 14.4107C211.173 15.538 212.276 16.0282 213.771 15.6606C215.707 15.1704 216.908 13.7736 216.712 12.3767Z" fill="white"/>
</svg>
