<svg width="854" height="383" viewBox="0 0 854 383" fill="none" xmlns="http://www.w3.org/2000/svg">
<g clip-path="url(#clip0_100_820)">
<path d="M621.68 72.7494C627.483 72.0018 632.139 74.2679 636.265 78.1303C639.697 81.3464 643.488 83.9161 648.355 84.5625C657.473 85.7851 664.337 78.4262 662.208 69.5021C661.724 67.4775 661.022 65.4372 660.016 63.6306C657.418 58.9505 654.634 54.3639 651.857 49.7851C647.708 42.9401 641.507 40.6507 633.816 41.9122C627.217 42.9947 620.939 45.105 614.995 48.1342C608.833 51.2724 605.963 56.3963 606.743 62.4859C607.507 68.4664 611.68 72.3912 617.702 72.7416C619.028 72.8195 620.361 72.7494 621.687 72.7494H621.68Z" fill="#FE6B73"/>
<path d="M623.559 21.6501C623.606 25.567 624.183 28.97 626.133 32.007C629.394 37.0686 634.378 37.4502 638.137 32.8013C642.029 27.9966 642.88 22.3198 642.224 16.3626C642.045 14.7429 641.639 13.0608 640.93 11.6046C638.512 6.62087 632.95 5.53845 628.692 9.06603C625.665 11.5813 624.246 14.9142 623.77 18.7143C623.63 19.8123 623.606 20.9181 623.559 21.6423V21.6501Z" fill="#FE6B73"/>
<path d="M667.465 24.2587C667.621 16.1133 661.989 12.5079 655.656 15.5293C649.268 18.5819 645.297 25.9874 646.358 32.9336C646.772 35.6124 648.066 37.8317 650.165 39.5371C653.823 42.4962 658.206 42.0368 661.49 38.2211C665.21 33.8914 667.145 28.7986 667.457 24.2587H667.465Z" fill="#FE6B73"/>
<path d="M682.121 44.3417C682.105 39.724 680.693 37.1308 677.823 36.5001C676.45 36.1964 674.765 36.2431 673.478 36.7571C668.338 38.8129 664.711 42.4573 663.12 47.8537C661.981 51.7084 663.066 54.9868 665.866 56.8323C669.266 59.075 673.291 58.9738 676.357 56.4196C680.311 53.1257 681.863 48.687 682.113 44.3417H682.121Z" fill="#FE6B73"/>
<path d="M619.878 35.4566C619.761 32.8324 618.872 29.9745 616.906 27.5137C615.143 25.31 612.92 23.9628 609.988 24.5157C607.156 25.0452 605.503 27.0154 604.528 29.5618C602.375 35.1997 607.117 42.4028 613.17 42.7688C617.249 43.018 619.893 40.3236 619.878 35.4488V35.4566Z" fill="#FE6B73"/>
<path d="M345.401 241.694C346.563 235.971 350.213 232.295 355.205 229.64C359.362 227.428 363.013 224.679 365.197 220.287C369.292 212.056 364.526 203.202 355.377 202.346C353.302 202.151 351.141 202.159 349.106 202.525C343.825 203.467 338.591 204.628 333.35 205.772C325.527 207.485 321.354 212.617 320.075 220.287C318.975 226.868 318.951 233.487 319.911 240.082C320.909 246.912 324.832 251.28 330.862 252.503C336.782 253.71 341.844 251.031 344.114 245.448C344.613 244.217 344.979 242.94 345.408 241.687L345.401 241.694Z" fill="#77D0D1"/>
<path d="M297.549 223.464C301.277 224.687 304.693 225.24 308.203 224.368C314.045 222.919 316.019 218.333 312.829 213.279C309.521 208.046 304.413 205.422 298.563 204.121C296.972 203.771 295.248 203.615 293.633 203.81C288.134 204.487 285.303 209.401 287.284 214.556C288.696 218.231 291.395 220.645 294.85 222.32C295.848 222.803 296.886 223.184 297.557 223.464H297.549Z" fill="#77D0D1"/>
<path d="M314.17 182.8C306.495 180.028 301.261 184.186 302.096 191.148C302.931 198.164 308.679 204.308 315.605 205.538C318.281 206.013 320.8 205.507 323.093 204.067C327.079 201.567 328.054 197.268 325.495 192.931C322.594 188.017 318.382 184.544 314.178 182.8H314.17Z" fill="#77D0D1"/>
<path d="M337.936 175.418C333.553 173.946 330.636 174.444 329.123 176.952C328.397 178.159 327.89 179.755 327.968 181.141C328.265 186.662 330.55 191.265 335.152 194.504C338.436 196.817 341.899 196.856 344.551 194.8C347.772 192.308 348.973 188.469 347.538 184.755C345.682 179.958 341.984 177.061 337.936 175.426V175.418Z" fill="#77D0D1"/>
<path d="M309.459 231.384C306.932 230.652 303.937 230.574 300.973 231.641C298.313 232.599 296.324 234.265 295.903 237.217C295.497 240.059 296.831 242.263 298.929 243.999C303.578 247.846 311.939 245.689 314.24 240.082C315.785 236.306 314.084 232.942 309.459 231.384Z" fill="#77D0D1"/>
<path d="M261.747 302.138C265.452 300.542 268.962 301.165 272.433 302.94C275.319 304.42 278.314 305.401 281.66 304.911C287.931 303.992 291.083 297.816 287.97 292.311C287.268 291.065 286.41 289.85 285.404 288.838C282.791 286.229 280.077 283.722 277.37 281.214C273.322 277.469 268.783 277.126 263.923 279.423C259.758 281.386 255.999 283.979 252.645 287.109C249.166 290.356 248.238 294.289 249.907 298.175C251.553 301.99 255.063 303.797 259.111 302.886C260 302.683 260.874 302.387 261.755 302.138H261.747Z" fill="#5189D3"/>
<path d="M253.277 267.945C254.049 270.53 255.079 272.68 256.951 274.315C260.071 277.048 263.44 276.355 265.047 272.571C266.716 268.646 266.193 264.729 264.626 260.913C264.197 259.877 263.612 258.842 262.863 258.009C260.312 255.166 256.42 255.501 254.275 258.647C252.746 260.89 252.442 263.358 252.848 265.967C252.965 266.715 253.16 267.454 253.261 267.945H253.277Z" fill="#5189D3"/>
<path d="M282.846 261.349C281.403 255.922 276.988 254.606 273.369 257.806C269.719 261.038 268.502 266.699 270.522 271.091C271.302 272.789 272.581 274.011 274.297 274.743C277.277 276.012 280.1 274.876 281.551 271.722C283.197 268.147 283.501 264.41 282.846 261.349Z" fill="#5189D3"/>
<path d="M296.371 271.87C295.482 268.817 294.054 267.361 292.034 267.493C291.067 267.556 289.959 267.898 289.211 268.482C286.2 270.819 284.492 273.918 284.461 277.788C284.437 280.552 285.779 282.523 287.986 283.216C290.661 284.057 293.313 283.223 294.858 280.957C296.847 278.022 297.034 274.798 296.371 271.87Z" fill="#5189D3"/>
<path d="M253.464 277.788C252.887 276.075 251.756 274.346 249.985 273.092C248.394 271.963 246.67 271.496 244.83 272.423C243.059 273.31 242.334 274.93 242.178 276.799C241.827 280.942 246.335 284.812 250.414 283.909C253.16 283.301 254.4 281.012 253.464 277.788Z" fill="#5189D3"/>
<path d="M184.911 312.394C186.136 308.563 188.912 306.312 192.524 304.872C195.534 303.665 198.241 302.053 200.066 299.21C203.482 293.876 200.885 287.46 194.684 286.19C193.28 285.902 191.798 285.746 190.371 285.848C186.689 286.105 183.008 286.502 179.342 286.899C173.859 287.491 170.614 290.691 169.163 295.854C167.915 300.277 167.408 304.809 167.572 309.396C167.744 314.146 170.107 317.432 174.139 318.717C178.102 319.986 181.768 318.522 183.741 314.878C184.178 314.076 184.521 313.227 184.911 312.402V312.394Z" fill="#FE6B73"/>
<path d="M153.509 296.345C155.974 297.458 158.267 298.089 160.739 297.754C164.85 297.194 166.542 294.203 164.733 290.504C162.861 286.673 159.561 284.5 155.646 283.169C154.585 282.811 153.415 282.569 152.292 282.593C148.47 282.647 146.169 285.801 147.144 289.484C147.838 292.101 149.507 293.962 151.746 295.364C152.393 295.768 153.08 296.103 153.517 296.345H153.509Z" fill="#FE6B73"/>
<path d="M167.923 269.736C162.877 267.268 158.984 269.728 159.031 274.556C159.078 279.423 162.557 284.057 167.213 285.419C169.007 285.941 170.77 285.785 172.447 284.968C175.364 283.55 176.355 280.685 174.919 277.523C173.297 273.941 170.669 271.255 167.923 269.744V269.736Z" fill="#FE6B73"/>
<path d="M184.747 266.45C181.853 265.118 179.826 265.235 178.593 266.847C178.008 267.618 177.54 268.677 177.486 269.627C177.275 273.427 178.5 276.752 181.409 279.314C183.484 281.144 185.855 281.424 187.828 280.217C190.215 278.753 191.33 276.215 190.621 273.559C189.708 270.133 187.391 267.875 184.747 266.458V266.45Z" fill="#FE6B73"/>
<path d="M161.067 302.66C159.39 301.967 157.346 301.694 155.233 302.201C153.337 302.66 151.855 303.649 151.34 305.643C150.849 307.558 151.598 309.162 152.908 310.517C155.81 313.5 161.691 312.643 163.688 308.975C165.029 306.507 164.117 304.07 161.067 302.668V302.66Z" fill="#FE6B73"/>
<path d="M115.952 341.183C116.693 338.862 118.378 337.5 120.57 336.627C122.395 335.895 124.033 334.922 125.141 333.193C127.215 329.962 125.64 326.076 121.88 325.305C121.03 325.134 120.133 325.04 119.267 325.095C117.037 325.25 114.806 325.492 112.583 325.733C109.26 326.091 107.295 328.03 106.413 331.161C105.657 333.84 105.352 336.588 105.446 339.368C105.547 342.25 106.983 344.235 109.424 345.014C111.826 345.777 114.049 344.897 115.243 342.686C115.508 342.203 115.718 341.681 115.952 341.183Z" fill="#5189D3"/>
<path d="M96.9209 331.457C98.4106 332.134 99.8068 332.516 101.304 332.313C103.793 331.979 104.822 330.164 103.722 327.921C102.591 325.601 100.587 324.285 98.2156 323.475C97.5682 323.257 96.8585 323.117 96.1877 323.125C93.8711 323.156 92.4827 325.071 93.0677 327.299C93.4889 328.887 94.4951 330.008 95.8523 330.857C96.2423 331.099 96.6557 331.309 96.9209 331.457Z" fill="#5189D3"/>
<path d="M105.657 315.337C102.599 313.842 100.236 315.337 100.267 318.258C100.298 321.209 102.404 324.012 105.22 324.838C106.312 325.157 107.38 325.056 108.394 324.565C110.157 323.709 110.766 321.972 109.892 320.056C108.909 317.884 107.318 316.256 105.657 315.337Z" fill="#5189D3"/>
<path d="M115.851 313.344C114.096 312.534 112.864 312.612 112.123 313.585C111.764 314.053 111.483 314.691 111.452 315.267C111.327 317.572 112.068 319.581 113.831 321.139C115.087 322.245 116.522 322.416 117.715 321.684C119.166 320.796 119.837 319.254 119.408 317.65C118.854 315.571 117.45 314.208 115.843 313.344H115.851Z" fill="#5189D3"/>
<path d="M101.499 335.28C100.485 334.86 99.2453 334.696 97.9661 335C96.8195 335.28 95.9147 335.88 95.6105 337.087C95.3141 338.247 95.7665 339.221 96.5621 340.038C98.3171 341.845 101.882 341.323 103.091 339.104C103.902 337.609 103.348 336.129 101.499 335.28Z" fill="#5189D3"/>
<path d="M46.2998 340.965C48.7411 341.051 50.5039 342.305 51.9391 344.174C53.1325 345.731 54.5209 347.047 56.4786 347.647C60.1523 348.768 63.4829 346.206 63.2099 342.383C63.1475 341.518 62.9993 340.63 62.7029 339.813C61.9541 337.71 61.1195 335.631 60.285 333.56C59.0448 330.46 56.6424 329.098 53.3899 329.09C50.5975 329.09 47.8676 329.526 45.2156 330.375C42.4623 331.255 40.9335 333.163 40.8399 335.724C40.7463 338.24 42.1971 340.14 44.654 340.693C45.1922 340.817 45.746 340.88 46.292 340.965H46.2998Z" fill="#77D0D1"/>
<path d="M50.5508 320.041C50.3012 321.661 50.309 323.101 50.9096 324.48C51.908 326.785 53.936 327.283 55.8001 325.624C57.7345 323.911 58.4677 321.63 58.6003 319.13C58.6393 318.452 58.5847 317.728 58.3897 317.082C57.7345 314.863 55.5115 314.037 53.5226 315.205C52.103 316.038 51.2918 317.308 50.8394 318.842C50.7068 319.286 50.621 319.737 50.5508 320.033V320.041Z" fill="#77D0D1"/>
<path d="M68.4593 324.09C69.0755 320.742 67.0007 318.881 64.1927 319.698C61.3536 320.524 59.2164 323.304 59.1774 326.24C59.1618 327.369 59.544 328.373 60.2928 329.214C61.5954 330.678 63.4362 330.787 65.0507 329.44C66.8759 327.906 68.0225 325.944 68.4593 324.098V324.09Z" fill="#77D0D1"/>
<path d="M73.1313 333.365C73.4355 331.465 73.0377 330.297 71.8989 329.845C71.3529 329.627 70.6587 329.534 70.0893 329.658C67.8352 330.156 66.088 331.41 65.0662 333.528C64.333 335.039 64.5592 336.464 65.5888 337.414C66.8368 338.567 68.5059 338.8 69.9411 337.951C71.7975 336.861 72.7335 335.14 73.1313 333.365Z" fill="#77D0D1"/>
<path d="M48.1016 325.476C48.2342 324.386 48.0626 323.148 47.4152 322.003C46.8381 320.975 46.0113 320.275 44.7711 320.298C43.5699 320.329 42.7509 321.022 42.1815 322.003C40.9102 324.176 42.3765 327.47 44.8413 328.031C46.5026 328.412 47.774 327.478 48.1016 325.469V325.476Z" fill="#77D0D1"/>
<path d="M22.3076 379.122C23.1578 376.832 24.8972 375.555 27.1279 374.784C28.9843 374.138 30.6691 373.243 31.8547 371.568C34.0776 368.438 32.6814 364.482 28.9609 363.54C28.1185 363.33 27.2293 363.189 26.3635 363.213C24.125 363.259 21.8864 363.4 19.6557 363.54C16.3173 363.742 14.266 365.588 13.2442 368.672C12.3628 371.319 11.926 374.045 11.8948 376.825C11.8636 379.706 13.2052 381.762 15.6076 382.649C17.9709 383.529 20.2329 382.751 21.5277 380.594C21.8163 380.119 22.0503 379.612 22.3076 379.122Z" fill="#FCCA65"/>
<path d="M3.75179 368.516C5.21036 369.256 6.58313 369.707 8.0885 369.575C10.5923 369.357 11.6998 367.589 10.7092 365.3C9.68746 362.933 7.74532 361.515 5.41316 360.604C4.78137 360.355 4.07937 360.184 3.40079 360.16C1.08423 360.082 -0.397738 361.928 0.0858517 364.186C0.429046 365.79 1.38846 366.959 2.70664 367.877C3.08883 368.142 3.49439 368.368 3.75179 368.524V368.516Z" fill="#FCCA65"/>
<path d="M13.2287 352.817C10.2413 351.182 7.81556 352.56 7.70637 355.48C7.59717 358.432 9.57054 361.328 12.3473 362.286C13.4159 362.652 14.4923 362.605 15.5296 362.162C17.3314 361.383 18.0178 359.677 17.2378 357.723C16.3564 355.511 14.8432 353.806 13.2209 352.817H13.2287Z" fill="#FCCA65"/>
<path d="M23.5088 351.306C21.7929 350.419 20.5605 350.434 19.7727 351.369C19.3983 351.82 19.0863 352.443 19.0239 353.019C18.7899 355.317 19.4373 357.357 21.1221 358.992C22.3311 360.16 23.7506 360.394 24.983 359.716C26.4728 358.899 27.2137 357.388 26.8628 355.768C26.4104 353.666 25.0688 352.233 23.5088 351.298V351.306Z" fill="#FCCA65"/>
<path d="M8.15091 372.55C7.15253 372.082 5.92795 371.856 4.63317 372.106C3.47099 372.331 2.5428 372.892 2.18401 374.076C1.83302 375.221 2.23864 376.217 2.99522 377.066C4.66439 378.951 8.25231 378.6 9.56268 376.435C10.4441 374.979 9.96048 373.476 8.15091 372.542V372.55Z" fill="#FCCA65"/>
<path d="M233.824 239.771C235.134 235.963 237.965 233.79 241.608 232.428C244.65 231.299 247.388 229.749 249.283 226.945C252.824 221.697 250.375 215.218 244.205 213.809C242.809 213.489 241.327 213.302 239.908 213.365C236.218 213.536 232.537 213.848 228.855 214.159C223.356 214.626 220.041 217.749 218.474 222.873C217.124 227.265 216.508 231.789 216.571 236.376C216.633 241.134 218.918 244.467 222.92 245.845C226.851 247.2 230.556 245.829 232.607 242.224C233.059 241.43 233.426 240.589 233.832 239.771H233.824Z" fill="#FCCA65"/>
<path d="M202.796 222.99C205.237 224.158 207.515 224.843 209.987 224.571C214.114 224.111 215.869 221.152 214.153 217.414C212.374 213.544 209.122 211.286 205.237 209.868C204.184 209.487 203.014 209.222 201.899 209.214C198.077 209.183 195.706 212.282 196.587 215.981C197.219 218.613 198.841 220.514 201.049 221.962C201.681 222.382 202.359 222.733 202.796 222.99Z" fill="#FCCA65"/>
<path d="M217.826 196.724C212.834 194.138 208.888 196.506 208.825 201.334C208.755 206.201 212.132 210.912 216.75 212.384C218.536 212.952 220.299 212.827 221.991 212.057C224.94 210.709 226.001 207.867 224.636 204.674C223.099 201.053 220.533 198.304 217.826 196.731V196.724Z" fill="#FCCA65"/>
<path d="M234.729 193.835C231.866 192.433 229.83 192.511 228.567 194.084C227.958 194.839 227.475 195.883 227.397 196.84C227.1 200.641 228.247 203.989 231.094 206.613C233.13 208.49 235.485 208.833 237.49 207.665C239.915 206.255 241.085 203.74 240.438 201.069C239.611 197.627 237.342 195.314 234.729 193.827V193.835Z" fill="#FCCA65"/>
<path d="M210.206 229.476C208.544 228.744 206.509 228.425 204.387 228.884C202.484 229.297 200.971 230.255 200.417 232.233C199.879 234.141 200.589 235.761 201.868 237.139C204.699 240.191 210.596 239.467 212.678 235.846C214.075 233.409 213.217 230.956 210.198 229.476H210.206Z" fill="#FCCA65"/>
<path d="M436.644 139.365C442.59 133.738 449.729 132.458 457.588 133.428C464.128 134.236 470.532 134.016 476.573 130.738C487.893 124.596 489.569 110.63 479.772 102.297C477.555 100.409 475.07 98.6831 472.439 97.4663C465.631 94.3144 458.696 91.4299 451.768 88.5349C441.419 84.2186 432.515 86.7412 424.861 94.5032C418.3 101.164 412.942 108.721 408.729 117.05C404.364 125.677 405.351 133.832 411.266 140.073C417.076 146.204 425.035 147.2 432.126 142.632C433.686 141.625 435.136 140.456 436.639 139.36L436.644 139.365Z" fill="#FCCA65"/>
<path d="M396.51 80.0544C399.804 84.4494 403.266 87.8216 407.988 89.6415C415.852 92.6728 421.804 89.0016 422.214 80.6523C422.639 72.0093 418.904 64.8977 413.241 58.7038C411.702 57.0203 409.848 55.4575 407.846 54.3928C400.996 50.7531 393.805 54.1096 391.919 61.6093C390.574 66.9483 391.725 71.8834 394.33 76.5773C395.081 77.9304 395.969 79.2048 396.51 80.0597V80.0544Z" fill="#FCCA65"/>
<path d="M448.301 46.8091C441.745 37.4685 432.394 38.0402 427.74 46.6727C423.044 55.3839 424.683 67.0373 431.627 74.0126C434.306 76.7083 437.605 78.1453 441.387 78.3341C447.964 78.6645 452.55 74.5318 453.102 67.5041C453.732 59.5429 451.699 52.1847 448.301 46.8038V46.8091Z" fill="#FCCA65"/>
<path d="M481.479 57.4345C477.639 52.2319 473.904 50.4593 470.143 52.1113C468.341 52.9032 466.476 54.335 465.447 55.9765C461.339 62.5375 460.257 69.6491 462.915 77.0544C464.816 82.3462 468.751 85.1677 473.447 84.9422C479.142 84.6695 483.612 81.2395 484.962 75.8272C486.706 68.8414 484.794 62.548 481.484 57.4293L481.479 57.4345Z" fill="#FCCA65"/>
<path d="M403.77 98.6883C401.464 95.8195 398.097 93.3231 393.842 92.1641C390.023 91.1256 386.398 91.4403 383.54 94.4821C380.782 97.4139 380.536 101.006 381.544 104.688C383.771 112.833 395.087 117.07 402.241 112.492C407.053 109.413 407.82 104.179 403.77 98.6883Z" fill="#FCCA65"/>
<path d="M745.591 254.243C752.853 255.396 757.665 259.772 761.269 265.877C764.272 270.962 767.922 275.393 773.561 277.9C784.122 282.588 794.995 276.148 795.588 264.631C795.721 262.022 795.588 259.32 795.026 256.782C793.552 250.225 791.821 243.715 790.097 237.22C787.523 227.51 780.854 222.557 771.143 221.366C762.813 220.338 754.491 220.665 746.254 222.222C737.721 223.834 732.441 228.989 731.224 236.605C730.03 244.089 733.665 250.287 740.794 252.826C742.362 253.387 743.992 253.776 745.591 254.243Z" fill="#5189D3"/>
<path d="M765.949 193.324C764.615 198.067 764.1 202.373 765.387 206.718C767.524 213.96 773.39 216.187 779.567 211.912C785.963 207.489 788.99 200.948 790.315 193.542C790.674 191.525 790.776 189.36 790.44 187.351C789.294 180.491 782.968 177.22 776.588 179.977C772.048 181.939 769.154 185.451 767.236 189.867C766.682 191.136 766.261 192.468 765.941 193.316L765.949 193.324Z" fill="#5189D3"/>
<path d="M817.943 211.959C821.016 202.194 815.501 195.863 806.804 197.272C798.03 198.697 790.62 206.228 789.442 214.972C788.99 218.352 789.762 221.483 791.696 224.27C795.058 229.122 800.502 230.126 805.814 226.677C811.835 222.775 815.969 217.309 817.943 211.951V211.959Z" fill="#5189D3"/>
<path d="M828.496 241.34C830.11 235.772 829.33 232.143 826.093 230.375C824.541 229.527 822.505 228.981 820.766 229.153C813.84 229.815 808.185 232.93 804.355 238.871C801.617 243.115 801.758 247.453 804.488 250.669C807.795 254.57 812.685 255.871 817.28 253.869C823.215 251.292 826.655 246.495 828.496 241.347V241.34Z" fill="#5189D3"/>
<path d="M756.628 208.657C757.416 205.449 757.353 201.695 755.856 198.035C754.514 194.757 752.307 192.351 748.579 191.985C744.983 191.627 742.292 193.418 740.209 196.143C735.623 202.178 738.782 212.535 745.958 215.113C750.786 216.849 754.928 214.536 756.628 208.657Z" fill="#5189D3"/>
</g>
<defs>
<clipPath id="clip0_100_820">
<rect width="854" height="383" fill="white" transform="matrix(-1 0 0 1 854 0)"/>
</clipPath>
</defs>
</svg>
