<svg width="82" height="81" viewBox="0 0 82 81" fill="none" xmlns="http://www.w3.org/2000/svg">
<path d="M59.5389 68.0909C53.949 66.9766 49.2745 68.8584 45.0043 72.3379C41.4458 75.2374 37.5929 77.4763 32.8231 77.7719C23.8741 78.3322 17.7075 70.7145 20.3917 62.1683C21.0018 60.2392 21.8195 58.2935 22.9186 56.6051C25.7656 52.2207 28.7792 47.9615 31.7833 43.6913C36.2771 37.3161 42.4639 35.5093 49.8472 37.2552C56.1846 38.7522 62.1432 41.2346 67.7105 44.5877C73.4752 48.0682 75.9213 53.2364 74.7457 59.111C73.5978 64.8844 69.2727 68.4116 63.4032 68.341C62.1139 68.323 60.8238 68.1706 59.5293 68.0799L59.5389 68.0909Z" fill="#FCCA65"/>
<path d="M61.1941 18.2381C60.886 22.0467 60.0884 25.3256 57.9812 28.141C54.4721 32.8404 49.6073 32.8712 46.2658 28.1048C42.8126 23.1654 42.378 17.5805 43.4107 11.83C43.6955 10.2704 44.201 8.65404 44.9887 7.2845C47.6709 2.59943 53.1593 1.92056 57.0481 5.65162C59.8151 8.30263 60.9746 11.6463 61.1777 15.3772C61.2364 16.4551 61.1814 17.5351 61.1838 18.2373L61.1941 18.2381Z" fill="#FCCA65"/>
<path d="M18.3599 17.7871C18.7615 9.84497 24.4828 6.72528 30.4206 10.094C36.4179 13.4979 39.7652 20.9799 38.2642 27.6681C37.6807 30.2495 36.2761 32.3192 34.1158 33.83C30.3595 36.4576 26.1269 35.7171 23.2026 31.7748C19.8814 27.3092 18.349 22.2154 18.3599 17.7871Z" fill="#FCCA65"/>
<path d="M2.75071 36.3402C3.08582 31.852 4.62929 29.4205 7.45593 29.0095C8.81167 28.8154 10.443 28.9606 11.6611 29.5519C16.5138 31.9051 19.7893 35.6964 20.9626 41.0542C21.8094 44.8819 20.5273 48.0029 17.6788 49.61C14.2284 51.557 10.3206 51.1902 7.51541 48.4953C3.89763 45.0206 2.68972 40.5998 2.74999 36.3505L2.75071 36.3402Z" fill="#FCCA65"/>
<path d="M63.8278 31.9267C64.12 29.3765 65.1774 26.663 67.256 24.4031C69.1222 22.3761 71.3711 21.2226 74.1794 21.9562C76.8865 22.6621 78.3649 24.6962 79.1366 27.2383C80.8481 32.8713 75.7443 39.5548 69.8322 39.5019C65.85 39.4604 63.4652 36.6607 63.8175 31.926L63.8278 31.9267Z" fill="#FCCA65"/>
</svg>
