<svg width="88" height="88" viewBox="0 0 88 88" fill="none" xmlns="http://www.w3.org/2000/svg">
<path d="M40.9882 82.3089C36.067 77.6447 30.1665 76.5919 23.666 77.3876C18.2552 78.0609 12.9667 77.8774 7.9598 75.1597C-1.4052 70.0671 -2.78853 58.4985 5.31556 51.5942C7.15183 50.0272 9.20847 48.6071 11.3753 47.5911C17.0065 44.9835 22.7357 42.5841 28.4649 40.1969C37.0219 36.6223 44.3915 38.7157 50.7205 45.1427C56.1436 50.6638 60.5752 56.9193 64.0641 63.8237C67.6755 70.973 66.8552 77.7304 61.9707 82.8965C57.1597 87.9768 50.5858 88.7971 44.722 85.0144C43.4366 84.182 42.2369 83.2148 40.9882 82.3089Z" fill="#77D0D1"/>
<path d="M74.1881 33.1823C71.4704 36.8181 68.6059 39.6215 64.7007 41.1272C58.2003 43.6368 53.2791 40.6009 52.9363 33.6843C52.5813 26.5228 55.6785 20.6345 60.3549 15.5052C61.628 14.1096 63.1583 12.8119 64.8109 11.9305C70.4789 8.91901 76.4284 11.6979 77.9831 17.9045C79.0972 22.3238 78.1423 26.4126 75.9877 30.3055C75.3634 31.4195 74.6288 32.4845 74.1881 33.1945V33.1823Z" fill="#77D0D1"/>
<path d="M31.354 5.63819C36.7772 -2.09865 44.5018 -1.62117 48.358 5.52806C52.2386 12.7385 50.8798 22.3973 45.1383 28.1754C42.9226 30.4035 40.1926 31.6032 37.0709 31.7501C31.6356 32.0194 27.8406 28.6039 27.3877 22.7768C26.8735 16.1784 28.5507 10.0942 31.354 5.63819Z" fill="#77D0D1"/>
<path d="M3.92011 14.4402C7.09074 10.1311 10.1879 8.66209 13.2974 10.0332C14.7909 10.6942 16.3333 11.8694 17.178 13.2405C20.5813 18.6759 21.4749 24.5642 19.2714 30.6974C17.7044 35.08 14.4481 37.4181 10.5674 37.2345C5.85434 37.0141 2.15731 34.1617 1.04331 29.6812C-0.40123 23.8908 1.17794 18.6759 3.92011 14.4402Z" fill="#77D0D1"/>
<path d="M68.1774 48.6193C70.0871 46.2444 72.866 44.1756 76.3917 43.2208C79.5501 42.3638 82.5493 42.6208 84.912 45.1427C87.1889 47.5665 87.3971 50.5414 86.5647 53.6018C84.7161 60.3471 75.3633 63.8605 69.4505 60.0655C65.4719 57.5192 64.8354 53.1855 68.1897 48.6316L68.1774 48.6193Z" fill="#77D0D1"/>
</svg>
