<svg width="520" height="137" viewBox="0 0 520 137" fill="none" xmlns="http://www.w3.org/2000/svg">
<path d="M113.272 101.961C103.442 103.525 96.9361 109.455 92.066 117.74C88.0046 124.64 83.0626 130.643 75.443 134.021C61.1562 140.383 46.4381 131.649 45.6474 116.05C45.4676 112.51 45.6474 108.844 46.4022 105.412C48.3969 96.5161 50.7331 87.7104 53.0693 78.9047C56.5557 65.75 65.577 59.029 78.7137 57.4116C89.9814 56.0278 101.249 56.459 112.391 58.5795C123.946 60.772 131.081 67.7448 132.716 78.0781C134.334 88.2136 129.409 96.624 119.759 100.056C117.639 100.811 115.428 101.35 113.272 101.979V101.961Z" fill="#FE6B73"/>
<path d="M85.7225 19.4031C87.5196 25.8187 88.2205 31.6592 86.4773 37.5536C83.584 47.3657 75.6409 50.3849 67.2845 44.5983C58.6225 38.614 54.5252 29.7362 52.746 19.7085C52.2608 16.9769 52.1171 14.0298 52.5663 11.3162C54.1118 2.02529 62.6659 -2.41362 71.3099 1.32432C77.4559 3.98401 81.3736 8.74643 83.9614 14.7307C84.7162 16.4559 85.2913 18.253 85.7046 19.4031H85.7225Z" fill="#FE6B73"/>
<path d="M15.3845 44.652C11.2152 31.4254 18.6911 22.8354 30.462 24.7583C42.3407 26.6812 52.3685 36.8886 53.9499 48.7494C54.5609 53.3319 53.5186 57.5731 50.8949 61.347C46.3483 67.9243 38.9802 69.272 31.7919 64.6176C23.6511 59.3341 18.0442 51.9302 15.3845 44.67V44.652Z" fill="#FE6B73"/>
<path d="M1.09761 84.4755C-1.07686 76.9277 -0.0345552 72.0217 4.35033 69.6136C6.45292 68.4634 9.20248 67.7268 11.5567 67.9604C20.9195 68.8589 28.5751 73.082 33.7507 81.1329C37.4527 86.8836 37.255 92.7601 33.571 97.1091C29.0962 102.392 22.4829 104.153 16.265 101.458C8.23205 97.9715 3.57759 91.4662 1.09761 84.4755Z" fill="#FE6B73"/>
<path d="M98.3379 40.1773C97.2776 35.8284 97.3495 30.7426 99.3802 25.7826C101.195 21.3438 104.178 18.0732 109.228 17.5701C114.098 17.0848 117.746 19.5109 120.55 23.2129C126.768 31.3897 122.473 45.4248 112.768 48.9111C106.245 51.2653 100.638 48.1204 98.3199 40.1593L98.3379 40.1773Z" fill="#FE6B73"/>
<path d="M449.665 100.563C446.062 94.4553 440.434 91.6955 433.67 90.6212C428.036 89.7379 422.773 88.0285 418.523 83.8528C410.576 76.0329 412.521 64.0043 422.659 59.4C424.957 58.3542 427.434 57.5196 429.905 57.123C436.318 56.1253 442.77 55.3651 449.217 54.6172C458.85 53.491 465.655 57.7204 470.165 66.0062C474.025 73.1202 476.676 80.6867 478.193 88.6336C479.762 96.862 476.989 103.419 470.589 107.204C464.287 110.924 457.442 109.853 452.638 104.36C451.586 103.152 450.659 101.834 449.665 100.563V100.563Z" fill="#5189D3"/>
<path d="M497.205 60.749C493.425 63.6205 489.737 65.6128 485.377 66.0005C478.118 66.649 474.046 62.1781 475.696 55.126C477.404 47.8242 482.216 42.7978 488.396 38.9897C490.078 37.9538 491.99 37.0905 493.906 36.6809C500.472 35.2878 505.652 39.7968 505.425 46.4846C505.271 51.2485 503.132 55.0836 499.844 58.3759C498.895 59.3158 497.849 60.1746 497.202 60.7614L497.205 60.749Z" fill="#5189D3"/>
<path d="M462.086 20.7085C469.769 14.4944 477.397 17.2017 479.212 25.5006C481.034 33.8682 476.883 43.1863 469.445 47.3396C466.575 48.9405 463.485 49.3595 460.304 48.6071C454.763 47.3106 451.932 42.7828 453.157 36.7942C454.543 30.0127 457.983 24.3798 462.086 20.7085V20.7085Z" fill="#5189D3"/>
<path d="M431.969 21.6469C436.399 18.2291 439.936 17.6454 442.667 19.9203C443.977 21.0155 445.189 22.6417 445.643 24.2636C447.497 30.709 446.698 36.8862 442.714 42.4165C439.875 46.3704 435.927 47.7821 432.079 46.4785C427.405 44.898 424.51 40.9646 424.682 36.1391C424.9 29.9016 427.991 25.1143 431.969 21.6469V21.6469Z" fill="#5189D3"/>
<path d="M486.711 74.5347C489.316 72.6978 492.706 71.4194 496.526 71.476C499.948 71.5252 502.889 72.6484 504.537 75.8648C506.127 78.958 505.479 82.0086 503.759 84.8452C499.956 91.0932 489.541 91.9285 484.691 86.4086C481.426 82.7016 482.035 78.1614 486.72 74.5505L486.711 74.5347Z" fill="#5189D3"/>
</svg>
