<svg width="52" height="52" viewBox="0 0 52 52" fill="none" xmlns="http://www.w3.org/2000/svg">
<circle cx="26" cy="26" r="26" fill="#77D0D1"/>
<g clip-path="url(#clip0_100_943)">
<path d="M23.3334 26.1113H26V27.8891H23.3334V26.1113Z" fill="#FFF5E0"/>
<path d="M33.5112 23.5957C31.9347 21.0159 29.7841 18.8349 27.2267 17.2223C26.0453 16.4736 24.6986 16.0254 23.3041 15.9169C21.9096 15.8085 20.5097 16.043 19.2267 16.6001C18.1045 17.1294 17.128 17.924 16.3815 18.9151C15.6351 19.9063 15.1411 21.0642 14.9423 22.289C14.8712 22.7068 14.8178 23.1068 14.7645 23.4979C13.9323 23.6328 13.1751 24.059 12.628 24.7005C12.0809 25.342 11.7796 26.157 11.7778 27.0001V32.449C11.7778 32.9205 11.9651 33.3727 12.2985 33.7061C12.6319 34.0395 13.0841 34.2268 13.5556 34.2268V27.0001C13.5556 26.5286 13.7429 26.0764 14.0763 25.743C14.4097 25.4096 14.8619 25.2223 15.3334 25.2223H31.9823C33.6954 25.2247 35.3378 25.9063 36.5492 27.1177C37.7606 28.329 38.4421 29.9714 38.4445 31.6845V32.3334H36.6667C36.2913 31.418 35.592 30.6728 34.7022 30.2401C33.8124 29.8073 32.7944 29.7174 31.8425 29.9873C30.8906 30.2573 30.0714 30.8683 29.5413 31.7037C29.0111 32.5392 28.8071 33.5405 28.9682 34.5168C29.1293 35.493 29.6442 36.3758 30.4146 36.9966C31.185 37.6174 32.1571 37.9329 33.1452 37.8827C34.1334 37.8326 35.0685 37.4204 35.7721 36.7247C36.4758 36.0291 36.8986 35.0987 36.9601 34.1112H38.4445C38.916 34.1112 39.3682 33.9239 39.7016 33.5905C40.035 33.2571 40.2223 32.8049 40.2223 32.3334V31.6845C40.2187 29.7663 39.5467 27.9092 38.3218 26.4329C37.0969 24.9565 35.3958 23.9533 33.5112 23.5957ZM19.7778 23.4445H16.1601C16.1601 23.169 16.2401 22.8845 16.2934 22.5557C16.447 21.5792 16.8477 20.6582 17.4576 19.8803C18.0675 19.1024 18.8662 18.4934 19.7778 18.1112V23.4445ZM21.5556 23.4445V17.7379C23.2151 17.5224 24.8981 17.8866 26.3201 18.769C28.2612 19.978 29.9365 21.5687 31.2445 23.4445H21.5556ZM32.9334 36.2268C32.4939 36.2268 32.0642 36.0964 31.6988 35.8522C31.3333 35.6081 31.0485 35.261 30.8803 34.8549C30.7121 34.4489 30.6681 34.0021 30.7539 33.571C30.8396 33.1399 31.0513 32.744 31.362 32.4332C31.6728 32.1224 32.0688 31.9108 32.4999 31.825C32.9309 31.7393 33.3777 31.7833 33.7838 31.9515C34.1899 32.1197 34.5369 32.4045 34.7811 32.7699C35.0253 33.1354 35.1556 33.565 35.1556 34.0045C35.1556 34.5939 34.9215 35.1591 34.5047 35.5759C34.088 35.9926 33.5228 36.2268 32.9334 36.2268Z" fill="#FFF5E0"/>
<path d="M22.5955 32.3333C22.2201 31.4179 21.5208 30.6727 20.631 30.24C19.7412 29.8073 18.7232 29.7173 17.7713 29.9873C16.8194 30.2572 16.0002 30.8682 15.4701 31.7036C14.9399 32.5391 14.7359 33.5404 14.897 34.5167C15.0581 35.4929 15.5729 36.3757 16.3434 36.9965C17.1138 37.6173 18.0859 37.9328 19.074 37.8826C20.0622 37.8325 20.9973 37.4203 21.7009 36.7246C22.4045 36.029 22.8274 35.0986 22.8888 34.1111H27.5999V33.8889C27.5824 33.3645 27.6423 32.8403 27.7777 32.3333H22.5955ZM18.8888 36.2267C18.4493 36.2267 18.0197 36.0963 17.6542 35.8522C17.2888 35.608 17.004 35.2609 16.8358 34.8549C16.6676 34.4488 16.6236 34.002 16.7093 33.5709C16.7951 33.1398 17.0067 32.7439 17.3175 32.4331C17.6283 32.1223 18.0242 31.9107 18.4553 31.8249C18.8864 31.7392 19.3332 31.7832 19.7392 31.9514C20.1453 32.1196 20.4924 32.4044 20.7366 32.7698C20.9807 33.1353 21.1111 33.5649 21.1111 34.0044C21.1111 34.5938 20.8769 35.159 20.4602 35.5758C20.0434 35.9925 19.4782 36.2267 18.8888 36.2267Z" fill="#FFF5E0"/>
</g>
<defs>
<clipPath id="clip0_100_943">
<rect width="32" height="32" fill="white" transform="translate(10 11)"/>
</clipPath>
</defs>
</svg>
