<svg width="52" height="52" viewBox="0 0 52 52" fill="none" xmlns="http://www.w3.org/2000/svg">
<circle cx="26" cy="26" r="26" fill="#77D0D1"/>
<path d="M26 11.375C25.298 11.375 24.596 11.6146 23.9975 12.0433L22.13 13.3438L19.988 13.625H19.9542L19.9182 13.6588C19.2139 13.8173 18.569 14.1726 18.0585 14.6832C17.5481 15.1938 17.1931 15.8388 17.0348 16.5433L17.0011 16.577V16.613L16.7198 18.7933L15.4193 20.4808L15.3833 20.5145V20.5505C14.5981 21.8083 14.5621 23.4305 15.4193 24.6286L16.7525 26.495L17.1057 28.4278L13.4832 33.9481L12.3245 35.6694H17.7031L19.0036 38.6934L19.8136 40.6284L20.9723 38.87L24.5251 33.5263C25.4768 33.92 26.5568 33.9538 27.4771 33.5263L31.0287 38.87L32.1875 40.625L32.9975 38.69L34.2968 35.6682H39.6755L38.5167 33.9447L35 28.6021L35.2812 26.4928L36.5817 24.6297L36.6177 24.596V24.5623C37.403 23.3022 37.439 21.7183 36.5817 20.5179L35.2812 18.6538L34.8593 16.5433H34.8931C34.8931 16.5151 34.8627 16.4983 34.8593 16.4724C34.6568 15.002 33.4902 13.8061 32.0131 13.6261H31.9771L29.8677 13.3449L28.0036 12.0444C27.4217 11.618 26.7213 11.384 26 11.375ZM26 13.6588C26.2587 13.6588 26.5152 13.7375 26.7031 13.8725L28.7056 15.3125L28.9531 15.488L29.2343 15.524L31.6958 15.875H31.7296C32.2336 15.9313 32.5891 16.2856 32.6442 16.7896V16.8594L33.1021 19.3569L33.1358 19.601L33.3125 19.8125L34.7525 21.815C35.0225 22.1919 35.0562 22.8208 34.7187 23.363L33.3125 25.3317L33.137 25.5793L33.101 25.8605L32.75 28.3197V28.3535C32.7325 28.5296 32.6722 28.6987 32.5745 28.8463L32.5036 28.8822V28.9182C32.336 29.1184 32.0963 29.2444 31.8365 29.2693H31.7667L29.2017 29.7271L28.9205 29.7609L28.7067 29.9375L26.7042 31.3775C26.3296 31.6475 25.6647 31.6812 25.1225 31.3438L23.2932 29.9375L23.0817 29.762L22.7667 29.726L20.3041 29.375H20.2681C20.1089 29.362 19.9553 29.3103 19.8206 29.2244C19.6859 29.1386 19.5742 29.0211 19.4952 28.8822C19.4198 28.7527 19.3715 28.6092 19.3535 28.4604V28.3906L18.8967 25.8256L18.8607 25.5444L18.6852 25.3306L17.2452 23.3281C16.9752 22.9535 16.9415 22.2886 17.279 21.7464L18.6852 19.9171L18.8607 19.7056L18.8945 19.3906L19.2128 17.0337C19.2151 17.018 19.2421 17.0169 19.2466 17C19.3172 16.7294 19.4586 16.4825 19.6563 16.2848C19.8541 16.087 20.101 15.9456 20.3716 15.875C20.3885 15.8705 20.3896 15.8435 20.4053 15.8412L22.7622 15.524L23.0435 15.488L23.291 15.3125L25.2935 13.8725C25.4813 13.7375 25.739 13.6588 25.9966 13.6588H26ZM33.7692 30.7812L35.4927 33.4182H32.7837L32.5025 34.1214L31.7307 35.9135L29.3401 32.2572L29.8666 31.8703L32.0806 31.4821V31.5159C32.1087 31.5159 32.1256 31.4855 32.1515 31.4821C32.7431 31.3963 33.301 31.1535 33.767 30.779L33.7692 30.7812ZM18.2307 30.815C18.7111 31.2448 19.3186 31.544 19.988 31.625H20.0217L22.1682 31.9062L22.6598 32.2932L20.2703 35.9135L19.4975 34.1214L19.2162 33.4171H16.505L18.2285 30.815H18.2307Z" fill="#FFF5E0"/>
</svg>
