<svg width="40" height="40" viewBox="0 0 40 40" fill="none" xmlns="http://www.w3.org/2000/svg">
<circle cx="20" cy="20" r="20" fill="#FFF5E0"/>
<path d="M20 8.75C19.46 8.75 18.92 8.93433 18.4596 9.26404L17.023 10.2644L15.3753 10.4808H15.3494L15.3217 10.5067C14.7799 10.6287 14.2838 10.902 13.8912 11.2948C13.4985 11.6875 13.2255 12.1837 13.1037 12.7256L13.0778 12.7515V12.7792L12.8614 14.4563L11.861 15.7544L11.8333 15.7804V15.8081C11.2293 16.7756 11.2016 18.0235 11.861 18.9451L12.8865 20.3808L13.1582 21.8675L10.3717 26.1139L9.48035 27.438H13.6178L14.6181 29.7641L15.2412 31.2526L16.1326 29.9L18.8654 25.7894C19.5976 26.0923 20.4283 26.1183 21.1362 25.7894L23.8682 29.9L24.7596 31.25L25.3827 29.7615L26.3822 27.4371H30.5196L29.6282 26.1113L26.923 22.0016L27.1394 20.379L28.1398 18.946L28.1675 18.92V18.894C28.7715 17.9248 28.7992 16.7063 28.1398 15.783L27.1394 14.349L26.8149 12.7256H26.8408C26.8408 12.7039 26.8175 12.691 26.8149 12.6711C26.6591 11.54 25.7617 10.6201 24.6254 10.4816H24.5977L22.9752 10.2653L21.5412 9.2649C21.0936 8.93692 20.5548 8.75691 20 8.75ZM20 10.5067C20.199 10.5067 20.3963 10.5673 20.5408 10.6712L22.0812 11.7788L22.2716 11.9138L22.4879 11.9415L24.3814 12.2115H24.4074C24.7951 12.2548 25.0685 12.5274 25.1109 12.9151V12.9688L25.4631 14.8899L25.4891 15.0777L25.625 15.2404L26.7327 16.7808C26.9403 17.0707 26.9663 17.5544 26.7067 17.9715L25.625 19.486L25.49 19.6763L25.4623 19.8927L25.1923 21.7844V21.8104C25.1788 21.9458 25.1325 22.076 25.0573 22.1894L25.0028 22.2171V22.2448C24.8738 22.3987 24.6895 22.4957 24.4896 22.5148H24.4359L22.4628 22.867L22.2465 22.893L22.0821 23.0288L20.5417 24.1365C20.2535 24.3442 19.7421 24.3702 19.325 24.1106L17.9178 23.0288L17.7552 22.8938L17.5128 22.8662L15.6185 22.5962H15.5908C15.4684 22.5862 15.3502 22.5464 15.2466 22.4803C15.143 22.4143 15.0571 22.3239 14.9963 22.2171C14.9383 22.1175 14.9012 22.0071 14.8873 21.8926V21.8389L14.5359 19.8659L14.5082 19.6495L14.3732 19.4851L13.2655 17.9447C13.0578 17.6565 13.0319 17.1451 13.2915 16.728L14.3732 15.3209L14.5082 15.1582L14.5342 14.9159L14.7791 13.1029C14.7808 13.0908 14.8016 13.0899 14.8051 13.0769C14.8593 12.8688 14.9681 12.6788 15.1203 12.5267C15.2724 12.3746 15.4623 12.2658 15.6704 12.2115C15.6834 12.2081 15.6843 12.1873 15.6964 12.1856L17.5094 11.9415L17.7257 11.9138L17.9161 11.7788L19.4565 10.6712C19.601 10.5673 19.7992 10.5067 19.9974 10.5067H20ZM25.9763 23.6779L27.3021 25.7063H25.2182L25.0019 26.2472L24.4082 27.6258L22.5693 24.8133L22.9743 24.5156L24.6774 24.217V24.243C24.699 24.243 24.712 24.2196 24.7319 24.217C25.187 24.151 25.6161 23.9643 25.9746 23.6762L25.9763 23.6779ZM14.0236 23.7038C14.3931 24.0344 14.8604 24.2646 15.3753 24.3269H15.4013L17.0525 24.5433L17.4306 24.841L15.5926 27.6258L14.998 26.2472L14.7817 25.7055H12.6961L14.0219 23.7038H14.0236Z" fill="#FE6B73"/>
</svg>
