<svg width="52" height="52" viewBox="0 0 52 52" fill="none" xmlns="http://www.w3.org/2000/svg">
<circle cx="26" cy="26" r="26" fill="#FFF5E0"/>
<g clip-path="url(#clip0_100_939)">
<path fill-rule="evenodd" clip-rule="evenodd" d="M26.0001 15.8399L24.5661 14.3659C22.3061 12.0439 18.08 12.8119 16.5461 15.8059C15.8461 17.1759 15.6441 19.2199 17.0181 21.9299C18.3201 24.5059 21.0401 27.6399 26.0001 31.0839C30.958 27.6379 33.678 24.5039 34.982 21.9299C36.3561 19.2199 36.156 17.1759 35.4541 15.8079C33.92 12.8119 29.6941 12.0439 27.4341 14.3659L26.0001 15.8399ZM25.0201 32.8399C3.46005 17.9599 19.0201 6.52995 25.7381 12.7139C25.8281 12.7959 25.9161 12.8819 26.0021 12.9719C26.0881 12.8819 26.1761 12.7959 26.2661 12.7139C32.9861 6.52995 48.5401 17.9619 26.9801 32.8399L27.4501 33.7759C27.4795 33.8348 27.497 33.8988 27.5017 33.9644C27.5063 34.0301 27.498 34.0959 27.4772 34.1583C27.4564 34.2207 27.4235 34.2784 27.3804 34.3281C27.3373 34.3778 27.2849 34.4185 27.2261 34.4479C27.1672 34.4774 27.1032 34.4949 27.0376 34.4996C26.9719 34.5042 26.9061 34.4959 26.8437 34.4751C26.7813 34.4543 26.7236 34.4214 26.6739 34.3783C26.6242 34.3352 26.5835 34.2828 26.5541 34.2239L26.5381 34.1899C26.5541 34.4099 26.578 34.5939 26.6121 34.7699C26.72 35.3099 26.9341 35.7459 27.4501 36.7759C28.0261 37.9319 27.92 39.0759 27.602 40.0339C27.288 40.9719 26.7581 41.7679 26.4261 42.2639L26.418 42.2779C26.3815 42.3326 26.3346 42.3795 26.28 42.416C26.2254 42.4525 26.1641 42.4779 26.0996 42.4907C26.0352 42.5035 25.9689 42.5035 25.9044 42.4907C25.84 42.4778 25.7787 42.4525 25.7241 42.4159C25.6694 42.3794 25.6225 42.3325 25.586 42.2779C25.5495 42.2233 25.5241 42.162 25.5113 42.0975C25.4985 42.0331 25.4985 41.9667 25.5113 41.9023C25.5242 41.8379 25.5495 41.7766 25.5861 41.7219C25.9221 41.2179 26.3861 40.5219 26.6521 39.7159C26.9181 38.9239 26.9781 38.0679 26.5541 37.2239L26.5281 37.1679C26.0481 36.2079 25.7681 35.6519 25.6321 34.9639C25.576 34.6668 25.5413 34.366 25.5281 34.0639L25.4481 34.2239C25.4189 34.2832 25.3784 34.336 25.3288 34.3795C25.2791 34.423 25.2214 34.4562 25.1588 34.4773C25.0963 34.4983 25.0302 34.5068 24.9644 34.5022C24.8986 34.4976 24.8343 34.48 24.7753 34.4504C24.7163 34.4209 24.6638 34.3799 24.6207 34.3299C24.5776 34.28 24.5448 34.222 24.5242 34.1593C24.5037 34.0966 24.4957 34.0304 24.5008 33.9646C24.5059 33.8988 24.524 33.8347 24.5541 33.7759L25.0241 32.8399H25.0201ZM22.0261 15.1199C20.7281 14.7599 19.0601 15.2859 18.3261 16.7159C18.0641 17.2319 17.8361 18.0939 18.1661 19.3859C18.2921 19.8739 18.9941 19.7819 19.1401 19.2999C19.5601 17.9059 20.394 16.4059 21.858 15.9159C22.292 15.7699 22.4661 15.2419 22.0261 15.1199Z" fill="#FE6B73"/>
</g>
<defs>
<clipPath id="clip0_100_939">
<rect width="32" height="32" fill="white" transform="translate(10 11)"/>
</clipPath>
</defs>
</svg>
