<svg width="52" height="52" viewBox="0 0 52 52" fill="none" xmlns="http://www.w3.org/2000/svg">
<circle cx="26" cy="26" r="26" fill="#FFF5E0"/>
<path d="M25.8702 17.9746C25.0791 17.9746 24.3058 18.2092 23.648 18.6487C22.9902 19.0883 22.4775 19.713 22.1747 20.4439C21.872 21.1748 21.7928 21.979 21.9471 22.755C22.1014 23.5309 22.4824 24.2436 23.0418 24.803C23.6012 25.3624 24.314 25.7434 25.0899 25.8978C25.8658 26.0521 26.6701 25.9729 27.401 25.6701C28.1319 25.3674 28.7566 24.8547 29.1961 24.1969C29.6356 23.5391 29.8702 22.7657 29.8702 21.9746C29.869 20.9141 29.4472 19.8974 28.6973 19.1475C27.9475 18.3976 26.9307 17.9758 25.8702 17.9746ZM25.8702 23.9746C25.4747 23.9746 25.088 23.8573 24.7591 23.6375C24.4302 23.4178 24.1739 23.1054 24.0225 22.74C23.8711 22.3745 23.8315 21.9724 23.9087 21.5844C23.9858 21.1965 24.1763 20.8401 24.456 20.5604C24.7357 20.2807 25.0921 20.0902 25.4801 20.013C25.868 19.9359 26.2702 19.9755 26.6356 20.1269C27.0011 20.2782 27.3134 20.5346 27.5332 20.8635C27.7529 21.1924 27.8702 21.579 27.8702 21.9746C27.8696 22.5049 27.6587 23.0132 27.2838 23.3881C26.9088 23.7631 26.4005 23.974 25.8702 23.9746Z" fill="#FE6B73"/>
<path d="M33.5566 14.2824C31.6562 12.3825 29.1193 11.2538 26.4356 11.1143C23.7519 10.9748 21.1117 11.8343 19.0244 13.5269C16.9372 15.2196 15.551 17.6254 15.1333 20.2801C14.7155 22.9347 15.296 25.65 16.7625 27.9019L24.3192 39.5027C24.4873 39.7608 24.7173 39.9729 24.9881 40.1197C25.259 40.2665 25.5622 40.3434 25.8703 40.3434C26.1784 40.3434 26.4816 40.2665 26.7524 40.1197C27.0233 39.9729 27.2532 39.7608 27.4214 39.5027L34.9783 27.9019C36.3391 25.8129 36.9405 23.3197 36.6816 20.8401C36.4228 18.3606 35.3195 16.0453 33.5566 14.2824ZM33.3026 26.8102L25.8703 38.2196L18.438 26.8102C16.163 23.3177 16.6509 18.644 19.5982 15.6966C20.4218 14.8729 21.3997 14.2196 22.4758 13.7738C23.552 13.328 24.7055 13.0986 25.8703 13.0986C27.0352 13.0986 28.1886 13.328 29.2648 13.7738C30.3409 14.2196 31.3188 14.8729 32.1424 15.6966C35.0897 18.644 35.5776 23.3177 33.3026 26.8102Z" fill="#FE6B73"/>
</svg>
