<svg width="52" height="52" viewBox="0 0 52 52" fill="none" xmlns="http://www.w3.org/2000/svg">
<circle cx="26" cy="26" r="26" fill="#77D0D1"/>
<path d="M24.6667 22.0002H30C30.3537 22.0002 30.6928 21.8597 30.9429 21.6096C31.1929 21.3596 31.3334 21.0205 31.3334 20.6668C31.3334 20.3132 31.1929 19.9741 30.9429 19.724C30.6928 19.474 30.3537 19.3335 30 19.3335H27.3334V18.0002C27.3334 17.6465 27.1929 17.3074 26.9429 17.0574C26.6928 16.8073 26.3537 16.6668 26 16.6668C25.6464 16.6668 25.3073 16.8073 25.0572 17.0574C24.8072 17.3074 24.6667 17.6465 24.6667 18.0002V19.3335C23.6058 19.3335 22.5884 19.7549 21.8383 20.5051C21.0881 21.2552 20.6667 22.2726 20.6667 23.3335C20.6667 24.3944 21.0881 25.4118 21.8383 26.1619C22.5884 26.9121 23.6058 27.3335 24.6667 27.3335H27.3334C27.687 27.3335 28.0261 27.474 28.2762 27.724C28.5262 27.9741 28.6667 28.3132 28.6667 28.6668C28.6667 29.0205 28.5262 29.3596 28.2762 29.6096C28.0261 29.8597 27.687 30.0002 27.3334 30.0002H22C21.6464 30.0002 21.3073 30.1406 21.0572 30.3907C20.8072 30.6407 20.6667 30.9799 20.6667 31.3335C20.6667 31.6871 20.8072 32.0263 21.0572 32.2763C21.3073 32.5264 21.6464 32.6668 22 32.6668H24.6667V34.0002C24.6667 34.3538 24.8072 34.6929 25.0572 34.943C25.3073 35.193 25.6464 35.3335 26 35.3335C26.3537 35.3335 26.6928 35.193 26.9429 34.943C27.1929 34.6929 27.3334 34.3538 27.3334 34.0002V32.6668C28.3942 32.6668 29.4117 32.2454 30.1618 31.4953C30.912 30.7451 31.3334 29.7277 31.3334 28.6668C31.3334 27.606 30.912 26.5885 30.1618 25.8384C29.4117 25.0883 28.3942 24.6668 27.3334 24.6668H24.6667C24.3131 24.6668 23.974 24.5264 23.7239 24.2763C23.4739 24.0263 23.3334 23.6871 23.3334 23.3335C23.3334 22.9799 23.4739 22.6407 23.7239 22.3907C23.974 22.1406 24.3131 22.0002 24.6667 22.0002ZM26 11.3335C23.0993 11.3335 20.2636 12.1937 17.8517 13.8053C15.4398 15.4169 13.5599 17.7075 12.4498 20.3875C11.3397 23.0675 11.0493 26.0164 11.6152 28.8615C12.1811 31.7065 13.578 34.3199 15.6291 36.3711C17.6803 38.4222 20.2937 39.8191 23.1387 40.385C25.9838 40.9509 28.9328 40.6605 31.6127 39.5504C34.2927 38.4403 36.5833 36.5604 38.1949 34.1485C39.8065 31.7366 40.6667 28.901 40.6667 26.0002C40.6667 22.1103 39.1215 18.3798 36.3709 15.6293C33.6204 12.8787 29.8899 11.3335 26 11.3335ZM26 38.0002C23.6267 38.0002 21.3066 37.2964 19.3332 35.9778C17.3598 34.6592 15.8217 32.7851 14.9135 30.5924C14.0052 28.3997 13.7676 25.9869 14.2306 23.6591C14.6936 21.3313 15.8365 19.1931 17.5148 17.5149C19.193 15.8367 21.3312 14.6938 23.659 14.2307C25.9867 13.7677 28.3995 14.0054 30.5922 14.9136C32.785 15.8219 34.6591 17.3599 35.9777 19.3333C37.2963 21.3067 38 23.6268 38 26.0002C38 29.1828 36.7358 32.235 34.4853 34.4854C32.2349 36.7359 29.1826 38.0002 26 38.0002Z" fill="#FFF5E0"/>
</svg>
