<?xml version="1.0" encoding="utf-8"?>
<!-- Generator: Adobe Illustrator 26.1.0, SVG Export Plug-In . SVG Version: 6.00 Build 0)  -->
<svg version="1.1" id="Capa_1" xmlns="http://www.w3.org/2000/svg" xmlns:xlink="http://www.w3.org/1999/xlink" x="0px" y="0px"
	 viewBox="0 0 334 74" style="enable-background:new 0 0 334 74;" xml:space="preserve">
<style type="text/css">
	.st0{fill:#FE6B73;}
	.st1{fill:#5189D3;}
</style>
<path class="st0" d="M28,27.7c-2.3,0.4-3.8,1.7-4.9,3.7c-0.9,1.6-2.1,3-3.9,3.8c-3.3,1.5-6.8-0.6-6.9-4.2c0-0.8,0-1.7,0.2-2.5
	c0.5-2.1,1-4.1,1.6-6.2c0.8-3.1,2.9-4.6,6-5c2.6-0.3,5.3-0.2,7.8,0.3c2.7,0.5,4.4,2.1,4.7,4.5c0.4,2.4-0.8,4.3-3,5.1
	C29,27.5,28.5,27.6,28,27.7L28,27.7z"/>
<path class="st0" d="M21.6,8.5c0.4,1.5,0.6,2.9,0.2,4.2c-0.7,2.3-2.5,3-4.5,1.6c-2-1.4-3-3.5-3.4-5.8c-0.1-0.6-0.1-1.3,0-2
	c0.4-2.2,2.4-3.2,4.4-2.3c1.4,0.6,2.3,1.7,2.9,3.1C21.3,7.8,21.5,8.2,21.6,8.5L21.6,8.5z"/>
<path class="st0" d="M5.2,14.4c-1-3.1,0.8-5.1,3.5-4.6c2.8,0.4,5.1,2.8,5.5,5.6c0.1,1.1-0.1,2.1-0.7,2.9c-1.1,1.5-2.8,1.8-4.5,0.8
	C7.1,17.8,5.8,16.1,5.2,14.4L5.2,14.4z"/>
<path class="st0" d="M1.8,23.7c-0.5-1.8-0.3-2.9,0.8-3.5c0.5-0.3,1.1-0.4,1.7-0.4c2.2,0.2,4,1.2,5.2,3.1c0.9,1.3,0.8,2.7,0,3.7
	c-1,1.2-2.6,1.6-4,1C3.5,26.8,2.4,25.3,1.8,23.7z"/>
<path class="st0" d="M24.5,13.3c-0.2-1-0.2-2.2,0.2-3.4c0.4-1,1.1-1.8,2.3-1.9c1.1-0.1,2,0.5,2.6,1.3c1.4,1.9,0.4,5.2-1.8,6
	C26.3,15.9,25,15.2,24.5,13.3L24.5,13.3z"/>
<path class="st1" d="M297.7,64.1c-1.8-3.1-4.7-4.5-8.1-5.1c-2.9-0.4-5.5-1.3-7.7-3.4c-4-4-3-10.1,2.1-12.4c1.2-0.5,2.4-1,3.7-1.2
	c3.3-0.5,6.5-0.9,9.8-1.3c4.9-0.6,8.4,1.6,10.6,5.8c2,3.6,3.3,7.5,4.1,11.5c0.8,4.2-0.6,7.5-3.9,9.4c-3.2,1.9-6.7,1.3-9.1-1.4
	C298.7,65.4,298.2,64.7,297.7,64.1z"/>
<path class="st1" d="M321.8,43.8c-1.9,1.5-3.8,2.5-6,2.7c-3.7,0.3-5.8-1.9-4.9-5.5c0.9-3.7,3.3-6.3,6.5-8.2c0.9-0.5,1.8-1,2.8-1.2
	c3.3-0.7,6,1.6,5.9,5c-0.1,2.4-1.2,4.4-2.8,6C322.7,43.1,322.2,43.5,321.8,43.8L321.8,43.8z"/>
<path class="st1" d="M304,23.5c3.9-3.2,7.8-1.8,8.7,2.4c0.9,4.3-1.2,9-5,11.1c-1.5,0.8-3,1-4.6,0.6c-2.8-0.7-4.3-3-3.6-6
	C300.2,28.2,301.9,25.3,304,23.5z"/>
<path class="st1" d="M288.7,24c2.3-1.7,4-2,5.4-0.9c0.7,0.6,1.3,1.4,1.5,2.2c0.9,3.3,0.5,6.4-1.5,9.2c-1.4,2-3.4,2.7-5.4,2.1
	c-2.4-0.8-3.8-2.8-3.8-5.3C285.1,28.1,286.7,25.7,288.7,24z"/>
<path class="st1" d="M316.5,50.8c1.3-0.9,3-1.6,5-1.6c1.7,0,3.2,0.6,4.1,2.2c0.8,1.6,0.5,3.1-0.4,4.6c-1.9,3.2-7.2,3.6-9.7,0.8
	C313.8,55,314.1,52.7,316.5,50.8L316.5,50.8z"/>
</svg>
