<svg width="347" height="415" viewBox="0 0 347 415" fill="none" xmlns="http://www.w3.org/2000/svg">
<path fill-rule="evenodd" clip-rule="evenodd" d="M157.795 0.44302C215.5 -2.77223 286.635 10.8073 319.699 64.4797C351.152 115.539 332.581 187.478 319.699 248.006C307.115 307.129 311.024 372.653 263.686 401.34C214.738 431.004 128.387 405.504 75.8772 389.21C2.29863 366.377 2.29864 303 2.29863 248.006C2.29863 190.803 -6.81038 103.844 22.6247 56.9809C54.0872 6.88997 103.591 3.46311 157.795 0.44302Z" fill="#FE6B73"/>
<g clip-path="url(#clip0_153_204)">
<path d="M319.3 146.965C321.741 147.051 323.504 148.304 324.939 150.173C326.133 151.731 327.521 153.047 329.479 153.646C333.152 154.768 336.483 152.206 336.21 148.382C336.148 147.518 335.999 146.63 335.703 145.812C334.954 143.71 334.12 141.631 333.285 139.559C332.045 136.46 329.643 135.097 326.39 135.089C323.598 135.089 320.868 135.526 318.216 136.374C315.462 137.254 313.934 139.162 313.84 141.724C313.746 144.239 315.197 146.139 317.654 146.692C318.192 146.817 318.746 146.879 319.292 146.965H319.3Z" fill="#77D0D1"/>
<path d="M323.551 126.041C323.301 127.661 323.309 129.101 323.91 130.48C324.908 132.785 326.936 133.283 328.8 131.624C330.735 129.911 331.468 127.629 331.6 125.13C331.639 124.452 331.585 123.728 331.39 123.082C330.734 120.862 328.512 120.037 326.523 121.205C325.103 122.038 324.292 123.308 323.839 124.842C323.707 125.285 323.621 125.737 323.551 126.033V126.041Z" fill="#77D0D1"/>
<path d="M341.459 130.09C342.075 126.742 340.001 124.881 337.193 125.698C334.354 126.524 332.216 129.304 332.177 132.239C332.162 133.369 332.544 134.373 333.293 135.214C334.595 136.678 336.436 136.787 338.051 135.44C339.876 133.906 341.022 131.944 341.459 130.098V130.09Z" fill="#77D0D1"/>
<path d="M346.131 139.365C346.436 137.465 346.038 136.297 344.899 135.845C344.353 135.627 343.659 135.533 343.089 135.658C340.835 136.156 339.088 137.41 338.066 139.528C337.333 141.039 337.559 142.464 338.589 143.414C339.837 144.566 341.506 144.8 342.941 143.951C344.798 142.861 345.734 141.14 346.131 139.365Z" fill="#77D0D1"/>
<path d="M321.102 131.476C321.234 130.386 321.063 129.148 320.415 128.003C319.838 126.975 319.011 126.274 317.771 126.298C316.57 126.329 315.751 127.022 315.182 128.003C313.91 130.176 315.377 133.47 317.841 134.03C319.503 134.412 320.774 133.478 321.102 131.468V131.476Z" fill="#77D0D1"/>
<path d="M295.308 185.122C296.158 182.833 297.897 181.555 300.128 180.785C301.984 180.138 303.669 179.243 304.855 177.568C307.078 174.438 305.681 170.482 301.961 169.54C301.119 169.33 300.229 169.19 299.364 169.213C297.125 169.26 294.886 169.4 292.656 169.54C289.317 169.742 287.266 171.588 286.244 174.672C285.363 177.319 284.926 180.045 284.895 182.825C284.864 185.706 286.205 187.762 288.608 188.65C290.971 189.53 293.233 188.751 294.528 186.594C294.816 186.119 295.05 185.613 295.308 185.122Z" fill="#FCCA65"/>
<path d="M276.752 174.516C278.21 175.256 279.583 175.707 281.089 175.575C283.592 175.357 284.7 173.589 283.709 171.3C282.688 168.932 280.745 167.515 278.413 166.604C277.781 166.355 277.079 166.184 276.401 166.16C274.084 166.082 272.602 167.928 273.086 170.186C273.429 171.79 274.389 172.958 275.707 173.877C276.089 174.142 276.494 174.368 276.752 174.524V174.516Z" fill="#FCCA65"/>
<path d="M286.229 158.817C283.241 157.182 280.816 158.56 280.706 161.48C280.597 164.432 282.571 167.328 285.347 168.286C286.416 168.652 287.492 168.605 288.53 168.162C290.331 167.383 291.018 165.677 290.238 163.723C289.356 161.511 287.843 159.806 286.221 158.817H286.229Z" fill="#FCCA65"/>
<path d="M296.509 157.306C294.793 156.419 293.561 156.434 292.773 157.369C292.398 157.82 292.086 158.443 292.024 159.019C291.79 161.317 292.437 163.357 294.122 164.992C295.331 166.16 296.751 166.394 297.983 165.716C299.473 164.899 300.214 163.388 299.863 161.768C299.41 159.666 298.069 158.233 296.509 157.298V157.306Z" fill="#FCCA65"/>
<path d="M281.151 178.55C280.153 178.082 278.928 177.857 277.633 178.106C276.471 178.332 275.543 178.892 275.184 180.076C274.833 181.221 275.239 182.217 275.995 183.066C277.664 184.951 281.252 184.6 282.563 182.435C283.444 180.979 282.961 179.476 281.151 178.542V178.55Z" fill="#FCCA65"/>
</g>
<defs>
<clipPath id="clip0_153_204">
<rect width="74" height="69" fill="white" transform="matrix(-1 0 0 1 347 120)"/>
</clipPath>
</defs>
</svg>
