<svg width="88" height="96" viewBox="0 0 88 96" fill="none" xmlns="http://www.w3.org/2000/svg">
<path fill-rule="evenodd" clip-rule="evenodd" d="M39.9328 0.0888484C53.3523 1.20742 59.1322 16.0027 67.572 26.3341C76.0887 36.7596 89.2589 45.4986 87.903 58.8103C86.4195 73.3752 74.4289 84.8115 60.9798 91.0553C47.6684 97.2352 31.6981 98.1412 19.0144 90.7924C7.28289 83.9952 4.10628 69.8166 1.59246 56.6466C-0.756196 44.3419 -1.33268 31.5932 5.727 21.1791C13.584 9.58887 25.8286 -1.08678 39.9328 0.0888484Z" fill="#FE6B73"/>
<path d="M31.8677 72.1806H44.5675H56.8577C58.4964 72.1806 59.7254 70.5419 59.7254 68.4936V44.7326C59.0699 40.1443 55.0824 38.7241 53.1706 38.5875H35.5548C30.6387 38.5875 28.8634 42.6843 28.5903 44.7326V68.4936C28.5903 71.1155 30.7752 72.0441 31.8677 72.1806Z" stroke="white" stroke-width="3"/>
<rect x="38.603" y="33.0328" width="11.1095" height="4.55475" stroke="white" stroke-width="2"/>
<rect x="40.2417" y="28.1167" width="7.83212" height="3.73541" stroke="white" stroke-width="2"/>
<line x1="28.5903" y1="51.3575" x2="36.7838" y2="51.3575" stroke="white" stroke-width="3"/>
<line x1="45.7966" y1="51.6075" x2="59.7255" y2="51.6075" stroke="white" stroke-width="2.5"/>
<path fill-rule="evenodd" clip-rule="evenodd" d="M29.7071 27.8238C30.3433 27.1876 31.5429 26.3813 32.9897 26.1013C34.3885 25.8307 36.0597 26.0398 37.7823 27.4753C37.9694 27.6312 38.1966 27.7072 38.4225 27.7071V27.9361L50.7126 27.9361V25.9361L39.0593 25.9361C36.8501 24.0966 34.5625 23.7599 32.6097 24.1378C30.7041 24.5065 29.1588 25.5436 28.2929 26.4096C27.9024 26.8001 27.9024 27.4333 28.2929 27.8238C28.6834 28.2143 29.3166 28.2143 29.7071 27.8238Z" fill="white"/>
<circle cx="41.2901" cy="50.468" r="4.07573" stroke="white" stroke-width="2.5"/>
<circle cx="50.303" cy="60.3001" r="2.43705" stroke="white" stroke-width="2.5"/>
<circle cx="42.1094" cy="66.0356" r="1.6177" stroke="white" stroke-width="2.5"/>
</svg>
