<svg width="88" height="96" viewBox="0 0 88 96" fill="none" xmlns="http://www.w3.org/2000/svg">
<path fill-rule="evenodd" clip-rule="evenodd" d="M39.9328 0.0888484C53.3523 1.20742 59.1322 16.0027 67.572 26.3341C76.0887 36.7596 89.2589 45.4986 87.903 58.8103C86.4195 73.3752 74.4289 84.8115 60.9798 91.0553C47.6684 97.2352 31.6981 98.1412 19.0144 90.7924C7.28289 83.9952 4.10628 69.8166 1.59246 56.6466C-0.756196 44.3419 -1.33268 31.5932 5.727 21.1791C13.584 9.58887 25.8286 -1.08678 39.9328 0.0888484Z" fill="#77D0D1"/>
<path d="M43.5567 67.0293C40.6723 64.5847 35.9387 56.7131 40.0792 44.7835C44.2198 32.8539 54.3664 25.9601 58.9221 24.0044C56.469 23.9229 50.4145 24.9334 45.8211 29.627C45.7941 28.8121 46.0475 26.7587 47.2767 25.0638C44.9584 26.3404 40.0631 29.7248 39.0279 33.0494C38.8392 31.9086 38.7853 29.35 40.0792 28.2417C38.354 30.1159 35.0006 35.1681 35.3888 40.3832C34.8227 39.7313 33.6743 37.8897 33.6096 35.7385C32.3696 38.7535 30.2616 46.2829 31.7496 52.2803C31.1835 51.6555 30.0028 49.9497 29.8087 48.1244C29.7278 51.058 30.1483 57.7236 32.4774 60.9178C31.5878 60.2931 29.647 58.7014 29 57.3324C30.1591 61.8142 33.0597 71.0222 35.3888 72" stroke="white" stroke-width="2" stroke-linecap="round" stroke-linejoin="round"/>
</svg>
