<svg width="88" height="96" viewBox="0 0 88 96" fill="none" xmlns="http://www.w3.org/2000/svg">
<path fill-rule="evenodd" clip-rule="evenodd" d="M39.9328 0.0888484C53.3523 1.20742 59.1322 16.0027 67.572 26.3341C76.0887 36.7596 89.2589 45.4986 87.903 58.8103C86.4195 73.3752 74.4289 84.8115 60.9798 91.0553C47.6684 97.2352 31.6981 98.1412 19.0144 90.7924C7.28289 83.9952 4.10628 69.8166 1.59246 56.6466C-0.756196 44.3419 -1.33268 31.5932 5.727 21.1791C13.584 9.58887 25.8286 -1.08678 39.9328 0.0888484Z" fill="#77D0D1"/>
<path d="M31.6223 49.9281C31.6223 53.8951 29.0743 56.5432 26.5612 56.5432C24.048 56.5432 21.5 53.8951 21.5 49.9281C21.5 45.9612 24.048 43.313 26.5612 43.313C29.0743 43.313 31.6223 45.9612 31.6223 49.9281Z" stroke="white" stroke-width="3"/>
<path d="M66.5 49.9281C66.5 53.8951 63.9519 56.5432 61.4388 56.5432C58.9257 56.5432 56.3777 53.8951 56.3777 49.9281C56.3777 45.9612 58.9257 43.313 61.4388 43.313C63.9519 43.313 66.5 45.9612 66.5 49.9281Z" stroke="white" stroke-width="3"/>
<path d="M56.1404 36.1151C56.1404 40.0821 53.5923 42.7302 51.0792 42.7302C48.5661 42.7302 46.0181 40.0821 46.0181 36.1151C46.0181 32.1481 48.5661 29.5 51.0792 29.5C53.5923 29.5 56.1404 32.1481 56.1404 36.1151Z" stroke="white" stroke-width="3"/>
<path d="M41.6367 36.1151C41.6367 40.0821 39.0887 42.7302 36.5756 42.7302C34.0625 42.7302 31.5144 40.0821 31.5144 36.1151C31.5144 32.1481 34.0625 29.5 36.5756 29.5C39.0887 29.5 41.6367 32.1481 41.6367 36.1151Z" stroke="white" stroke-width="3"/>
<path d="M32.6044 67.5396C35.5051 69.6116 39.1913 66.038 43.4821 65.9856C48.1738 65.9284 52.1152 69.9016 55.3958 67.5396C59.7123 64.4317 57.2951 59.4245 55.3958 58.3885C52.5717 56.8482 50.0087 56.8001 48.4893 53.8993C46.9699 50.9986 46.072 50.2734 44.1728 50.2734C42.3127 50.2734 40.7541 51.6893 40.2015 53.8993C39.5109 56.6619 35.5397 57.1799 32.6044 58.3885C29.6692 59.5972 28.9785 64.9497 32.6044 67.5396Z" stroke="white" stroke-width="3"/>
</svg>
