<svg width="88" height="96" viewBox="0 0 88 96" fill="none" xmlns="http://www.w3.org/2000/svg">
<path fill-rule="evenodd" clip-rule="evenodd" d="M39.9328 0.0888484C53.3523 1.20742 59.1322 16.0027 67.572 26.3341C76.0887 36.7596 89.2589 45.4986 87.903 58.8103C86.4195 73.3752 74.4289 84.8115 60.9798 91.0553C47.6684 97.2352 31.6981 98.1412 19.0144 90.7924C7.28289 83.9952 4.10628 69.8166 1.59246 56.6466C-0.756196 44.3419 -1.33268 31.5932 5.727 21.1791C13.584 9.58887 25.8286 -1.08678 39.9328 0.0888484Z" fill="#5189D3"/>
<path d="M49.5784 52.5055C49.8299 47.616 51.9748 37.2697 58.5424 35C63.0395 37.6862 70.3435 44.9298 67.265 61.9524" stroke="white" stroke-width="2" stroke-linecap="round" stroke-linejoin="round"/>
<path d="M53.2605 48.3706C52.9177 52.3546 55.8561 53.5015 57.4256 54.6183C60.4739 55.2823 64.3389 60.8055 65.0918 56.1575C66.3469 48.4082 61.8321 39.0251 58.5725 39.135C55.8863 39.2255 53.5019 45.5637 53.2605 48.3706Z" fill="white"/>
<path d="M38.4216 52.5055C38.1701 47.616 36.0252 37.2697 29.4576 35C24.9605 37.6862 17.6565 44.9298 20.735 61.9524" stroke="white" stroke-width="2" stroke-linecap="round" stroke-linejoin="round"/>
<path d="M34.7395 48.3706C35.0823 52.3546 32.1439 53.5015 30.5744 54.6183C27.5261 55.2823 23.6611 60.8055 22.9082 56.1575C21.6531 48.4082 26.1679 39.0251 29.4275 39.135C32.1137 39.2255 34.4981 45.5637 34.7395 48.3706Z" fill="white"/>
</svg>
