<svg width="88" height="96" viewBox="0 0 88 96" fill="none" xmlns="http://www.w3.org/2000/svg">
<path fill-rule="evenodd" clip-rule="evenodd" d="M39.9328 0.0888484C53.3523 1.20742 59.1322 16.0027 67.572 26.3341C76.0887 36.7596 89.2589 45.4986 87.903 58.8103C86.4195 73.3752 74.4289 84.8115 60.9798 91.0553C47.6684 97.2352 31.6981 98.1412 19.0144 90.7924C7.28289 83.9952 4.10628 69.8166 1.59246 56.6466C-0.756196 44.3419 -1.33268 31.5932 5.727 21.1791C13.584 9.58887 25.8286 -1.08678 39.9328 0.0888484Z" fill="#FCCA65"/>
<path d="M38.197 55.424C41.321 58.548 48.919 56.016 55.167 49.767C61.416 43.519 63.948 35.921 60.824 32.797M47.389 30.675L48.803 32.09M42.44 35.625L43.854 37.039M38.196 41.282L39.61 42.696M36.782 48.353L38.196 49.767M55.167 28.554L56.581 29.968M53.753 37.04L56.581 39.868M48.804 41.99L51.632 44.818M43.146 46.232L45.975 49.06" stroke="white" stroke-width="3" stroke-linecap="round" stroke-linejoin="round"/>
<path d="M38.1963 59.667C39.3678 58.4954 39.3678 56.5959 38.1963 55.4243C37.0247 54.2528 35.1252 54.2528 33.9536 55.4243L28.2968 61.0812C27.1252 62.2528 27.1252 64.1522 28.2968 65.3238C29.4683 66.4954 31.3678 66.4954 32.5394 65.3238L38.1963 59.667Z" stroke="white" stroke-width="3" stroke-linecap="round" stroke-linejoin="round"/>
</svg>
