<svg id="Capa_1" data-name="Capa 1" xmlns="http://www.w3.org/2000/svg" viewBox="0 0 324.45 64.55"><defs><style>.cls-1{fill:#fe6b73;}.cls-2{fill:#5189d3;}</style></defs><path class="cls-1" d="M26.4,23.76a6.87,6.87,0,0,0-4.94,3.68,8.57,8.57,0,0,1-3.88,3.79,4.77,4.77,0,0,1-6.94-4.18,9.78,9.78,0,0,1,.17-2.48c.47-2.08,1-4.13,1.56-6.18.81-3.07,2.91-4.63,6-5a25.51,25.51,0,0,1,7.85.27,5.39,5.39,0,0,1,4.74,4.55,4.43,4.43,0,0,1-3,5.12c-.49.17-1,.3-1.51.45Z"/><path class="cls-1" d="M20,4.52a7.4,7.4,0,0,1,.17,4.23c-.67,2.29-2.52,3-4.47,1.64a8.43,8.43,0,0,1-3.39-5.8,6.08,6.08,0,0,1,0-1.95A3,3,0,0,1,16.62.31a5.67,5.67,0,0,1,2.95,3.12c.17.41.31.82.4,1.09Z"/><path class="cls-1" d="M3.59,10.41c-1-3.09.77-5.09,3.51-4.64a6.75,6.75,0,0,1,5.47,5.59,4,4,0,0,1-.71,2.94,3,3,0,0,1-4.45.76,9.63,9.63,0,0,1-3.82-4.65Z"/><path class="cls-1" d="M.26,19.69C-.25,17.93,0,16.78,1,16.22a3.1,3.1,0,0,1,1.68-.38,6.6,6.6,0,0,1,5.18,3.07,3,3,0,0,1,0,3.72,3.38,3.38,0,0,1-4,1A6.45,6.45,0,0,1,.26,19.69Z"/><path class="cls-1" d="M22.92,9.36A5.43,5.43,0,0,1,23.16,6a2.73,2.73,0,0,1,2.3-1.92,2.87,2.87,0,0,1,2.63,1.32,4.1,4.1,0,0,1-1.81,6c-1.52.55-2.83-.19-3.37-2Z"/><path class="cls-2" d="M296.1,60.07C294.27,57,291.41,55.56,288,55a13.34,13.34,0,0,1-7.7-3.44c-4-4-3-10.08,2.1-12.42A14.71,14.71,0,0,1,286.06,38c3.26-.51,6.54-.89,9.82-1.27,4.89-.57,8.35,1.58,10.64,5.79A39.51,39.51,0,0,1,310.6,54c.8,4.18-.61,7.52-3.86,9.44A6.87,6.87,0,0,1,297.62,62C297.08,61.38,296.61,60.71,296.1,60.07Z"/><path class="cls-2" d="M320.26,39.83a11.47,11.47,0,0,1-6,2.67c-3.69.33-5.76-1.94-4.92-5.52s3.31-6.27,6.46-8.2a9,9,0,0,1,2.8-1.18,4.69,4.69,0,0,1,5.85,5,8.78,8.78,0,0,1-2.84,6c-.48.48-1,.91-1.34,1.21Z"/><path class="cls-2" d="M302.42,19.49c3.9-3.16,7.78-1.78,8.7,2.43a10.51,10.51,0,0,1-5,11.1,6.29,6.29,0,0,1-4.65.64c-2.82-.65-4.25-3-3.63-6A15,15,0,0,1,302.42,19.49Z"/><path class="cls-2" d="M287.11,20c2.25-1.73,4.05-2,5.44-.87a4.77,4.77,0,0,1,1.51,2.2,10.25,10.25,0,0,1-1.49,9.23c-1.44,2-3.45,2.72-5.4,2.06a5.24,5.24,0,0,1-3.76-5.25A10.13,10.13,0,0,1,287.11,20Z"/><path class="cls-2" d="M314.93,46.84a8.53,8.53,0,0,1,5-1.56A4.26,4.26,0,0,1,324,47.51a4.45,4.45,0,0,1-.4,4.57c-1.93,3.17-7.22,3.6-9.69.79-1.66-1.88-1.35-4.19,1-6Z"/></svg>